<?xml version="1.0" encoding="UTF-8" standalone="no"?>
<!DOCTYPE svg PUBLIC "-//W3C//DTD SVG 1.1//EN" "http://www.w3.org/Graphics/SVG/1.1/DTD/svg11.dtd">
<svg width="100%" height="100%" viewBox="0 0 1500 1500" version="1.1" xmlns="http://www.w3.org/2000/svg" xmlns:xlink="http://www.w3.org/1999/xlink" xml:space="preserve" xmlns:serif="http://www.serif.com/" style="fill-rule:evenodd;clip-rule:evenodd;stroke-linejoin:round;stroke-miterlimit:2;">
    <g>
        <rect x="0" y="0" width="1500" height="1500" style="fill:white;"/>
        <g transform="matrix(0.940154,0,0,0.940154,51.4064,30.3768)">
            <g>
                <g transform="matrix(1,0,0,1,27.5826,19.899)">
                    <path d="M832.941,917.437C821.459,921.847 811.545,925.663 807.855,927.102C798.07,930.917 797.543,930.469 799.916,920.36C808.336,884.547 812.828,867.063 825.646,820.252C841.648,761.8 847.553,739.598 855.976,706.191C860.436,688.507 865.878,667.371 868.073,659.228C872.543,642.632 872.514,643.484 868.583,644.863C866.985,645.424 864.04,646.287 862.038,646.778C860.035,647.273 856.777,648.234 854.797,648.911C848.659,651.015 847.262,649.734 848.001,642.665C848.212,640.659 848.674,635.839 849.027,631.955C849.384,628.071 849.788,623.801 849.926,622.465C850.061,621.129 850.461,617.033 850.807,613.364C851.157,609.694 851.706,604.096 852.03,600.925C852.351,597.754 852.9,591.751 853.246,587.58C853.588,583.408 854.127,577.674 854.44,574.839C854.75,571.999 855.474,565.039 856.046,559.367C856.617,553.692 857.382,548.851 857.742,548.607C862.263,545.538 886.901,539.743 904.811,537.529C952.744,531.614 1000.38,546.97 1029.05,574.707C1051.79,586.923 1069.49,604.535 1078.06,625.591C1125.72,566.813 1209.43,530.625 1319.2,522.469C1326.88,521.898 1340.84,522.095 1341.53,522.783C1342.7,523.96 1343.14,523.845 1333.58,543.497C1337.93,543.075 1342.33,542.699 1346.78,542.369C1354.46,541.797 1368.42,541.994 1369.11,542.682C1370.63,544.207 1370.91,543.563 1349.82,586.547C1345.07,596.223 1339.47,607.69 1337.38,612.029C1335.29,616.365 1328.49,630.26 1322.28,642.902C1316.07,655.545 1310.98,666.084 1310.98,666.32C1310.98,668.031 1308.05,668.996 1298.71,670.354C1283.23,672.603 1273.88,673.969 1253.65,676.943C1243.3,678.464 1232.95,679.979 1230.65,680.31C1226.12,680.962 1224.53,680.732 1224,679.353C1223.65,678.462 1224.05,677.36 1232.46,656.105C1230.45,656.4 1228.32,656.712 1226.07,657.044C1219.82,657.963 1213.57,658.879 1209.09,659.534C1208.44,659.964 1207.82,660.38 1207.24,660.776C1182.9,677.333 1171.65,691.193 1173.37,702.075C1183.97,705.02 1197.6,707.213 1214.24,708.619C1240.23,710.818 1258.15,714.076 1268.84,718.543C1278.86,722.731 1285.81,728.914 1289.66,736.06C1292.17,736.812 1294.42,737.606 1296.42,738.442C1328.02,751.652 1329.09,784.703 1298.59,805.23C1289.19,811.553 1267.26,821.48 1227.56,837.388C1195.18,850.359 1169.81,860.461 1153.84,866.733C1133.43,874.756 1101.44,887.333 1088.02,892.622C1083.01,894.596 1063.9,902.109 1045.55,909.32C990.099,931.104 977.821,935.935 957.573,943.925C930.326,954.678 929.569,954.944 928.298,954.151C926.598,953.088 926.726,950.736 929.358,934.122C929.912,930.628 930.453,927.208 931.02,923.62C930.679,923.754 930.336,923.89 929.991,924.026C902.743,934.779 901.986,935.045 900.716,934.252C899.327,933.383 899.158,931.655 900.577,921.991C881.776,929.171 843.554,943.836 835.438,947.001C825.653,950.816 825.125,950.368 827.499,940.259C829.477,931.846 831.238,924.445 832.941,917.437ZM1056.58,721.145C1030.23,750.613 987.745,770.841 940.18,774.666L934.927,775.089L934.589,776.981C934.308,778.572 932.332,793.082 929.951,811.029C929.87,811.642 929.745,812.573 929.589,813.724C942.525,811.45 965.629,806.799 981.257,803.208C986.43,802.022 1003.49,798.05 1019.16,794.384C1056.73,785.593 1064.97,783.733 1090.16,778.342C1111.16,773.85 1117.28,772.525 1139.18,767.73C1128.49,765.929 1118.16,762.649 1108.64,757.976C1096.71,752.119 1087.82,745.687 1081.89,738.477C1081.61,738.345 1081.34,738.211 1081.06,738.076C1070.57,732.924 1062.42,727.326 1056.58,721.145ZM124.522,959.318C92.445,967.882 92.671,967.805 91.647,966.57C90.981,965.769 91.279,964.317 99.75,927.037C106.958,895.326 110.059,881.675 111.876,873.644C115.159,859.127 123.943,820.478 129.87,794.468C132.873,781.287 136.688,764.498 138.348,757.155C146.062,722.995 156.276,678.004 157.973,670.698C158.785,667.193 161.398,655.726 163.775,645.216C174.205,599.141 175.858,592.225 176.535,591.806C177.314,591.326 180.823,591.023 201.074,589.702C218.274,588.581 238.263,587.23 255.074,586.047C290.436,583.568 288.142,582.96 283.352,593.521C282.616,595.139 280.469,599.851 277.527,606.306C279.264,606.184 280.976,606.064 282.656,605.946C318.018,603.467 315.725,602.859 310.934,613.42C309.311,616.991 300.822,635.615 292.067,654.802C285.666,668.83 279.835,681.61 274.659,692.958C344.277,618.918 339.183,624.285 340.857,624.285C342.681,624.285 341.745,621.756 354.883,656.965C368.885,642.228 367.429,644.184 368.44,644.184C369.279,644.184 369.534,643.648 370.846,646.503C371.725,639.254 373.324,628.091 375.822,610.936C376.31,607.601 377.952,595.861 379.473,584.849C380.995,573.838 382.378,564.362 382.546,563.794C383.955,559.003 417.798,550.267 444.063,547.911C489.243,543.867 539.504,552.717 576.329,571.206C590.262,578.201 601.679,586.07 610.542,594.604C670.322,627.78 677.654,678.405 628.913,726.833C602.372,753.206 558.137,777.72 524.445,785.449C536.097,790.157 548.682,795.242 555.696,798.076C564.87,801.785 572.733,805.174 573.169,805.611C573.719,806.161 573.838,806.558 570.847,812.952C575.737,814.928 580.085,816.685 583.279,817.975C592.452,821.684 600.315,825.073 600.752,825.51C601.626,826.384 601.411,826.872 589.347,851.68C585.94,858.688 582.252,866.332 581.153,868.669C580.057,871.003 575.736,879.947 571.553,888.538C562.143,907.872 563.472,907.246 553.519,897.038C551.598,895.068 545.705,889.062 537.773,880.987C534.333,886.719 532.881,884.261 525.937,877.139C522.118,873.222 502.606,853.361 482.574,833.001C472.347,822.608 461.974,812.058 453.587,803.521C453.285,805.82 452.948,808.555 452.611,811.484C451.682,819.576 450.397,830.701 449.76,836.209C446.83,861.48 443.648,889.033 442.509,899.004C437.864,939.622 436.524,949.855 435.76,950.572C435.159,951.136 429.003,951.53 412.797,952.039C392.367,952.68 357.21,953.969 336.576,954.831C329.096,955.144 327.88,955.064 327.002,954.183C325.812,952.997 325.641,953.637 330.65,940.591C331.618,938.069 332.493,935.751 333.15,933.976C324.215,934.316 315.812,934.647 308.994,934.932C301.513,935.245 300.297,935.165 299.42,934.284C298.229,933.098 298.058,933.738 303.067,920.692C303.348,919.961 303.621,919.247 303.882,918.559C286.489,911.733 261.696,901.995 233.513,890.919C219.163,885.28 207.306,880.766 207.168,880.89C207.026,881.014 206.567,883.227 206.149,885.812C201.722,913.099 193.033,964.413 192.538,966.185C191.788,968.883 196.363,967.398 153.739,978.781C120.019,987.783 120.271,987.725 119.229,986.469C118.647,985.768 118.802,984.569 124.522,959.318ZM375.753,658.927C378.011,664.911 381.134,673.3 385.524,685.057C387.09,689.252 388.491,693.009 389.741,696.375C391.789,691.076 393.923,685.552 396.146,679.799C396.63,678.547 397.107,677.312 397.575,676.1C397.607,672.654 398.397,665.968 400.202,653.101C396.552,653.939 391.002,655.277 382.64,657.309C380.1,657.927 377.682,658.493 375.753,658.927ZM368.856,750.422C363.026,755.166 356.58,760.414 350.002,765.769C314.451,794.713 304.982,802.423 274.004,827.662C273.283,828.248 272.575,828.826 271.883,829.392C308.21,838.945 316.549,841.14 323.529,842.99C327.479,844.038 331.116,844.81 331.615,844.708C332.179,844.591 334.985,838.093 339.161,827.231C342.816,817.719 347.133,806.528 348.76,802.357C350.448,798.03 356.616,782.087 368.856,750.422Z"/>
                </g>
                <path d="M931.562,949.549C931.812,946.855 932.364,941.775 933.473,934.774C935.941,919.21 938.159,905.109 943.481,871.134C946.58,851.347 947.792,842.774 948.723,839.105C955.55,838.426 989.107,831.916 1009.77,827.169C1014.95,825.981 1032.01,822.008 1047.69,818.341C1085.22,809.559 1093.45,807.701 1118.62,802.315C1140.87,797.556 1146.41,796.35 1171.72,790.808C1203.78,783.786 1223.84,777.818 1230.6,773.631C1232.17,772.662 1233.22,771.687 1233.85,770.835L1234.81,768.977L1235.06,767.327L1234.93,766.226L1234.57,765.277L1234.01,764.428L1233.18,763.637C1232.52,763.138 1231.2,762.515 1229.25,762.135C1222.79,760.881 1205.69,760.761 1195.96,762.314L1195.96,762.314C1191.58,763.014 1174.62,764.481 1164.84,765.016C1145.86,766.054 1126.91,762.305 1110.48,754.235C1094.37,746.326 1084.03,737.474 1079.55,726.749C1075.14,716.204 1076.59,704.02 1083.15,689.593C1120.72,607.027 1214.84,556.349 1347.09,546.524C1351.62,546.187 1359.72,546.344 1364.32,546.474C1362.09,551.406 1356.58,563.321 1346.08,584.711C1341.32,594.395 1335.72,605.871 1333.63,610.218C1331.54,614.55 1324.75,628.433 1318.54,641.065C1312.91,652.52 1308.2,662.26 1307.32,664.267L1307.29,664.354C1306.01,664.699 1302.49,665.593 1298.11,666.23C1282.62,668.48 1273.28,669.846 1253.04,672.82C1242.7,674.341 1232.36,675.854 1230.06,676.186C1229.75,676.23 1229.43,676.268 1229.12,676.3C1230.29,673.154 1232.56,667.175 1236.57,657.041C1239.01,650.852 1241.06,645.571 1241.44,644.461L1241.74,642.888L1241.59,641.799L1241.07,640.617L1240.23,639.658L1239.32,639.081L1238.38,638.764L1237.44,638.675L1235.43,639.124C1231.94,640.525 1213.99,651.14 1204.89,657.331C1187.57,669.113 1176.71,679.717 1172.01,688.797C1168.29,695.991 1168.12,702.461 1171.02,708.148C1173.7,713.392 1179.27,718.111 1188.03,721.905C1199.77,726.99 1217.59,730.651 1241.47,732.67C1266.86,734.818 1284.37,737.923 1294.82,742.286C1308.8,748.134 1316.27,758.18 1316.63,769.227C1317,780.524 1310.07,792.483 1296.26,801.773C1286.97,808.025 1265.27,817.791 1226.01,833.521C1193.64,846.486 1168.28,856.585 1152.32,862.855C1131.9,870.878 1099.91,883.456 1086.49,888.746C1081.48,890.719 1062.37,898.232 1044.02,905.442C988.572,927.227 976.293,932.058 956.044,940.049C941.83,945.659 935.018,948.371 931.562,949.549ZM1306.84,666.091L1306.82,666.32C1306.82,666.249 1306.83,666.172 1306.84,666.091ZM830.947,944.18C831.111,943.271 831.314,942.236 831.555,941.212C839.962,905.452 844.448,887.993 857.247,841.252C873.261,782.758 879.17,760.54 887.599,727.109C892.052,709.449 897.487,688.343 899.679,680.211C902.061,671.367 903.161,667.152 903.225,665.352L903.09,663.705L902.496,662.202L901.348,660.908L899.829,660.128L898.63,659.928L897.376,660.02C896.748,660.134 895.875,660.449 894.786,660.831C893.282,661.358 890.511,662.168 888.627,662.631L888.62,662.632C886.522,663.151 883.107,664.158 881.032,664.868L881.028,664.869C880.582,665.022 880.082,665.157 879.63,665.266C879.628,664.589 879.647,663.761 879.727,662.997C879.939,660.983 880.404,656.139 880.759,652.234C881.114,648.37 881.516,644.122 881.653,642.793L881.655,642.782C881.79,641.442 882.191,637.336 882.538,633.657C882.887,629.996 883.435,624.411 883.758,621.248L883.759,621.243C884.081,618.054 884.634,612.018 884.981,607.823L884.982,607.819C885.321,603.686 885.854,598.005 886.164,595.195L886.165,595.189C886.475,592.344 887.201,585.368 887.774,579.684C888.083,576.613 888.636,573.046 888.92,571.296C890.366,570.665 892.573,569.964 895.268,569.178C905.02,566.332 920.582,563.086 932.904,561.564C995.182,553.878 1057.16,582.825 1074.73,628.504C1080.91,644.579 1080.88,666.678 1074.69,683.62C1057.51,730.677 1003.22,765.417 939.846,770.513L934.593,770.935C932.706,771.087 931.159,772.492 930.826,774.355L930.487,776.248L930.485,776.258C930.203,777.857 928.213,792.443 925.82,810.482C925.511,812.816 924.566,819.767 923.719,825.933C922.117,837.595 919.055,860.139 914.905,890.863C913.097,904.239 912.023,910.968 911.638,913.278C910.98,913.561 910.131,913.914 909.424,914.173L909.418,914.175C905.289,915.691 844.426,939.023 833.924,943.119C832.9,943.518 831.859,943.881 830.947,944.18ZM1000.15,676.46C997.266,675.234 993.266,674.097 991.275,673.887L988.143,673.553C986.127,673.338 984.249,674.605 983.693,676.554L982.936,679.214C981.749,683.385 973.444,708.472 972.253,711.482C968.769,720.296 967.092,724.842 966.857,725.871L966.855,725.881C966.73,726.432 966.463,727.435 966.267,728.11L966.02,729.37L966.054,730.619L966.274,731.494L966.757,732.468L967.445,733.288L968.302,733.92L969.352,734.356L970.662,734.532L972.352,734.277C972.844,734.135 973.466,733.897 974.222,733.53C976.212,732.563 979.637,730.427 985.046,726.814C999.263,717.315 1007.96,707.563 1010.97,699.372C1012.8,694.371 1012.7,689.795 1010.86,685.867C1009.09,682.077 1005.62,678.781 1000.15,676.46ZM359.443,868.691C357.74,873.632 356.152,878.274 355.254,880.977C351.967,890.866 346.67,908.106 346.627,908.279C346.592,908.419 346.676,908.622 346.812,908.671C347.138,908.788 347.137,908.652 347.268,908.332C356.348,886.241 359.009,879.204 366.278,859.496C367.5,856.602 368.973,852.943 370.633,848.625C374.285,839.12 378.599,827.938 380.225,823.77C382.879,816.965 396.615,781.433 427.615,701.2C433.34,686.383 438.146,673.952 438.298,673.574L438.302,673.565L438.574,672.557L438.601,671.547L438.384,670.539L437.893,669.552L437.288,668.837L436.356,668.163L435.239,667.744L434.212,667.619C432.906,667.588 427.43,668.738 409.239,673.16C406.624,673.795 403.801,674.431 401.747,674.883C401.972,669.514 403.716,657.611 407.528,631.435C408.016,628.099 409.66,616.345 411.184,605.319C412.463,596.06 413.611,587.915 414.001,585.541C414.923,585.028 417.75,583.502 420.487,582.514C432.335,578.241 453.998,573.576 472.018,571.961C516.43,567.985 565.843,576.653 602.042,594.828C633.488,610.616 651.785,630.817 655.927,653.304C660.054,675.704 650.007,700.001 625.977,723.877C597.356,752.316 547.767,778.614 514.041,783.132L508.522,783.871C506.647,784.122 505.176,785.605 504.941,787.482C504.705,789.359 505.764,791.159 507.519,791.866L511.409,793.432C513.545,794.291 526.484,799.521 540.16,805.049C553.844,810.575 572.543,818.132 581.717,821.838C587.148,824.034 592.853,826.507 595.994,827.886C594.543,831.098 591.294,838.148 585.6,849.858C582.183,856.886 578.485,864.552 577.382,866.896L577.381,866.898C576.288,869.226 571.979,878.146 567.807,886.714C564.769,892.956 562.999,897.006 561.527,899.202C561.292,899.001 561.048,898.782 560.83,898.571C559.662,897.435 558.263,895.934 556.503,894.129C552.683,890.211 533.165,870.343 513.126,849.977C493.098,829.625 472.512,808.668 467.377,803.416C462.598,798.526 458.446,794.448 457.51,793.679L456.434,792.99L454.682,792.607L453.693,792.726L452.572,793.179L451.223,794.437L450.578,795.869C450.252,797.064 449.346,803.41 448.471,811.007L448.471,811.009C447.543,819.1 446.258,830.223 445.621,835.73C442.691,861.003 439.509,888.559 438.369,898.531C435.102,927.101 433.033,941.982 432.32,946.899C429.263,947.126 422.542,947.564 412.666,947.875C392.225,948.516 357.047,949.805 336.402,950.668C334.293,950.757 332.553,950.78 331.304,950.779C331.971,948.914 333.041,945.989 334.54,942.084C336.498,936.983 338.079,932.682 338.326,931.838L338.524,930.462L338.397,929.506L337.826,928.218L336.709,927.086C336.64,927.04 336.571,926.995 336.5,926.952C336.42,926.904 333.225,925.583 329.37,924.077C320.209,920.496 282.411,905.66 235.037,887.041C221.999,881.918 210.999,877.72 208.827,877.022L207.902,876.782L206.825,876.736L205.428,877.104L204.411,877.77L203.659,878.639L203.227,879.492C203.014,880.046 202.478,882.414 202.036,885.145C197.721,911.741 189.356,961.295 188.563,964.903C188.196,965.041 187.756,965.199 187.311,965.341C182.936,966.738 173.434,969.208 152.664,974.755C137.442,978.819 128.307,981.073 123.87,982.132C124.855,977.327 127.04,967.027 131.396,947.859C138.604,916.146 141.706,902.494 143.522,894.463C146.806,879.946 155.589,841.301 161.515,815.293C164.519,802.109 168.335,785.316 169.995,777.973C177.706,743.822 187.918,698.844 189.614,691.54L189.615,691.537C190.427,688.029 193.043,676.553 195.422,666.035C202.776,633.545 206.176,619.685 207.255,615.387C209.964,615.132 216.466,614.572 228.928,613.759C246.134,612.637 266.131,611.286 282.948,610.103C295.178,609.245 304.311,608.958 308.407,608.864C308.013,609.754 307.56,610.772 307.14,611.697C305.515,615.272 297.028,633.891 288.276,653.073C266.524,700.741 251.358,734.008 246.086,745.599L234.936,770.124C231.515,777.652 228.748,784.035 228.316,785.325L228.064,786.437L228.154,787.826L228.565,788.893L229.267,789.826L230.516,790.685L232.16,791.046L233.357,790.887L234.6,790.297C234.701,790.228 235.213,789.807 236.028,788.976C240.901,784.008 266.345,757.115 296.671,724.864C345.035,673.433 362.324,655.413 367.63,649.933C369.485,654.569 373.773,665.496 381.62,686.514C390.519,710.347 394.011,719.786 395.011,723.564C393.884,724.573 392.047,726.194 390.455,727.482C387.452,729.915 368.063,745.691 347.371,762.538C311.82,791.482 302.351,799.193 271.372,824.431C264.901,829.701 259.393,834.275 258.243,835.317L257.295,836.402L257.272,836.44L256.866,837.318L256.671,838.293L256.88,839.965L257.738,841.424L258.607,842.16L259.673,842.679C261.782,843.482 273.588,846.795 287.837,850.541C333.207,862.472 342.434,864.9 350.045,866.916C353.417,867.811 356.58,868.505 357.981,868.696L359.443,868.691ZM533.323,704.415C528.016,702.401 524.491,701.738 523.032,701.913L521.899,702.168L520.973,702.595L520.141,703.224L519.401,704.138C519.141,704.623 517.487,708.754 515.742,713.517L515.741,713.52C512.369,722.739 506.271,738.151 501.813,748.731C500.21,752.538 498.884,755.926 498.631,756.784L498.421,758.139L498.509,759.028L498.84,760.038L499.467,761.017L500.297,761.775L501.12,762.232L502.181,762.539L503.888,762.528C505.237,762.311 508.317,760.926 512.084,758.653C519.603,754.116 530.658,746.144 535.583,741.2C541.215,735.547 544.689,730.373 546.189,725.862C547.41,722.191 547.422,718.842 546.402,715.838C544.833,711.217 540.637,707.189 533.323,704.415Z" style="fill:white;"/>
            </g>
            <g transform="matrix(1.18614,0,0,1.18614,-160.089,-88.9348)">
                <g transform="matrix(0.4862,0,0,0.4862,386.19,381.896)">
                    <path d="M928.983,270.267C932.313,269.23 948.756,269.262 950.781,270.31C951.676,270.777 953.78,271.337 955.452,271.558C959.638,272.114 968.301,275.195 968.301,276.132C968.301,276.385 968.786,276.596 969.385,276.596C970.694,276.596 975.221,279.776 977.421,282.24C981.967,287.334 984.944,291.135 985.272,292.265C985.475,292.96 986.527,295.403 987.607,297.688C991.964,306.915 990.616,308.409 983.614,302.112C982.035,300.694 973.075,296.333 970.084,295.527C968.611,295.132 967.128,294.6 966.79,294.347C961.691,290.557 935.508,290.172 924.726,293.727C918.626,295.738 918.64,295.745 918.113,290.857C917.885,288.732 917.464,286.058 917.179,284.914C916.027,280.286 915.945,277.056 916.958,275.94C918.22,274.542 923.4,271.84 924.812,271.84C925.418,271.84 926.113,271.64 926.359,271.394C926.602,271.152 927.782,270.642 928.983,270.267ZM724.971,271.316C728.347,270.738 741.753,271.159 744.58,271.936C752.231,274.032 758.428,277.052 761.041,279.961C762.139,281.177 760.745,289.092 758.178,296.23C756.952,299.638 756.823,299.67 752.666,297.663C750.944,296.836 748.687,295.998 747.65,295.809C746.616,295.62 745.233,295.139 744.58,294.743C743.514,294.098 739.785,293.385 731.802,292.294C722.422,291.01 708.956,292.254 701.619,295.082C700.87,295.374 699.725,295.609 699.076,295.609C697.682,295.609 691.532,298.629 688.017,301.039C686.445,302.12 685.386,302.515 685.14,302.116C684.716,301.432 687.111,295.014 687.789,295.014C688.021,295.014 688.669,294.041 689.24,292.85C694.117,282.621 705.751,274.403 718.136,272.432C720.589,272.043 723.663,271.54 724.971,271.316ZM713.937,316.413C729.581,313.764 743.25,320.449 754.631,336.314C757.03,339.658 764.243,354.105 764.749,356.579C764.877,357.2 765.793,360.647 766.785,364.241C772.664,385.544 771.12,414.811 763.202,432.217C760.374,438.431 757.939,443.094 756.67,444.731C752.816,449.701 751.379,451.351 748.117,454.56C738.223,464.293 720.429,467.491 710.799,461.266C709.648,460.521 707.084,458.995 705.105,457.879C695.561,452.499 684.626,436.292 680.013,420.69C675.31,404.789 673.742,381.836 676.476,368.994C676.826,367.361 677.521,364.013 678.024,361.56C682.541,339.48 698.859,318.966 713.937,316.413ZM866.227,448.588C868.687,445.458 876.859,446.813 884.724,451.654C893.751,457.209 898.365,466.479 893.42,469.124C891.181,470.322 886.892,467.994 886.892,465.58C886.892,462.988 883.686,460.518 883.023,462.603C882.813,463.267 882.043,464.4 881.312,465.128C880.581,465.851 878.335,468.201 876.317,470.347L872.652,474.248L876.196,479.26C885.323,492.167 884.745,495.112 871.044,505.558L868.566,507.447L868.309,516.657C868.049,526.08 866.316,537.784 864.662,541.318C864.202,542.298 863.104,545.371 862.22,548.149C861.336,550.926 859.821,554.937 858.851,557.062C856.312,562.62 852.369,570.382 851.906,570.731C851.685,570.892 850.091,572.956 848.362,575.316C835.937,592.248 816.652,599.171 802.405,591.813C786.269,583.477 780.949,567.565 782.946,533.592C783.31,527.381 783.738,519.716 783.891,516.557L784.172,510.813L780.714,510.104C767.145,507.316 762.891,501.486 767.861,492.488C768.974,490.466 770.646,486.641 771.576,483.984C772.507,481.328 773.43,478.989 773.63,478.79C775.181,477.239 773.815,474.633 769.266,470.451L764.567,466.133L762.891,469.256C761.176,472.451 760.146,473.068 757.583,472.422C751.668,470.939 757.907,458.699 767.056,453.84C771.912,451.262 779.42,453.138 779.816,457.027C780.09,459.755 778.315,460.974 774.2,460.878L770.813,460.803L772.026,462.136C772.692,462.874 773.74,464.097 774.357,464.86C775.883,466.746 784.251,473.032 787.278,474.568C788.633,475.253 789.877,476.03 790.048,476.294C790.476,476.954 799.464,480.761 801.806,481.275C802.858,481.507 804.448,482.056 805.343,482.498C809.429,484.516 822.046,485.082 832.225,483.706C848.643,481.489 867.112,471.035 874.577,459.737L876.82,456.343L875.173,455.655C874.263,455.277 872.146,454.792 870.463,454.582C865.939,454.008 864.056,451.348 866.227,448.588ZM943.045,309.953C966.372,305.446 988.823,326.453 993.893,357.524C995.273,365.981 995.925,380.299 995.101,384.11C994.781,385.601 994.231,389.43 993.886,392.621C993.54,395.812 993.012,398.888 992.716,399.455C992.417,400.022 991.582,402.896 990.866,405.837C990.146,408.778 988.937,412.654 988.178,414.451C987.418,416.248 985.839,419.988 984.666,422.758C983.493,425.532 981.913,428.74 981.154,429.888L976.861,436.424C961.552,459.744 932.809,471.142 915.713,460.671C903.271,453.048 891.494,438.138 889.733,427.778C889.573,426.822 888.87,423.899 888.175,421.285C886.756,415.959 886.496,413.791 885.979,403.163C885.437,392 887.879,371.856 890.35,367.129C890.667,366.523 891.769,363.439 892.796,360.276C895.163,353.014 901.691,340.528 905.927,335.173C912.366,327.03 915.988,323.051 918.209,321.693C919.45,320.93 921.65,319.411 923.094,318.313C928.106,314.513 935.515,311.407 943.045,309.953ZM592.421,755.762C594.644,734.592 606.618,670.869 608.725,661.05C609.67,656.636 611.014,650.889 611.709,648.276C612.405,645.659 614.173,638.172 615.642,631.637C618.79,617.593 622.173,603.831 623.083,601.332C623.443,600.351 624.498,596.562 625.432,592.911C626.366,589.26 627.379,585.784 627.685,585.188C627.992,584.589 628.844,581.694 629.579,578.753C630.313,575.812 631.115,573.138 631.361,572.81C631.611,572.482 631.996,571.412 632.22,570.432C632.773,568.018 637.24,553.711 638.253,551.122C638.698,549.978 639.511,547.439 640.06,545.482C640.606,543.525 641.28,541.521 641.554,541.025C642.246,539.781 646.235,527.502 646.239,526.6C646.243,526.197 646.646,525.096 647.138,524.151C647.63,523.21 648.41,520.935 648.874,519.102C649.983,514.714 651.427,510.382 652.764,507.447C653.359,506.139 654.033,504.132 654.257,502.991C654.486,501.846 655.006,500.374 655.413,499.722C655.823,499.069 656.607,497.169 657.156,495.504C657.705,493.839 658.682,491.443 659.327,490.181C659.973,488.915 660.497,487.464 660.497,486.954C660.497,486.441 660.86,485.496 661.302,484.851C661.748,484.205 662.582,482.205 663.16,480.408C663.737,478.612 664.443,476.886 664.729,476.576C665.017,476.266 665.253,475.652 665.253,475.214C665.253,474.511 668.023,467.969 669.342,465.555C669.998,464.354 671.791,464.154 673.906,465.049C674.865,465.456 675.916,465.809 676.244,465.834C676.572,465.862 677.107,466.04 677.432,466.233C677.76,466.422 680.034,467.056 682.484,467.634C684.937,468.215 687.628,469.035 688.466,469.459C689.308,469.884 692.203,470.793 694.905,471.481C697.604,472.169 700.257,472.978 700.802,473.278C701.348,473.577 705.006,474.679 708.927,475.727C712.849,476.775 716.19,477.82 716.354,478.048C716.518,478.28 719.192,479.196 722.297,480.091C725.399,480.982 732.351,483.139 737.745,484.883C743.136,486.626 749.497,488.641 751.878,489.364C757.526,491.072 757.7,491.34 761.701,504.271C768.485,526.201 770.418,533.973 769.58,535.97C769.166,536.95 768.114,540.023 767.237,542.801C766.357,545.578 763.929,553.201 761.84,559.736C732.412,651.745 719.719,721.057 722.885,772.465C724.454,797.932 729.175,811.79 740.23,823.381C741.835,825.064 743.375,826.853 743.657,827.356C745.257,830.216 763.704,814.732 775.776,800.392C800.537,770.986 832.193,708.69 850.062,654.216C851.136,650.95 852.202,648.14 852.43,647.976C853.713,647.067 865.097,608.619 870.527,586.86C871.696,582.172 872.887,577.894 873.176,577.355C874.499,574.863 881.358,540.558 884.528,520.578C885.198,516.361 885.883,512.688 886.05,512.417C886.467,511.74 889.248,490.156 889.259,487.5C889.277,483.557 890.885,479.435 892.689,478.697C894.635,477.906 916.455,474.119 924.031,473.26C926.973,472.925 934.37,471.855 940.467,470.878C946.567,469.905 952.849,469.017 954.432,468.907C958.322,468.643 977.061,465.655 979.336,464.939C984.242,463.395 984.58,463.823 992.52,481.599C996.096,489.603 1002.84,504.677 1007.49,515.091C1016.81,535.913 1016.72,535.556 1015.46,544.883C1006.16,613.668 983.846,693.993 955.006,762.529L949.933,774.579C949.933,774.579 894.094,899.929 821.708,959.532C765.001,1006.22 694.555,1017.31 646.567,975.925C646.277,975.675 636.557,967.541 629.224,957.617C625.382,952.418 618.309,942.219 618.309,941.866C618.309,941.687 617.417,940.133 616.326,938.411C613.681,934.232 609.581,926.05 606.126,918.046C604.572,914.452 603.106,911.244 602.864,910.916C602.297,910.149 599.726,902.149 598.094,896.063C597.391,893.446 596.446,890.187 595.994,888.814C595.541,887.445 594.732,883.702 594.19,880.497C593.651,877.291 593.006,874.404 592.76,874.076C592.51,873.748 592.125,871.608 591.901,869.323C591.68,867.034 591.131,863.023 590.681,860.41C590.232,857.793 589.697,852.848 589.487,849.415C589.28,845.985 588.863,841.375 588.56,839.172C588.136,836.095 587.868,817.566 588.075,805.74C588.093,804.653 588.977,790.88 589.483,783.756C589.926,777.539 591.006,767.449 591.523,764.675C591.819,763.089 591.958,761.62 591.829,761.416C591.705,761.21 592.115,758.683 592.421,755.762Z" style="fill:rgb(254,254,254);"/>
                </g>
                <path d="M837.861,513.3C839.48,512.796 847.475,512.811 848.459,513.321C848.894,513.548 849.917,513.82 850.73,513.928C852.765,514.198 856.977,515.696 856.977,516.152C856.977,516.275 857.213,516.377 857.504,516.377C858.141,516.377 860.342,517.923 861.412,519.121C863.622,521.598 865.069,523.446 865.229,523.995C865.327,524.333 865.839,525.521 866.364,526.632C868.482,531.118 867.827,531.844 864.423,528.783C863.655,528.093 859.299,525.973 857.844,525.581C857.128,525.389 856.407,525.131 856.242,525.008C853.764,523.165 841.033,522.978 835.791,524.706C832.825,525.684 832.832,525.687 832.576,523.311C832.465,522.277 832.26,520.977 832.122,520.421C831.562,518.171 831.522,516.6 832.014,516.058C832.628,515.378 835.147,514.064 835.833,514.064C836.128,514.064 836.466,513.967 836.585,513.848C836.703,513.73 837.277,513.482 837.861,513.3ZM738.67,513.81C740.312,513.529 746.83,513.733 748.204,514.111C751.924,515.131 754.937,516.599 756.208,518.013C756.741,518.604 756.064,522.453 754.816,525.923C754.219,527.58 754.157,527.596 752.136,526.62C751.298,526.218 750.201,525.81 749.697,525.718C749.194,525.626 748.522,525.392 748.204,525.2C747.686,524.886 745.873,524.54 741.992,524.009C737.431,523.385 730.884,523.99 727.316,525.365C726.952,525.507 726.396,525.621 726.08,525.621C725.403,525.621 722.413,527.09 720.703,528.261C719.939,528.787 719.424,528.979 719.304,528.785C719.098,528.452 720.263,525.332 720.592,525.332C720.705,525.332 721.021,524.859 721.298,524.28C723.669,519.306 729.325,515.311 735.347,514.352C736.54,514.163 738.034,513.919 738.67,513.81ZM844.698,532.595C856.04,530.404 866.955,540.617 869.42,555.724C870.091,559.836 870.408,566.797 870.008,568.65C869.852,569.375 869.585,571.237 869.417,572.788C869.248,574.34 868.992,575.835 868.848,576.111C868.702,576.387 868.297,577.784 867.948,579.214C867.598,580.644 867.011,582.528 866.641,583.402C866.272,584.276 865.504,586.094 864.934,587.441C864.364,588.789 863.596,590.35 863.226,590.908L861.139,594.085C853.696,605.424 839.721,610.965 831.409,605.874C825.36,602.168 819.634,594.919 818.778,589.882C818.7,589.417 818.358,587.996 818.02,586.725C817.33,584.135 817.204,583.081 816.952,577.914C816.689,572.486 817.876,562.693 819.078,560.394C819.232,560.099 819.768,558.6 820.267,557.062C821.418,553.531 824.592,547.461 826.651,544.857C829.782,540.898 831.543,538.964 832.623,538.303C833.226,537.932 834.295,537.194 834.997,536.66C837.435,534.812 841.037,533.302 844.698,532.595ZM851.054,536.953C847.338,536.138 845.109,536.372 841.101,537.995C837.889,539.295 836.407,540.473 830.938,546.083C828.041,549.052 823.195,559.697 822.297,565.057C822.111,566.17 821.839,567.34 821.693,567.657C820.86,569.477 820.908,579.987 821.77,584.341C822.111,586.064 822.366,586.272 823.328,585.61C824.144,585.049 829.239,582.825 829.712,582.825C830.217,582.825 830.21,582.606 829.662,581.055C826.701,572.689 829.6,561.108 836.084,555.39C837.256,554.356 840.044,552.654 840.291,552.821C840.331,552.848 841.063,552.703 841.916,552.498C847.211,551.228 853.857,555.58 855.111,561.141C855.166,561.387 855.48,562.5 855.806,563.611C856.745,566.813 856.737,566.832 854.448,567C851.507,567.215 844.843,569.089 841.874,570.536C839.029,571.923 839.27,572.28 843.313,572.663C852.483,573.535 854.812,573.943 856.052,574.891C856.222,575.019 854.883,578.949 854.013,580.878C853.528,581.953 853.185,582.877 853.249,582.93C853.313,582.984 854.405,583.65 855.677,584.411C856.948,585.172 858.482,586.182 859.085,586.656C859.689,587.129 860.226,587.469 860.281,587.41C861.479,586.116 864.294,578.056 865.262,573.147C865.958,569.621 866.097,560.007 865.496,557.113C865.215,555.762 864.95,554.369 864.908,554.017C864.797,553.098 863.944,550.56 863.18,548.879C861.164,544.438 860.874,543.973 858.888,541.985C855.376,538.47 854.029,537.603 851.054,536.953ZM846.924,585.34C846.539,585.035 838.244,584.761 837.187,585.017C833.938,585.808 832.533,586.115 832.366,586.07C831.588,585.856 823.463,589.665 823.463,590.242C823.463,592.255 827.975,598.693 830.669,600.525C831.394,601.019 832.063,601.532 832.156,601.669C833.307,603.359 841.364,604.016 844.576,602.681C845.622,602.248 846.599,601.892 846.747,601.892C847.558,601.892 853.495,597.167 855.234,595.137C858.144,591.738 858.258,590.887 855.995,589.488C855.488,589.174 854.774,588.659 854.41,588.344C853.583,587.625 849.993,586.12 848.454,585.844C847.818,585.732 847.13,585.505 846.924,585.34ZM733.305,535.736C740.912,534.448 747.558,537.698 753.091,545.412C754.257,547.038 757.764,554.062 758.01,555.265C758.073,555.566 758.518,557.243 759,558.99C761.859,569.347 761.108,583.577 757.258,592.04C755.883,595.061 754.7,597.328 754.082,598.124C752.209,600.54 751.51,601.343 749.924,602.903C745.114,607.635 736.462,609.19 731.78,606.164C731.22,605.801 729.974,605.059 729.012,604.517C724.371,601.901 719.055,594.021 716.812,586.435C714.525,578.704 713.763,567.544 715.092,561.301C715.262,560.507 715.6,558.879 715.845,557.686C718.041,546.951 725.975,536.977 733.305,535.736ZM740.513,539.974C740.213,539.548 735.606,539.501 733.845,539.905C730.655,540.638 728.566,542.316 724.689,547.263C723.746,548.468 721.494,553.11 721.485,553.873C721.482,554.076 721.293,554.532 721.066,554.883C717.919,559.739 718.199,578.791 721.539,587.302C722.267,589.157 722.154,589.107 723.421,588.138C725.033,586.903 727.661,585.234 729.291,584.409C731.005,583.541 730.981,583.709 729.641,582.01C725.006,576.121 725.47,566.361 730.65,560.843C736.88,554.207 746.566,556.093 750.981,564.802C752.425,567.647 752.507,567.498 749.123,568.224C745.812,568.936 742.623,570.02 741.31,570.878C739.854,571.831 740.272,572.311 742.012,571.686C745.219,570.529 752.46,570.923 752.798,572.272C753.07,573.357 752.488,576.775 751.694,578.763C751.283,579.786 750.948,580.654 750.948,580.693C750.948,580.731 751.695,580.916 752.609,581.105C753.522,581.292 754.335,581.545 754.415,581.663C754.838,582.296 755.844,582.263 755.977,581.613C756.719,578.013 756.849,570.751 756.249,566.501C756.003,564.754 755.759,562.999 755.707,562.601C755.578,561.62 754.407,557.367 754.107,556.795C753.973,556.542 753.803,555.991 753.727,555.572C752.95,551.292 746.701,543.152 742.697,541.205C741.595,540.668 740.612,540.115 740.513,539.974ZM749.527,584.837C745.908,584.225 745.923,584.227 743.148,584.586C742.115,584.719 740.621,584.891 739.825,584.967C738.483,585.097 736.677,585.652 732.756,587.136C730.984,587.805 728.278,589.384 726.536,590.764C725.9,591.267 725.15,591.764 724.869,591.868C723.191,592.487 726.646,597.698 730.801,600.819C739.329,607.228 749.83,601.818 754.114,588.809C755.09,585.841 754.996,585.761 749.527,584.837ZM674.225,749.347C675.305,739.054 681.127,708.072 682.152,703.299C682.611,701.153 683.265,698.358 683.603,697.088C683.941,695.815 684.8,692.175 685.515,688.998C687.045,682.17 688.69,675.479 689.132,674.263C689.307,673.787 689.82,671.944 690.275,670.169C690.729,668.394 691.221,666.704 691.37,666.414C691.519,666.123 691.933,664.716 692.291,663.286C692.648,661.856 693.038,660.555 693.157,660.396C693.279,660.236 693.466,659.716 693.575,659.24C693.844,658.066 696.016,651.11 696.508,649.851C696.725,649.295 697.12,648.061 697.387,647.109C697.652,646.158 697.98,645.183 698.113,644.942C698.449,644.337 700.389,638.367 700.391,637.929C700.393,637.733 700.589,637.197 700.828,636.738C701.067,636.28 701.447,635.174 701.672,634.283C702.211,632.15 702.913,630.043 703.563,628.617C703.853,627.981 704.18,627.005 704.289,626.45C704.4,625.894 704.653,625.178 704.851,624.861C705.05,624.543 705.432,623.619 705.699,622.81C705.966,622 706.441,620.835 706.754,620.222C707.068,619.606 707.323,618.901 707.323,618.653C707.323,618.403 707.5,617.944 707.715,617.63C707.931,617.317 708.337,616.344 708.618,615.47C708.899,614.597 709.242,613.758 709.381,613.607C709.521,613.456 709.635,613.158 709.635,612.945C709.635,612.603 710.982,609.423 711.624,608.249C711.943,607.665 712.814,607.568 713.842,608.003C714.309,608.2 714.82,608.372 714.98,608.384C715.139,608.398 715.399,608.485 715.557,608.578C715.716,608.67 716.822,608.979 718.013,609.26C719.206,609.542 720.514,609.941 720.922,610.147C721.331,610.353 722.738,610.795 724.052,611.13C725.365,611.465 726.654,611.858 726.919,612.004C727.185,612.149 728.963,612.685 730.87,613.194C732.777,613.704 734.401,614.212 734.481,614.323C734.56,614.436 735.861,614.881 737.37,615.316C738.878,615.75 742.259,616.798 744.881,617.646C747.502,618.494 750.595,619.473 751.753,619.825C754.498,620.655 754.583,620.785 756.528,627.072C759.827,637.735 760.767,641.514 760.359,642.484C760.158,642.961 759.647,644.455 759.22,645.806C758.792,647.156 757.612,650.862 756.596,654.039C742.288,698.774 736.117,732.474 737.656,757.468C738.419,769.85 740.714,776.588 746.09,782.224C746.87,783.042 747.618,783.912 747.755,784.156C748.534,785.547 757.502,778.018 763.372,771.046C775.411,756.749 790.802,726.461 799.49,699.976C800.012,698.388 800.53,697.022 800.641,696.942C801.265,696.5 806.8,677.807 809.44,667.227C810.008,664.948 810.587,662.868 810.728,662.606C811.371,661.394 814.706,644.715 816.247,635.001C816.573,632.95 816.906,631.165 816.987,631.033C817.19,630.704 818.542,620.21 818.547,618.918C818.556,617.001 819.338,614.997 820.215,614.638C821.161,614.254 831.77,612.413 835.453,611.995C836.883,611.832 840.48,611.312 843.445,610.837C846.41,610.364 849.465,609.932 850.234,609.878C852.126,609.75 861.237,608.298 862.342,607.949C864.728,607.199 864.892,607.407 868.753,616.049C870.491,619.941 873.769,627.27 876.033,632.333C880.564,642.457 880.518,642.283 879.906,646.818C875.383,680.261 864.535,719.315 850.513,752.637L848.047,758.496C848.047,758.496 820.898,819.441 785.704,848.42C758.133,871.122 723.882,876.51 700.55,856.39C700.409,856.269 695.684,852.314 692.118,847.489C690.25,844.961 686.811,840.003 686.811,839.831C686.811,839.744 686.378,838.988 685.847,838.151C684.561,836.12 682.568,832.141 680.888,828.25C680.132,826.503 679.42,824.942 679.302,824.783C679.026,824.41 677.777,820.52 676.983,817.561C676.641,816.289 676.182,814.705 675.962,814.037C675.741,813.372 675.348,811.552 675.084,809.993C674.823,808.435 674.509,807.031 674.389,806.871C674.268,806.712 674.081,805.672 673.972,804.561C673.864,803.448 673.597,801.498 673.379,800.227C673.16,798.955 672.9,796.55 672.798,794.881C672.698,793.214 672.495,790.972 672.347,789.901C672.141,788.405 672.011,779.396 672.112,773.647C672.12,773.118 672.55,766.422 672.796,762.958C673.011,759.935 673.537,755.029 673.788,753.681C673.932,752.909 673.999,752.195 673.937,752.096C673.876,751.996 674.076,750.767 674.225,749.347ZM861.887,613.843C861.888,612.239 861.895,612.239 855.098,613.333C851.921,613.845 846.851,614.604 843.831,615.02C833.45,616.455 823.148,618.003 823,618.149C822.919,618.23 822.602,620.423 822.297,623.023C821.48,629.934 820.601,635.904 820.13,637.717C819.903,638.591 819.449,640.865 819.119,642.772C817.45,652.448 813.638,669.065 811.797,674.697C811.563,675.411 810.369,679.441 809.145,683.653C806.779,691.785 802.315,705.29 800.407,710.088C797.113,718.367 793.301,727.364 791.044,732.19C790.337,733.698 789.528,735.454 789.243,736.09C787.475,740.039 786.458,742.072 783.599,747.361C767.251,777.614 750.444,793.108 737.556,789.804C731.915,788.358 728.122,784.271 724.24,775.449C723.557,773.898 722.087,768.295 721.606,765.413C720.26,757.323 720.242,757.092 720.211,746.634C720.169,733.152 720.674,726.96 722.926,713.266C724.546,703.403 727.968,686.867 728.722,685.241C728.87,684.924 729.7,681.84 730.567,678.387C731.433,674.934 732.264,671.88 732.413,671.597C732.56,671.317 733.026,669.786 733.446,668.196C733.865,666.607 734.645,664.007 735.179,662.419C735.715,660.829 736.509,658.293 736.946,656.785C737.382,655.275 737.837,653.909 737.951,653.752C738.067,653.592 738.577,652.096 739.083,650.429C739.589,648.759 740.187,646.995 740.411,646.504C740.634,646.015 741.229,644.325 741.732,642.748C742.234,641.172 742.746,639.754 742.869,639.595C742.99,639.435 743.437,638.265 743.864,636.995C744.288,635.724 744.815,634.294 745.037,633.817C745.257,633.34 745.836,631.845 746.322,630.494C746.809,629.144 747.384,627.648 747.601,627.171C748.678,624.805 748.938,624.037 748.724,623.85C748.511,623.661 741.985,621.688 734.337,619.499C732.588,619 731.028,618.485 730.87,618.357C730.71,618.23 728.694,617.575 726.391,616.904C724.087,616.231 722.068,615.576 721.903,615.448C721.1,614.82 714.463,613.408 714.102,613.787C713.718,614.193 712.554,616.854 711.598,619.516C711.284,620.39 710.928,621.234 710.809,621.394C710.689,621.553 710.424,622.333 710.218,623.127C710.013,623.921 709.687,624.831 709.493,625.15C709.299,625.467 708.935,626.377 708.682,627.171C708.429,627.967 707.817,629.721 707.319,631.071C706.824,632.422 706.156,634.308 705.837,635.261C705.517,636.215 705.141,637.255 704.998,637.572C704.856,637.891 704.149,639.971 703.426,642.195C702.703,644.419 701.991,646.499 701.844,646.818C701.467,647.627 700.679,650.098 700.679,650.467C700.679,650.637 700.497,651.184 700.275,651.685C700.051,652.186 699.332,654.35 698.675,656.496C698.018,658.64 697.168,661.372 696.785,662.563C696.404,663.755 695.832,665.73 695.515,666.954C695.196,668.177 694.82,669.412 694.674,669.698C694.53,669.985 694.048,671.779 693.605,673.686C693.159,675.593 692.698,677.283 692.578,677.441C692.457,677.6 691.824,680.135 691.169,683.075C690.516,686.014 689.86,688.68 689.713,688.998C689.566,689.315 689.297,690.291 689.115,691.164C688.935,692.038 688.21,695.418 687.508,698.675C685.567,707.669 683.053,719.971 682.727,722.077C682.566,723.11 682.044,726.142 681.568,728.815C681.093,731.488 680.656,734.154 680.6,734.738C680.547,735.322 680.243,737.361 679.929,739.267C679.616,741.174 679.142,744.424 678.881,746.491C678.617,748.555 678.272,751.173 678.113,752.305C677.955,753.438 677.763,755.258 677.686,756.35C677.612,757.442 677.437,759.049 677.3,759.925C677.163,760.798 677.052,761.773 677.054,762.091C677.054,762.409 676.913,764.555 676.738,766.858C675.842,778.743 676.281,791.978 677.96,803.64C678.206,805.358 678.543,807.178 678.704,807.684C678.867,808.191 679.267,809.969 679.595,811.638C679.924,813.308 680.309,814.887 680.453,815.149C680.597,815.412 680.918,816.416 681.169,817.381C681.706,819.46 683.84,825.488 684.19,825.924C684.325,826.092 684.847,827.203 685.35,828.395C689.04,837.132 696.926,847.624 703.655,852.752C704.419,853.333 705.236,854.002 705.472,854.236C706.929,855.695 716.247,860.985 720.61,861.618C737.335,864.049 743.893,860.468 756.163,853.515C787.198,835.928 818.337,774.149 824.63,760.069C830.638,746.624 837.372,729.161 840.338,719.333C844.211,706.504 844.921,704.212 845.266,703.442C846.596,700.487 852.552,675.778 855.365,661.552C858.409,646.161 861.881,620.759 861.887,613.843ZM807.349,600C808.545,598.478 812.518,599.136 816.342,601.49C820.731,604.191 822.974,608.698 820.57,609.984C819.481,610.567 817.396,609.435 817.396,608.261C817.396,607.001 815.838,605.8 815.515,606.814C815.413,607.136 815.039,607.687 814.683,608.041C814.328,608.393 813.236,609.535 812.255,610.579L810.473,612.475L812.196,614.912C816.633,621.187 816.353,622.619 809.691,627.698L808.486,628.617L808.361,633.094C808.235,637.676 807.393,643.367 806.588,645.085C806.365,645.561 805.831,647.055 805.401,648.406C804.971,649.756 804.234,651.706 803.763,652.739C802.528,655.442 800.611,659.216 800.386,659.385C800.278,659.463 799.504,660.467 798.663,661.615C792.622,669.847 783.246,673.213 776.319,669.635C768.473,665.582 765.887,657.846 766.858,641.328C767.035,638.309 767.243,634.582 767.317,633.046L767.454,630.253L765.773,629.908C759.175,628.553 757.107,625.719 759.524,621.343C760.064,620.361 760.877,618.501 761.33,617.209C761.782,615.918 762.231,614.781 762.328,614.684C763.082,613.929 762.418,612.662 760.207,610.629L757.922,608.53L757.107,610.048C756.273,611.601 755.772,611.901 754.526,611.588C751.65,610.866 754.684,604.916 759.132,602.553C761.493,601.3 765.143,602.211 765.336,604.103C765.469,605.429 764.606,606.022 762.606,605.975L760.959,605.938L761.548,606.587C761.872,606.945 762.382,607.54 762.682,607.911C763.424,608.828 767.492,611.884 768.964,612.631C769.623,612.964 770.228,613.342 770.311,613.47C770.519,613.791 774.889,615.642 776.028,615.892C776.539,616.004 777.312,616.271 777.747,616.486C779.734,617.467 785.868,617.743 790.817,617.074C798.8,615.996 807.779,610.913 811.409,605.42L812.499,603.77L811.698,603.435C811.256,603.252 810.227,603.016 809.408,602.913C807.209,602.634 806.294,601.341 807.349,600ZM807.779,616.124C806.989,614.968 807.302,614.916 804.395,616.674C802.527,617.804 797.195,620.094 796.432,620.094C796.281,620.094 798.32,623.885 798.94,624.76C799.24,625.183 799.485,625.639 799.485,625.774C799.485,626.129 800.899,627.605 801.239,627.605C802.813,627.605 811.041,621.907 811.041,620.816C811.041,620.605 810.45,619.674 809.729,618.747C809.008,617.819 808.131,616.639 807.779,616.124ZM767.87,616.67C766.929,616.169 766.083,615.762 765.993,615.765C765.901,615.767 765.457,616.97 765.007,618.436C764.554,619.905 763.791,621.749 763.311,622.536C761.928,624.802 763.498,625.604 771.354,626.648L772.55,626.805L772.729,624.679C772.83,623.507 772.982,621.834 773.07,620.96L773.232,619.371L771.84,618.821C771.075,618.52 770.254,618.117 770.016,617.927C769.777,617.738 768.811,617.171 767.87,616.67ZM780.561,621.271C779.45,621.094 778.198,620.881 777.78,620.796C776.853,620.607 776.3,623.415 776.4,627.814C776.484,631.448 776.354,631.361 781.722,631.361C790.259,631.361 790.528,631.179 790.528,625.368L790.528,621.21L789.878,621.432C788.94,621.751 782.932,621.647 780.561,621.271ZM797.318,645.932C794.839,645.138 791.469,645.081 790.044,645.809C787.571,647.069 784.173,651.963 784.173,654.261C784.173,656.064 782.327,656.988 781.126,655.787C780.056,654.717 780.871,650.186 782.568,647.763C783.294,646.726 783.117,646.584 781.315,646.747C776.007,647.229 770.54,653.148 771.731,657.125C771.933,657.803 772.157,658.685 772.228,659.087C772.443,660.315 774.126,662.844 775.634,664.206C783.239,671.077 795.546,663.944 800.578,649.753L801.074,648.354L799.918,647.373C799.282,646.835 798.112,646.185 797.318,645.932Z"/>
            </g>
        </g>
    </g>
</svg>
