<?xml version="1.0" encoding="UTF-8" standalone="no"?>
<!DOCTYPE svg PUBLIC "-//W3C//DTD SVG 1.1//EN" "http://www.w3.org/Graphics/SVG/1.1/DTD/svg11.dtd">
<svg width="100%" height="100%" viewBox="0 0 1500 1500" version="1.1" xmlns="http://www.w3.org/2000/svg" xmlns:xlink="http://www.w3.org/1999/xlink" xml:space="preserve" xmlns:serif="http://www.serif.com/" style="fill-rule:evenodd;clip-rule:evenodd;stroke-linejoin:round;stroke-miterlimit:2;">
    <g>
        <rect x="0" y="0" width="1500" height="1500" style="fill:white;"/>
        <g transform="matrix(2.05677,0,0,2.05677,-794.303,-785.472)">
            <path d="M837.861,513.3C839.48,512.796 847.475,512.811 848.459,513.321C848.894,513.548 849.917,513.82 850.73,513.928C852.765,514.198 856.977,515.696 856.977,516.152C856.977,516.275 857.213,516.377 857.504,516.377C858.141,516.377 860.342,517.923 861.412,519.121C863.622,521.598 865.069,523.446 865.229,523.995C865.327,524.333 865.839,525.521 866.364,526.632C868.482,531.118 867.827,531.844 864.423,528.783C863.655,528.093 859.299,525.973 857.844,525.581C857.128,525.389 856.407,525.131 856.242,525.008C853.764,523.165 841.033,522.978 835.791,524.706C832.825,525.684 832.832,525.687 832.576,523.311C832.465,522.277 832.26,520.977 832.122,520.421C831.562,518.171 831.522,516.6 832.014,516.058C832.628,515.378 835.147,514.064 835.833,514.064C836.128,514.064 836.466,513.967 836.585,513.848C836.703,513.73 837.277,513.482 837.861,513.3ZM844.698,532.595C856.04,530.404 866.955,540.617 869.42,555.724C870.091,559.836 870.408,566.797 870.008,568.65C869.852,569.375 869.585,571.237 869.417,572.788C869.248,574.34 868.992,575.835 868.848,576.111C868.702,576.387 868.297,577.784 867.948,579.214C867.598,580.644 867.011,582.528 866.641,583.402L864.934,587.441C864.364,588.789 863.596,590.35 863.226,590.908L861.139,594.085C853.696,605.424 839.721,610.965 831.409,605.874C825.36,602.168 819.634,594.919 818.778,589.882C818.7,589.417 818.358,587.996 818.02,586.725C817.33,584.135 817.204,583.081 816.952,577.914C816.689,572.486 817.876,562.693 819.078,560.394C819.232,560.099 819.768,558.6 820.267,557.062C821.418,553.531 824.592,547.461 826.651,544.857C829.782,540.898 831.543,538.964 832.623,538.303C833.226,537.932 834.295,537.194 834.997,536.66C837.435,534.812 841.037,533.302 844.698,532.595ZM738.67,513.81C740.312,513.529 746.83,513.733 748.204,514.111C751.924,515.131 754.937,516.599 756.208,518.013C756.741,518.604 756.064,522.453 754.816,525.923C754.219,527.58 754.157,527.596 752.136,526.62C751.298,526.218 750.201,525.81 749.697,525.718C749.194,525.626 748.522,525.392 748.204,525.2C747.686,524.886 745.873,524.54 741.992,524.009C737.431,523.385 730.884,523.99 727.316,525.365C726.952,525.507 726.396,525.621 726.08,525.621C725.403,525.621 722.413,527.09 720.703,528.261C719.939,528.787 719.424,528.979 719.304,528.785C719.098,528.452 720.263,525.332 720.592,525.332C720.705,525.332 721.021,524.859 721.298,524.28C723.669,519.306 729.325,515.311 735.347,514.352C736.54,514.163 738.034,513.919 738.67,513.81ZM733.305,535.736C740.912,534.448 747.558,537.698 753.091,545.412C754.257,547.038 757.764,554.062 758.01,555.265C758.073,555.566 758.518,557.243 759,558.99C761.859,569.347 761.108,583.577 757.258,592.04C755.883,595.061 754.7,597.328 754.082,598.124C752.209,600.54 751.51,601.343 749.924,602.903C745.114,607.635 736.462,609.19 731.78,606.164C731.22,605.801 729.974,605.059 729.012,604.517C724.371,601.901 719.055,594.021 716.812,586.435C714.525,578.704 713.763,567.544 715.092,561.301C715.262,560.507 715.6,558.879 715.845,557.686C718.041,546.951 725.975,536.977 733.305,535.736ZM807.349,600C808.545,598.478 812.518,599.136 816.342,601.49C820.731,604.191 822.974,608.698 820.57,609.984C819.481,610.567 817.396,609.435 817.396,608.261C817.396,607.001 815.838,605.8 815.515,606.814C815.413,607.136 815.039,607.687 814.683,608.041C814.328,608.393 813.236,609.535 812.255,610.579L810.473,612.475L812.196,614.912C816.633,621.187 816.353,622.619 809.691,627.698L808.486,628.617L808.361,633.094C808.235,637.676 807.393,643.367 806.588,645.085C806.365,645.561 805.831,647.055 805.401,648.406C804.971,649.756 804.234,651.706 803.763,652.739C802.528,655.442 800.611,659.216 800.386,659.385C800.278,659.463 799.504,660.467 798.663,661.615C792.622,669.847 783.246,673.213 776.319,669.635C768.473,665.582 765.887,657.846 766.858,641.328C767.035,638.309 767.243,634.582 767.317,633.046L767.454,630.253L765.773,629.908C759.175,628.553 757.107,625.719 759.524,621.343C760.064,620.361 760.877,618.501 761.33,617.209C761.782,615.918 762.231,614.781 762.328,614.684C763.082,613.929 762.418,612.662 760.207,610.629L757.922,608.53L757.107,610.048C756.273,611.601 755.772,611.901 754.526,611.588C751.65,610.866 754.684,604.916 759.132,602.553C761.493,601.3 765.143,602.211 765.336,604.103C765.469,605.429 764.606,606.022 762.606,605.975L760.959,605.938L761.548,606.587C761.872,606.945 762.382,607.54 762.682,607.911C763.424,608.828 767.492,611.884 768.964,612.631C769.623,612.964 770.228,613.342 770.311,613.47C770.519,613.791 774.889,615.642 776.028,615.892C776.539,616.004 777.312,616.271 777.747,616.486C779.734,617.467 785.868,617.743 790.817,617.074C798.8,615.996 807.779,610.913 811.409,605.42L812.499,603.77L811.698,603.435C811.256,603.252 810.227,603.016 809.408,602.913C807.209,602.634 806.294,601.341 807.349,600ZM641.742,554.339C642.615,554.143 643.484,554.029 643.671,554.086C643.858,554.143 644.508,554.278 645.115,554.388C646.309,554.603 649.832,556.426 649.832,556.83C649.832,556.965 650.352,557.678 650.986,558.413C651.622,559.146 652.142,559.853 652.142,559.983C652.142,560.113 652.59,560.963 653.136,561.869C653.682,562.776 654.259,564.06 654.42,564.721C654.58,565.383 654.989,566.834 655.329,567.947C656.15,570.628 656.447,571.856 656.902,574.447C657.114,575.638 657.558,577.694 657.892,579.015C658.225,580.335 658.499,581.708 658.499,582.064C658.499,582.419 658.615,582.833 658.759,582.984C658.903,583.135 659.088,583.842 659.172,584.558C659.329,585.921 659.804,587.957 660.754,591.348C661.066,592.459 661.413,593.889 661.524,594.525C661.633,595.162 661.895,596.072 662.103,596.548C662.311,597.025 662.838,598.471 663.271,599.76C665.169,605.396 665.939,606.117 668.943,605.079C679.864,601.3 688.801,611.848 686.439,625.727C685.539,631.007 685.594,630.792 684.386,633.883C683.812,635.35 683.344,636.657 683.344,636.787C683.344,636.918 682.968,637.619 682.511,638.341C682.051,639.064 681.581,639.967 681.465,640.347C681.349,640.728 681.093,641.235 680.895,641.472C680.697,641.711 680.118,642.68 679.605,643.627C679.094,644.573 678.297,645.826 677.832,646.412C677.367,646.998 676.988,647.589 676.986,647.726C676.984,647.861 676.43,648.572 675.752,649.307L674.523,650.64L675.395,651.143C675.873,651.42 676.886,651.973 677.643,652.37C678.924,653.044 681.611,655.314 681.611,655.724C681.611,655.825 682.048,656.591 682.583,657.428C684.034,659.703 684.528,663.641 683.807,667.186C683.759,667.423 683.615,668.134 683.488,668.767C683.036,671.006 680.902,674.676 678.666,677.058C678.238,677.514 677.612,678.237 677.274,678.666C676.636,679.478 674.025,681.794 673.556,681.965C673.403,682.021 673.535,683.01 673.855,684.231C674.169,685.423 674.753,687.892 675.152,689.721C675.553,691.548 676,693.085 676.145,693.139C676.291,693.191 676.411,693.513 676.411,693.853C676.411,694.638 677.373,697.882 678.459,700.756C678.921,701.979 679.3,703.158 679.3,703.375C679.3,703.591 679.564,704.314 679.886,704.982C680.209,705.649 680.614,706.55 680.788,706.986C681.172,707.951 681.127,708.072 682.152,703.299C682.611,701.153 683.265,698.358 683.603,697.088C683.941,695.815 684.8,692.175 685.515,688.998C687.045,682.17 688.69,675.479 689.132,674.263C689.307,673.787 689.82,671.944 690.275,670.169C690.729,668.394 691.221,666.704 691.37,666.414C691.519,666.123 691.933,664.716 692.291,663.286C692.648,661.856 693.038,660.555 693.157,660.396C693.279,660.236 693.466,659.716 693.575,659.24C693.844,658.066 696.016,651.11 696.508,649.851C696.725,649.295 697.12,648.061 697.387,647.109C697.652,646.158 697.98,645.183 698.113,644.942C698.449,644.337 700.389,638.367 700.391,637.929C700.393,637.733 700.589,637.197 700.828,636.738C701.067,636.28 701.447,635.174 701.672,634.283C702.211,632.15 702.913,630.043 703.563,628.617C703.853,627.981 704.18,627.005 704.289,626.45C704.4,625.894 704.653,625.178 704.851,624.861C705.05,624.543 705.432,623.619 705.699,622.81C705.966,622 706.441,620.835 706.754,620.222C707.068,619.606 707.323,618.901 707.323,618.653C707.323,618.403 707.5,617.944 707.715,617.63C707.931,617.317 708.337,616.344 708.618,615.47C708.899,614.597 709.242,613.758 709.381,613.607C709.521,613.456 709.635,613.158 709.635,612.945C709.635,612.603 710.982,609.423 711.624,608.249C711.943,607.665 712.814,607.568 713.842,608.003C714.309,608.2 714.82,608.372 714.98,608.384C715.139,608.398 715.399,608.485 715.557,608.578C715.716,608.67 716.822,608.979 718.013,609.26C719.206,609.542 720.514,609.941 720.922,610.147C721.331,610.353 722.738,610.795 724.052,611.13C725.365,611.465 726.654,611.858 726.919,612.004C727.185,612.149 728.963,612.685 730.87,613.194C732.777,613.704 734.401,614.212 734.481,614.323C734.56,614.436 735.861,614.881 737.37,615.316C738.878,615.75 742.259,616.798 744.881,617.646C747.502,618.494 750.595,619.473 751.753,619.825C754.498,620.655 754.583,620.785 756.528,627.072C759.827,637.735 760.767,641.514 760.359,642.484C760.158,642.961 759.647,644.455 759.22,645.806C758.792,647.156 757.612,650.862 756.596,654.039C742.288,698.774 736.117,732.474 737.656,757.468C738.419,769.85 740.714,776.588 746.09,782.224C746.87,783.042 747.618,783.912 747.755,784.156C748.534,785.547 757.502,778.018 763.372,771.046C775.411,756.749 790.802,726.461 799.49,699.976C800.012,698.388 800.53,697.022 800.641,696.942C801.265,696.5 806.8,677.807 809.44,667.227C810.008,664.948 810.587,662.868 810.728,662.606C811.371,661.394 814.706,644.715 816.247,635.001C816.573,632.95 816.906,631.165 816.987,631.033C817.19,630.704 818.542,620.21 818.547,618.918C818.556,617.001 819.338,614.997 820.215,614.638C821.161,614.254 831.77,612.413 835.453,611.995C836.883,611.832 840.48,611.312 843.445,610.837C846.41,610.364 849.465,609.932 850.234,609.878C852.126,609.75 861.237,608.298 862.342,607.949C864.728,607.199 864.892,607.407 868.753,616.049C870.491,619.941 873.769,627.27 876.033,632.333C880.564,642.457 880.518,642.283 879.906,646.818C875.383,680.261 864.535,719.315 850.513,752.637L848.047,758.496L853.306,763.764C858.68,769.147 865.275,775.475 868.014,777.878C868.857,778.615 870.779,780.287 872.289,781.593C873.799,782.9 876.579,785.417 878.47,787.186C880.36,788.956 882.083,790.445 882.298,790.497C882.513,790.549 882.69,790.74 882.69,790.922C882.69,791.106 883.201,791.712 883.825,792.274C885.016,793.34 891.589,800.789 893.447,803.176C894.04,803.937 895.503,805.795 896.697,807.305C905.255,818.118 903.416,824.327 889.365,832.06C885.841,834 881.591,835.988 880.299,836.303C879.365,836.53 878.905,836.974 877.389,839.108C875.562,841.68 871.611,843.877 868.356,844.132C867.86,844.171 867.302,844.298 867.115,844.414C866.926,844.529 866.097,844.518 865.27,844.39C863.079,844.048 862.797,844.145 861.145,845.808C859.25,847.718 857.78,849.051 857.572,849.053C857.484,849.055 856.893,849.377 856.26,849.769C855.627,850.16 854.946,850.505 854.748,850.535C854.551,850.564 854.181,850.795 853.928,851.048C853.677,851.299 853.121,851.582 852.696,851.674C852.269,851.766 851.626,851.984 851.266,852.159L850.611,852.476L851.304,853.22C853.684,855.77 853.644,859.951 851.221,861.989C850.772,862.367 850.267,862.932 850.101,863.246C849.74,863.917 847.523,865.167 845.781,865.682C845.107,865.881 844.554,866.146 844.554,866.269C844.554,866.392 844.327,866.493 844.048,866.489C843.77,866.488 842.827,866.573 841.954,866.68C837.492,867.223 831.305,866.529 828.631,865.188C827.889,864.813 827.199,864.508 827.098,864.508C826.856,864.508 825.105,862.951 823.477,861.287L822.163,859.946L819.709,859.793C816.743,859.608 813.905,858.71 812.341,857.463C811.705,856.957 810.828,856.316 810.391,856.04C809.955,855.765 809.596,855.397 809.596,855.226C809.596,855.054 809.272,854.527 808.875,854.055C808.478,853.582 808.152,853.035 808.152,852.835C808.152,852.234 806.898,851.265 806.129,851.272C805.281,851.279 802.561,850.355 802.421,850.011C802.369,849.88 802.092,849.774 801.806,849.774C800.419,849.774 796.415,847.331 794.222,845.149L791.994,842.93L789.601,845.071C788.283,846.248 786.529,847.754 785.704,848.42C783.873,849.894 783.861,849.963 785.4,850.349C815.963,858.027 840.335,912.439 828.925,947.521C823.422,964.441 806.758,976.232 783.558,979.622C768.024,981.891 751.526,976.71 751.526,969.561C751.526,968.998 751.038,968.532 749.101,967.242C730.608,954.938 738.024,927.413 762.349,918.068L764.519,917.234L764.526,915.501C764.53,914.086 765.017,911.444 765.714,909.044C765.79,908.782 765.327,908.522 764.317,908.257C759.591,907.014 754.368,902.807 752.207,898.504C751.794,897.683 751.43,896.979 751.396,896.939C751.363,896.899 750.687,897.06 749.891,897.296C747.49,898.009 741.778,898.887 739.544,898.887L737.441,898.887L733.255,906.327C730.953,910.418 728.102,915.509 726.919,917.64L724.772,921.512L725.165,923.851C726.744,933.232 723.706,941.466 717.968,943.348C716.937,943.686 716.907,943.738 716.716,945.487C715.741,954.48 709.698,968.029 704.915,971.947C704.647,972.167 704.014,973.122 703.509,974.068C701.365,978.092 697.46,978.74 688.834,976.502C652.316,967.032 620.102,934.364 605.667,892.163C594.696,860.091 599.711,830.417 616.099,830.417C616.909,830.417 617.505,830.2 618.127,829.675C622.849,825.703 635.144,822.911 642.912,824.046C664.836,827.251 683.987,854.492 686.239,885.675C686.527,889.657 686.263,897.993 685.775,900.394C685.601,901.24 685.594,901.236 688.111,901.64C688.747,901.742 690.436,902.262 691.864,902.798C694.234,903.686 694.483,903.727 694.719,903.28C697.156,898.662 703.931,896.991 709.5,899.634C710.478,900.099 710.544,900.096 710.925,899.577C712.75,897.085 727.299,868.167 726.9,867.821C726.859,867.783 726.417,867.666 725.918,867.559L725.011,867.365L721.932,873.666C717.528,882.678 713.35,890.51 712.95,890.51C711.549,890.51 705.316,882.43 703.461,878.209C700.533,871.551 698.872,859.107 700.55,856.39C700.649,856.233 699.051,854.446 697,852.419C694.95,850.391 692.729,848.025 692.065,847.16C690.153,844.665 686.811,840.003 686.811,839.831C686.811,839.744 686.378,838.988 685.847,838.151C684.561,836.12 682.568,832.141 680.888,828.25C680.132,826.503 679.42,824.942 679.302,824.783C679.026,824.41 677.777,820.52 676.983,817.561C676.641,816.289 676.182,814.705 675.962,814.037C675.741,813.372 675.348,811.552 675.084,809.993C674.823,808.435 674.509,807.031 674.389,806.871C674.268,806.712 674.081,805.672 673.972,804.561C673.864,803.448 673.597,801.498 673.379,800.227C673.16,798.955 672.9,796.55 672.798,794.881C672.698,793.214 672.495,790.972 672.347,789.901C672.141,788.405 672.011,779.396 672.112,773.647C672.12,773.118 672.55,766.422 672.796,762.958C673.011,759.935 673.537,755.029 673.788,753.681C673.932,752.909 673.999,752.195 673.937,752.096C673.876,751.996 674.006,750.758 674.225,749.347C674.76,745.915 675.081,742.864 674.984,742.157C674.906,741.58 674.696,741.169 673.367,738.978C672.98,738.343 672.663,737.612 672.659,737.352C672.658,737.094 672.202,736.13 671.647,735.209C671.094,734.289 670.557,733.07 670.456,732.502C670.354,731.933 670.115,731.271 669.922,731.034C669.732,730.794 668.959,728.976 668.206,726.989C667.454,725.003 666.651,723.009 666.424,722.559C666.197,722.11 666.01,721.496 666.01,721.196C666.01,720.895 665.707,719.964 665.336,719.125C664.966,718.286 664.433,716.819 664.15,715.866C663.869,714.913 663.387,713.352 663.08,712.399C661.801,708.421 661.11,706.011 661.104,705.509C661.101,705.216 660.922,704.566 660.707,704.065C660.12,702.694 659.076,698.788 659.076,697.956C659.076,697.554 658.951,696.997 658.799,696.722C658.646,696.446 658.379,695.571 658.206,694.775C657.934,693.538 657.598,692.153 656.868,689.259C656.724,688.687 656.518,688.653 653.163,688.632C649.378,688.608 646.365,687.97 644.415,686.779C643.898,686.463 643.475,686.281 643.475,686.372C643.475,686.635 642.035,685.389 640.22,683.555C637.327,680.632 636.438,678.186 636.587,673.561L636.685,670.507L635.675,670.415C635.118,670.363 634.539,670.202 634.389,670.053C634.238,669.906 633.844,669.786 633.515,669.786C633.184,669.786 632.626,669.583 632.272,669.335C631.918,669.089 631.631,668.954 631.631,669.037C631.631,669.604 627.921,667.103 626.047,665.27C623.815,663.09 621.735,659.212 621.719,657.205C621.712,656.123 621.622,655.993 620.532,655.476C619.33,654.908 616.089,652.424 614.991,651.231C613.735,649.865 611.696,647.25 611.696,647.002C611.696,646.86 611.507,646.587 611.277,646.397C611.046,646.204 610.58,645.442 610.24,644.7C609.9,643.958 609.321,642.701 608.954,641.905C605.933,635.388 606.106,624.139 609.268,621.515C609.491,621.33 609.673,621.017 609.673,620.82C609.673,620.357 612.92,617.402 613.943,616.934C614.376,616.736 615.113,616.381 615.583,616.147C616.052,615.911 617.059,615.646 617.82,615.555C619.289,615.38 619.807,614.99 619.959,613.949C620.691,608.918 625.626,603.799 630.331,603.189C631.125,603.085 632.165,602.887 632.641,602.749C633.121,602.608 634.345,602.601 635.385,602.735C637.62,603.017 637.658,602.998 637.067,601.809C636.812,601.298 636.314,600.169 635.959,599.299C635.604,598.429 635.151,597.455 634.952,597.132C634.753,596.81 634.512,596.124 634.416,595.604C634.321,595.085 633.933,593.979 633.555,593.149C633.177,592.317 632.449,589.882 631.938,587.736C631.424,585.591 630.892,583.381 630.752,582.825C630.065,580.093 629.847,572.996 630.369,570.401C630.48,569.846 630.551,569.297 630.527,569.184C630.502,569.07 630.625,568.616 630.802,568.172C630.977,567.73 631.166,567.108 631.222,566.79C631.457,565.416 632.586,562.621 633.515,561.113C634.068,560.215 634.519,559.39 634.519,559.278C634.519,558.175 639.343,554.876 641.742,554.339ZM844.57,793.864C844.023,793.39 841.683,791.109 839.369,788.795L835.162,784.586L833.141,788.187C832.03,790.168 830.184,793.363 829.04,795.285C826.66,799.288 826.651,799.232 829.698,799.248C830.955,799.255 832.569,799.386 833.285,799.542C834.001,799.698 834.847,799.823 835.164,799.818C836.147,799.802 841.763,801.224 842.625,801.706C843.072,801.955 843.512,802.087 843.604,801.995C843.694,801.905 844.107,802.013 844.523,802.234C845.861,802.95 847.906,803.838 848.217,803.838C848.385,803.838 848.848,804.094 849.246,804.41L849.973,804.98L851.38,803.578C852.155,802.808 853.23,801.91 853.769,801.584L854.748,800.992L853.769,800.409C853.23,800.088 852.658,799.716 852.498,799.579C852.341,799.444 851.658,799.021 850.981,798.643C850.307,798.263 849.754,797.856 849.754,797.738C849.754,797.618 849.527,797.448 849.248,797.36C848.971,797.272 848.395,796.878 847.972,796.485C847.548,796.091 846.833,795.533 846.383,795.247C845.934,794.959 845.117,794.337 844.57,793.864Z" style="fill:white;"/>
            <path d="M753.205,629.338C754.127,632.583 756.509,641.864 756.502,642.195C756.501,642.354 755.823,644.369 754.998,646.672C743.798,677.954 735.666,712.768 733.739,737.678C731.92,761.183 734.885,776.437 742.926,784.961L743.788,785.873L742.167,786.209C737.318,787.214 732.082,783.257 729.175,776.392C728.738,775.359 728.209,774.189 727.999,773.792C727.79,773.395 727.271,771.573 726.847,769.746C726.422,767.919 725.957,766.035 725.814,765.558C725.581,764.784 725.307,762.83 724.803,758.335C724.356,754.366 724.089,743.61 724.345,740.006C724.5,737.87 724.567,736.031 724.498,735.918C724.307,735.612 725.148,727.522 725.982,721.643C726.387,718.783 726.722,716.183 726.725,715.866C726.737,714.328 729.431,699.653 729.832,698.944C729.972,698.695 730.308,697.394 730.579,696.054C731.35,692.224 734.685,678.491 735.309,676.574C735.62,675.621 736.36,673.021 736.956,670.797C737.552,668.573 738.131,666.622 738.244,666.463C738.358,666.304 738.875,664.679 739.392,662.852C739.91,661.023 740.771,658.333 741.307,656.87C741.843,655.407 742.281,654.095 742.281,653.956C742.281,653.592 743.399,650.157 743.852,649.129C744.061,648.652 744.656,646.962 745.174,645.372C745.691,643.784 746.209,642.354 746.327,642.195C746.445,642.035 747.034,640.411 747.639,638.584C748.244,636.755 748.825,635.195 748.927,635.117C749.029,635.038 749.544,633.737 750.071,632.228C750.598,630.718 751.271,629.029 751.565,628.476C751.862,627.922 752.105,627.279 752.105,627.046C752.105,626.181 752.604,627.221 753.205,629.338Z"/>
            <path d="M788.33,832.656C788.555,834.882 789.089,837.083 789.549,837.671C790.377,838.734 790.221,838.997 787.149,841.724C776.7,851.001 767.683,856.819 757.821,860.643C756.436,861.18 755.237,861.618 755.155,861.618C755.01,861.618 754.126,860.041 754.126,859.781C754.126,859.708 755.802,858.649 757.851,857.427C759.898,856.205 762.164,854.73 762.883,854.151C763.602,853.57 765.339,852.253 766.743,851.223C772.504,846.99 779.994,839.905 785.191,833.769C788.261,830.144 788.084,830.207 788.33,832.656Z"/>
            <path d="M826.429,772.059C827.235,773.808 828.579,775.992 829.735,777.432C830.258,778.084 830.686,778.729 830.686,778.864C830.686,778.998 831.085,779.521 831.574,780.024L832.461,780.939L830.243,784.949C827.944,789.105 822.922,797.558 822.255,798.391C821.95,798.774 821.081,798.908 817.84,799.066C815.621,799.173 813.607,799.366 813.362,799.494C813.118,799.622 812.595,799.733 812.196,799.74C811.799,799.747 810.856,799.873 810.102,800.024C808.415,800.359 808.374,800.641 810.573,796.8C814.115,790.619 816.866,785.432 820.945,777.245C825.046,769.013 825.053,769.001 825.441,769.878C825.656,770.362 826.1,771.343 826.429,772.059Z"/>
            <path d="M871.136,631.397L876.333,643.034L875.303,649.692C869.831,685.094 859.902,720.151 846.379,751.83C844.606,755.983 844.649,755.922 844.249,754.789C843.554,752.821 837.93,751.386 834.301,752.247C832.174,752.752 832.238,752.83 833.098,750.783C836.353,743.039 839.109,735.806 841.834,727.856C843.006,724.44 844.415,720.343 844.966,718.756C853.561,694.021 863.235,648.291 865.093,623.607C865.312,620.707 865.542,619.055 865.693,619.324C865.827,619.565 868.276,624.997 871.136,631.397Z"/>
            <g transform="matrix(1.73344,0,0,1.73344,397.327,391.28)">
                <path d="M254.139,70.392C253.802,70.497 253.471,70.64 253.403,70.708C253.334,70.777 253.139,70.833 252.969,70.833C252.573,70.833 251.12,71.591 250.766,71.983C250.482,72.296 250.505,73.202 250.828,74.5C250.908,74.821 251.026,75.571 251.09,76.167C251.238,77.538 251.234,77.536 252.945,76.972C255.969,75.975 263.313,76.083 264.743,77.146C264.838,77.217 265.254,77.366 265.667,77.477C266.506,77.703 269.019,78.926 269.462,79.324C271.426,81.09 271.804,80.671 270.582,78.083C270.279,77.442 269.984,76.757 269.927,76.562C269.835,76.245 269,75.179 267.725,73.75C267.108,73.059 265.838,72.167 265.471,72.167C265.303,72.167 265.167,72.108 265.167,72.037C265.167,71.774 262.737,70.91 261.563,70.754C261.094,70.692 260.504,70.535 260.253,70.404C259.685,70.11 255.073,70.101 254.139,70.392M196.917,70.686C196.55,70.749 195.688,70.89 195,70.999C191.526,71.552 188.263,73.857 186.895,76.726C186.735,77.06 186.553,77.333 186.488,77.333C186.298,77.333 185.626,79.133 185.745,79.325C185.814,79.437 186.111,79.326 186.552,79.023C187.538,78.347 189.263,77.5 189.654,77.5C189.836,77.5 190.157,77.434 190.367,77.352C192.425,76.559 196.202,76.21 198.833,76.57C201.072,76.876 202.118,77.076 202.417,77.257C202.6,77.368 202.988,77.503 203.278,77.556C203.569,77.609 204.202,77.844 204.685,78.076C205.851,78.639 205.887,78.63 206.231,77.674C206.951,75.672 207.342,73.452 207.034,73.111C206.301,72.295 204.563,71.448 202.417,70.86C201.624,70.642 197.864,70.524 196.917,70.686M258.083,81.523C255.971,81.931 253.893,82.802 252.487,83.868C252.082,84.176 251.465,84.602 251.117,84.816C250.494,85.197 249.478,86.313 247.672,88.597C246.484,90.099 244.653,93.601 243.989,95.638C243.701,96.525 243.392,97.39 243.303,97.56C242.61,98.886 241.925,104.536 242.077,107.667C242.222,110.648 242.295,111.256 242.693,112.75C242.888,113.483 243.085,114.303 243.13,114.571C243.624,117.477 246.927,121.659 250.417,123.797C255.212,126.734 263.274,123.537 267.568,116.996C268.018,116.311 268.56,115.486 268.772,115.163C268.985,114.841 269.428,113.941 269.757,113.163C270.086,112.386 270.529,111.337 270.742,110.833C270.955,110.329 271.294,109.242 271.496,108.417C271.697,107.592 271.931,106.786 272.015,106.627C272.098,106.468 272.246,105.605 272.343,104.71C272.44,103.815 272.594,102.741 272.684,102.323C272.915,101.254 272.732,97.238 272.345,94.866C270.923,86.151 264.626,80.259 258.083,81.523M193.822,83.335C189.593,84.051 185.016,89.805 183.749,95.998C183.608,96.686 183.413,97.625 183.315,98.083C182.548,101.685 182.988,108.123 184.307,112.583C185.601,116.959 188.668,121.505 191.345,123.014C191.9,123.327 192.619,123.755 192.942,123.964C195.643,125.71 200.634,124.813 203.409,122.083C204.324,121.183 204.727,120.72 205.808,119.326C206.164,118.867 206.847,117.559 207.64,115.816C209.861,110.934 210.294,102.725 208.645,96.75C208.367,95.742 208.11,94.775 208.074,94.601C207.932,93.907 205.909,89.855 205.236,88.917C202.044,84.467 198.21,82.592 193.822,83.335M261.75,84.037C263.466,84.412 264.243,84.912 266.269,86.94C267.415,88.087 267.582,88.355 268.745,90.917C269.186,91.887 269.678,93.351 269.742,93.881C269.766,94.084 269.919,94.888 270.081,95.667C270.428,97.337 270.348,102.883 269.946,104.917C269.388,107.749 267.764,112.399 267.073,113.145C267.041,113.179 266.731,112.983 266.383,112.71C266.035,112.437 265.15,111.854 264.417,111.415C263.683,110.976 263.053,110.592 263.016,110.561C262.979,110.53 263.177,109.997 263.457,109.377C263.959,108.264 264.731,105.997 264.633,105.923C263.918,105.376 262.574,105.141 257.284,104.638C254.952,104.417 254.813,104.211 256.454,103.411C258.167,102.576 262.011,101.495 263.708,101.371C265.028,101.274 265.033,101.263 264.491,99.416C264.303,98.775 264.122,98.133 264.09,97.991C263.367,94.783 259.533,92.272 256.478,93.005C255.986,93.123 255.564,93.207 255.541,93.191C255.398,93.095 253.79,94.077 253.114,94.673C249.373,97.972 247.701,104.653 249.409,109.479C249.725,110.374 249.729,110.5 249.438,110.5C249.165,110.5 246.226,111.783 245.755,112.107C245.2,112.489 245.053,112.369 244.856,111.375C244.359,108.863 244.331,102.8 244.812,101.75C244.896,101.567 245.053,100.892 245.16,100.25C245.678,97.158 248.474,91.017 250.145,89.304C253.3,86.068 254.155,85.388 256.008,84.638C258.32,83.702 259.606,83.567 261.75,84.037M197.98,85.78C198.037,85.861 198.604,86.18 199.24,86.49C201.55,87.613 205.155,92.309 205.603,94.778C205.647,95.02 205.745,95.338 205.822,95.484C205.995,95.814 206.671,98.267 206.745,98.833C206.775,99.063 206.916,100.075 207.058,101.083C207.404,103.535 207.329,107.724 206.901,109.801C206.824,110.176 206.244,110.195 206,109.83C205.954,109.762 205.485,109.616 204.958,109.508C204.431,109.399 204,109.292 204,109.27C204,109.248 204.193,108.747 204.43,108.157C204.888,107.01 205.224,105.038 205.067,104.412C204.872,103.634 200.695,103.407 198.845,104.074C197.841,104.435 197.6,104.158 198.44,103.608C199.197,103.113 201.037,102.488 202.947,102.077C204.899,101.658 204.852,101.744 204.019,100.103C201.472,95.079 195.884,93.991 192.29,97.819C189.302,101.002 189.034,106.633 191.708,110.03C192.481,111.01 192.495,110.913 191.506,111.414C190.566,111.89 189.05,112.853 188.12,113.565C187.389,114.124 187.454,114.153 187.034,113.083C185.107,108.173 184.946,97.182 186.761,94.381C186.892,94.178 187.001,93.915 187.003,93.798C187.008,93.358 188.307,90.68 188.851,89.985C191.088,87.131 192.293,86.163 194.133,85.74C195.149,85.507 197.807,85.534 197.98,85.78M141,94.067C139.616,94.377 136.833,96.28 136.833,96.916C136.833,96.981 136.573,97.457 136.254,97.975C135.718,98.845 135.067,100.457 134.931,101.25C134.899,101.433 134.79,101.792 134.689,102.047C134.587,102.303 134.516,102.565 134.53,102.631C134.544,102.696 134.503,103.013 134.439,103.333C134.138,104.83 134.264,108.924 134.66,110.5C134.741,110.821 135.048,112.096 135.344,113.333C135.639,114.571 136.059,115.976 136.277,116.456C136.495,116.935 136.719,117.573 136.774,117.872C136.829,118.172 136.968,118.568 137.083,118.754C137.198,118.94 137.459,119.502 137.664,120.004C137.869,120.506 138.156,121.157 138.303,121.452C138.644,122.138 138.622,122.149 137.333,121.986C136.733,121.909 136.027,121.913 135.75,121.994C135.475,122.074 134.875,122.188 134.417,122.248C131.703,122.6 128.856,125.553 128.434,128.455C128.346,129.056 128.047,129.281 127.2,129.382C126.761,129.434 126.18,129.587 125.909,129.723C125.638,129.858 125.213,130.063 124.963,130.177C124.373,130.447 122.5,132.152 122.5,132.419C122.5,132.533 122.395,132.713 122.266,132.82C120.442,134.334 120.342,140.823 122.085,144.583C122.297,145.042 122.631,145.767 122.827,146.195C123.023,146.623 123.292,147.063 123.425,147.174C123.558,147.284 123.667,147.441 123.667,147.523C123.667,147.666 124.843,149.175 125.568,149.963C126.201,150.651 128.071,152.084 128.764,152.412C129.393,152.71 129.445,152.785 129.449,153.409C129.458,154.567 130.658,156.804 131.946,158.062C133.027,159.119 135.167,160.562 135.167,160.235C135.167,160.187 135.333,160.265 135.537,160.407C135.741,160.55 136.063,160.667 136.254,160.667C136.444,160.667 136.671,160.736 136.758,160.821C136.845,160.907 137.179,161 137.5,161.03L138.083,161.083L138.026,162.845C137.94,165.513 138.453,166.924 140.122,168.61C141.169,169.668 142,170.387 142,170.235C142,170.183 142.244,170.288 142.542,170.47C143.667,171.157 145.405,171.525 147.589,171.539C149.524,171.551 149.643,171.571 149.726,171.901C150.147,173.57 150.341,174.369 150.498,175.083C150.598,175.542 150.752,176.047 150.84,176.206C150.928,176.365 151,176.686 151,176.918C151,177.398 151.602,179.651 151.941,180.442C152.065,180.731 152.168,181.106 152.17,181.275C152.173,181.565 152.572,182.955 153.31,185.25C153.487,185.8 153.765,186.7 153.927,187.25C154.09,187.8 154.398,188.646 154.611,189.13C154.825,189.614 155,190.151 155,190.325C155,190.498 155.108,190.852 155.239,191.111C155.37,191.371 155.833,192.521 156.267,193.667C156.701,194.813 157.147,195.862 157.257,196C157.368,196.137 157.506,196.519 157.565,196.847C157.623,197.175 157.933,197.878 158.252,198.409C158.572,198.94 158.835,199.496 158.836,199.645C158.838,199.795 159.021,200.217 159.244,200.583C160.011,201.847 160.132,202.084 160.177,202.417C160.233,202.825 160.048,204.585 159.739,206.565C159.613,207.379 159.538,208.093 159.573,208.151C159.609,208.208 159.57,208.62 159.487,209.065C159.342,209.843 159.039,212.673 158.915,214.417C158.773,216.415 158.525,220.278 158.52,220.583C158.462,223.9 158.537,229.097 158.656,229.96C158.741,230.578 158.858,231.871 158.916,232.833C158.975,233.796 159.125,235.183 159.251,235.917C159.377,236.65 159.531,237.775 159.593,238.417C159.656,239.058 159.764,239.658 159.834,239.75C159.903,239.842 160.084,240.652 160.235,241.551C160.387,242.45 160.614,243.5 160.741,243.884C160.868,244.269 161.133,245.183 161.33,245.917C161.788,247.624 162.509,249.868 162.668,250.083C162.736,250.175 163.147,251.075 163.583,252.083C164.552,254.328 165.702,256.623 166.444,257.795C166.75,258.278 167,258.714 167,258.764C167,258.863 168.928,261.553 170.031,262.992C170.414,263.491 171.695,264.856 172.878,266.026C174.061,267.195 174.983,268.226 174.926,268.317C173.958,269.884 174.916,277.063 176.605,280.904C177.675,283.339 181.271,288 182.079,288C182.31,288 184.72,283.482 187.261,278.283L189.037,274.648L189.56,274.76C189.848,274.822 190.103,274.889 190.127,274.911C190.357,275.111 181.964,291.793 180.911,293.231C180.691,293.53 180.653,293.532 180.089,293.264C176.876,291.739 172.968,292.703 171.562,295.367C171.426,295.625 171.282,295.601 169.915,295.089C169.091,294.78 168.117,294.48 167.75,294.421C166.298,294.188 166.302,294.19 166.402,293.702C166.684,292.317 166.836,287.508 166.67,285.211C165.371,267.222 154.323,251.507 141.675,249.658C137.194,249.003 130.101,250.614 127.377,252.905C127.018,253.208 126.674,253.333 126.207,253.333C116.753,253.333 113.86,270.452 120.189,288.954C128.516,313.299 147.1,332.145 168.167,337.608C173.143,338.899 175.396,338.525 176.633,336.204C176.924,335.658 177.289,335.107 177.444,334.98C180.203,332.72 183.689,324.904 184.252,319.716C184.362,318.707 184.379,318.677 184.974,318.482C188.284,317.396 190.037,312.646 189.126,307.234L188.899,305.885L190.138,303.651C190.82,302.422 192.465,299.485 193.793,297.125L196.208,292.833L197.421,292.833C198.71,292.833 202.005,292.326 203.39,291.915C203.849,291.779 204.239,291.686 204.258,291.709C204.278,291.732 204.488,292.138 204.726,292.612C205.973,295.094 208.986,297.521 211.712,298.238C212.295,298.391 212.562,298.541 212.518,298.692C212.116,300.077 211.835,301.601 211.833,302.417L211.829,303.417L210.577,303.898C196.544,309.289 192.266,325.168 202.934,332.266C204.052,333.01 204.333,333.279 204.333,333.604C204.333,337.728 213.851,340.717 222.812,339.408C236.196,337.452 245.809,330.65 248.984,320.889C255.566,300.651 241.506,269.261 223.875,264.832C222.987,264.609 222.994,264.569 224.05,263.719C224.526,263.335 225.538,262.466 226.298,261.787L227.679,260.552L228.964,261.832C230.229,263.091 232.539,264.5 233.339,264.5C233.504,264.5 233.664,264.561 233.694,264.637C233.775,264.835 235.344,265.368 235.833,265.364C236.277,265.36 237,265.919 237,266.266C237,266.381 237.188,266.697 237.417,266.97C237.646,267.242 237.833,267.546 237.833,267.645C237.833,267.744 238.04,267.956 238.292,268.115C238.544,268.274 239.05,268.644 239.417,268.936C240.319,269.655 241.956,270.173 243.667,270.28L245.083,270.368L245.841,271.142C246.78,272.102 247.79,273 247.93,273C247.988,273 248.386,273.176 248.814,273.392C250.357,274.166 253.926,274.566 256.5,274.253C257.004,274.191 257.548,274.142 257.708,274.143C257.869,274.145 258,274.087 258,274.016C258,273.945 258.319,273.792 258.708,273.677C259.713,273.38 260.992,272.659 261.2,272.272C261.296,272.091 261.587,271.765 261.846,271.547C263.244,270.371 263.267,267.959 261.894,266.488L261.494,266.059L261.872,265.876C262.08,265.775 262.451,265.649 262.697,265.596C262.942,265.543 263.263,265.38 263.408,265.235C263.554,265.089 263.767,264.956 263.881,264.939C263.995,264.922 264.388,264.723 264.753,264.497C265.118,264.271 265.459,264.085 265.51,264.084C265.63,264.083 266.478,263.314 267.571,262.212C268.524,261.253 268.687,261.197 269.951,261.394C270.428,261.468 270.906,261.474 271.015,261.408C271.123,261.341 271.445,261.268 271.731,261.245C273.609,261.098 275.888,259.831 276.942,258.347C277.817,257.116 278.082,256.86 278.621,256.729C279.366,256.547 281.818,255.4 283.851,254.281C291.957,249.82 293.018,246.238 288.081,240C287.392,239.129 286.548,238.057 286.206,237.618C285.134,236.241 281.342,231.944 280.655,231.329C280.295,231.005 280,230.655 280,230.549C280,230.444 279.898,230.334 279.774,230.304C279.65,230.274 278.656,229.415 277.566,228.394C276.475,227.373 274.871,225.921 274,225.167C273.129,224.414 272.02,223.449 271.534,223.024C269.954,221.638 266.149,217.987 263.049,214.882L260.015,211.843L261.438,208.463C269.527,189.24 275.785,166.71 278.394,147.417C278.747,144.801 278.774,144.901 276.16,139.061C274.854,136.14 272.963,131.912 271.96,129.667C269.733,124.681 269.638,124.561 268.262,124.994C267.624,125.195 262.368,126.033 261.277,126.107C260.833,126.138 259.071,126.387 257.36,126.66C255.65,126.934 253.575,127.234 252.75,127.328C250.625,127.569 244.505,128.631 243.959,128.853C243.453,129.06 243.002,130.216 242.997,131.322C242.994,132.067 242.214,138.121 242.097,138.311C242.05,138.387 241.858,139.417 241.67,140.6C240.781,146.204 238.857,155.826 238.486,156.525C238.405,156.676 238.071,157.876 237.743,159.191C236.22,165.294 233.027,176.078 232.667,176.333C232.603,176.379 232.304,177.167 232.003,178.083C226.991,193.362 218.112,210.835 211.167,219.083C207.781,223.105 202.607,227.448 202.158,226.646C202.079,226.505 201.647,226.003 201.197,225.531C198.096,222.28 196.772,218.393 196.332,211.25C195.444,196.831 199.004,177.39 207.258,151.583C207.844,149.75 208.525,147.612 208.772,146.833C209.018,146.054 209.313,145.192 209.429,144.917C209.664,144.357 209.122,142.177 207.219,136.026C206.097,132.399 206.048,132.324 204.464,131.845C203.796,131.642 202.012,131.077 200.5,130.588C198.987,130.099 197.037,129.494 196.167,129.244C195.296,128.993 194.546,128.736 194.5,128.671C194.454,128.607 193.517,128.314 192.417,128.02C191.317,127.726 190.291,127.417 190.138,127.333C189.985,127.249 189.241,127.022 188.484,126.829C187.726,126.636 186.914,126.381 186.678,126.262C186.443,126.143 185.688,125.913 185,125.75C184.313,125.588 183.675,125.41 183.583,125.357C183.492,125.303 183.342,125.253 183.25,125.245C183.158,125.238 182.863,125.139 182.594,125.025C182.001,124.774 181.498,124.83 181.314,125.167C180.944,125.844 180.167,127.679 180.167,127.876C180.167,127.999 180.101,128.171 180.02,128.258C179.94,128.345 179.742,128.829 179.58,129.333C179.418,129.837 179.184,130.398 179.059,130.579C178.935,130.76 178.833,131.025 178.833,131.169C178.833,131.312 178.686,131.719 178.505,132.074C178.324,132.428 178.05,133.1 177.896,133.567C177.742,134.034 177.522,134.567 177.407,134.75C177.293,134.933 177.147,135.346 177.083,135.667C177.02,135.987 176.831,136.55 176.664,136.917C176.289,137.74 175.884,138.955 175.573,140.186C175.443,140.7 175.224,141.338 175.086,141.602C174.948,141.867 174.835,142.176 174.834,142.289C174.833,142.542 173.714,145.986 173.52,146.335C173.443,146.474 173.254,147.036 173.101,147.585C172.947,148.134 172.719,148.846 172.594,149.167C172.31,149.893 171.057,153.906 170.902,154.583C170.839,154.858 170.731,155.158 170.661,155.25C170.592,155.342 170.367,156.092 170.161,156.917C169.955,157.742 169.716,158.554 169.63,158.722C169.544,158.889 169.26,159.864 168.998,160.888C168.736,161.912 168.44,162.975 168.339,163.25C168.084,163.951 167.135,167.811 166.252,171.75C165.84,173.583 165.344,175.683 165.149,176.417C164.954,177.15 164.577,178.762 164.312,180C163.721,182.754 163.747,182.684 163.525,182.127C163.425,181.876 163.191,181.356 163.005,180.971C162.819,180.586 162.667,180.169 162.667,180.044C162.667,179.919 162.448,179.239 162.182,178.533C161.555,176.875 161,175.004 161,174.551C161,174.355 160.931,174.169 160.847,174.139C160.763,174.108 160.505,173.221 160.274,172.167C160.044,171.112 159.707,169.688 159.526,169C159.341,168.296 159.265,167.725 159.353,167.693C159.624,167.594 161.13,166.258 161.498,165.79C161.693,165.542 162.054,165.125 162.301,164.862C163.591,163.488 164.822,161.371 165.083,160.079C165.156,159.714 165.239,159.304 165.267,159.167C165.683,157.122 165.398,154.85 164.561,153.538C164.252,153.055 164,152.613 164,152.555C164,152.318 162.45,151.009 161.711,150.62C161.274,150.391 160.69,150.072 160.414,149.912L159.911,149.622L160.62,148.853C161.011,148.429 161.331,148.019 161.332,147.941C161.333,147.862 161.552,147.521 161.82,147.183C162.088,146.845 162.548,146.122 162.843,145.576C163.139,145.03 163.473,144.471 163.587,144.333C163.701,144.196 163.849,143.904 163.916,143.684C163.983,143.465 164.254,142.944 164.519,142.527C164.783,142.11 165,141.706 165,141.63C165,141.555 165.27,140.801 165.601,139.955C166.298,138.172 166.266,138.296 166.785,135.25C168.148,127.243 162.992,121.158 156.692,123.338C154.959,123.937 154.515,123.521 153.42,120.27C153.17,119.526 152.866,118.692 152.746,118.417C152.626,118.142 152.475,117.617 152.412,117.25C152.348,116.883 152.148,116.058 151.968,115.417C151.42,113.461 151.146,112.286 151.055,111.5C151.007,111.087 150.9,110.679 150.817,110.592C150.734,110.505 150.667,110.266 150.667,110.061C150.667,109.856 150.509,109.064 150.317,108.302C150.124,107.54 149.868,106.354 149.746,105.667C149.483,104.172 149.312,103.464 148.838,101.917C148.642,101.275 148.406,100.438 148.314,100.056C148.221,99.675 147.888,98.934 147.573,98.411C147.258,97.888 147,97.398 147,97.323C147,97.248 146.7,96.84 146.333,96.417C145.967,95.993 145.667,95.582 145.667,95.504C145.667,95.271 143.635,94.219 142.946,94.095C142.596,94.032 142.221,93.954 142.113,93.921C142.005,93.888 141.504,93.954 141,94.067M143.571,96.47C144.194,96.833 145.833,98.971 145.833,99.42C145.833,99.606 145.935,99.907 146.059,100.088C146.355,100.519 146.875,102.194 147.324,104.167C147.522,105.037 147.789,106.125 147.918,106.583C148.047,107.042 148.199,107.792 148.257,108.25C148.315,108.708 148.649,110.283 148.999,111.75C149.35,113.217 149.689,114.754 149.754,115.167C149.818,115.579 149.928,115.992 149.997,116.083C150.066,116.175 150.218,116.655 150.334,117.149C150.45,117.644 150.647,118.244 150.771,118.482C150.896,118.721 150.999,119.104 151,119.333C151.001,119.563 151.121,119.975 151.266,120.25C151.411,120.525 151.724,121.237 151.962,121.833C152.2,122.429 152.643,123.281 152.947,123.727C153.633,124.733 153.634,124.724 152.875,125.056C152.531,125.207 151.95,125.558 151.583,125.837C150.8,126.434 149.741,127.178 149.324,127.425C149.162,127.521 148.713,127.858 148.327,128.175C147.941,128.491 147.529,128.787 147.41,128.833C147.292,128.879 146.938,129.151 146.624,129.438C146.31,129.725 145.877,130.054 145.662,130.169C145.447,130.284 145.191,130.445 145.094,130.526C144.286,131.197 144.101,131.333 143.997,131.333C143.932,131.333 143.596,131.558 143.25,131.833C142.458,132.463 142.455,132.463 142.114,131.692C141.719,130.795 141.281,130.435 140.75,130.569C140.157,130.717 139.977,131.273 140.286,132C140.89,133.418 140.903,133.681 140.389,134.109C134.654,138.894 135.053,144.541 141.25,146.273C141.433,146.324 142.033,146.405 142.583,146.451C143.843,146.558 143.991,146.698 143.338,147.163C141.721,148.315 138.232,147.974 136.636,146.508C136.482,146.366 135.957,145.917 135.47,145.51C134.538,144.732 133.188,143.04 132.934,142.333C132.851,142.104 132.56,141.589 132.286,141.188C132.013,140.787 131.729,140.224 131.656,139.938C131.52,139.405 130.733,137.018 130.495,136.417C129.772,134.588 129.996,129.184 130.866,127.444C131.34,126.497 132.56,125 132.858,125C132.94,125 133.29,124.821 133.637,124.602C134.562,124.018 137.553,123.538 138.112,123.883C138.201,123.938 138.469,124.018 138.709,124.062C139.474,124.2 140.092,124.82 140.741,126.098C141.429,127.453 141.736,127.714 142.549,127.635C143.296,127.563 143.413,126.391 142.763,125.494C142.533,125.177 142.074,124.378 141.744,123.719C141.413,123.06 141.035,122.432 140.905,122.323C140.774,122.215 140.667,122.031 140.667,121.915C140.667,121.734 139.942,120.115 139.511,119.333C139.435,119.196 139.241,118.671 139.079,118.167C138.917,117.662 138.704,117.148 138.606,117.022C138.375,116.728 138.006,115.668 138.003,115.289C138.001,115.128 137.931,114.865 137.848,114.706C136.683,112.491 136.062,105.829 136.707,102.45C137.601,97.761 140.884,94.9 143.571,96.47M203.18,111.661C206.335,112.194 206.389,112.24 205.826,113.952C203.355,121.457 197.297,124.578 192.377,120.881C189.98,119.08 187.987,116.074 188.955,115.717C189.117,115.657 189.55,115.37 189.917,115.08C190.922,114.284 192.483,113.373 193.505,112.987C195.767,112.131 196.809,111.811 197.583,111.736C198.042,111.692 198.904,111.593 199.5,111.516C201.101,111.309 201.092,111.308 203.18,111.661M259.367,111.951C259.486,112.046 259.883,112.177 260.25,112.242C261.138,112.401 263.209,113.269 263.686,113.684C263.896,113.866 264.308,114.163 264.6,114.344C265.906,115.151 265.84,115.642 264.161,117.603C263.158,118.774 259.733,121.5 259.265,121.5C259.18,121.5 258.616,121.705 258.013,121.955C256.16,122.725 251.512,122.346 250.848,121.371C250.794,121.292 250.408,120.996 249.99,120.711C248.436,119.654 245.833,115.94 245.833,114.779C245.833,114.446 250.52,112.249 250.969,112.372C251.065,112.398 251.876,112.221 253.75,111.765C254.36,111.617 259.145,111.775 259.367,111.951M236.537,120.408C235.928,121.182 236.456,121.928 237.725,122.089C238.197,122.148 238.791,122.284 239.046,122.39L239.508,122.583L238.879,123.535C236.785,126.704 231.605,129.636 227,130.258C224.145,130.644 220.606,130.485 219.46,129.919C219.209,129.795 218.763,129.641 218.468,129.576C217.811,129.432 215.29,128.364 215.17,128.179C215.122,128.105 214.773,127.887 214.393,127.695C213.544,127.264 211.197,125.501 210.769,124.972C210.596,124.758 210.302,124.415 210.115,124.208L209.775,123.834L210.725,123.855C211.879,123.882 212.377,123.54 212.3,122.775C212.189,121.684 210.083,121.158 208.721,121.881C206.155,123.244 204.405,126.677 206.064,127.093C206.783,127.274 207.072,127.101 207.553,126.205L208.023,125.329L209.341,126.54C210.617,127.713 211,128.444 210.565,128.879C210.509,128.935 210.25,129.591 209.989,130.336C209.728,131.081 209.259,132.154 208.947,132.721C207.553,135.245 208.746,136.88 212.552,137.662L213.522,137.861L213.443,139.472C213.4,140.358 213.28,142.508 213.178,144.25C212.618,153.779 214.11,158.242 218.636,160.58C222.632,162.644 228.041,160.702 231.526,155.953C232.011,155.291 232.458,154.712 232.52,154.667C232.65,154.569 233.756,152.392 234.468,150.833C234.74,150.237 235.165,149.112 235.413,148.333C235.661,147.554 235.969,146.692 236.098,146.417C236.562,145.426 237.048,142.143 237.121,139.5L237.193,136.917L237.888,136.387C241.731,133.457 241.893,132.631 239.333,129.011L238.339,127.605L239.367,126.511C239.933,125.909 240.563,125.25 240.768,125.047C240.973,124.843 241.189,124.525 241.248,124.339C241.434,123.754 242.333,124.447 242.333,125.174C242.333,125.851 243.536,126.504 244.164,126.168C245.551,125.426 244.257,122.826 241.725,121.268C239.519,119.91 237.227,119.53 236.537,120.408M161.633,125.449C162.506,125.891 164,127.555 164,128.086C164,128.207 164.109,128.519 164.243,128.778C165.461,131.145 165.016,136.789 163.338,140.25C163.072,140.8 162.855,141.287 162.857,141.333C162.86,141.379 162.649,141.819 162.389,142.31C162.129,142.802 161.692,143.633 161.417,144.158C161.142,144.682 160.783,145.293 160.62,145.514C160.456,145.735 159.946,146.438 159.486,147.076C158.061,149.051 157.852,149.181 156.263,149.076C155.522,149.027 154.392,149.071 153.75,149.174C153.108,149.278 152.171,149.423 151.667,149.497C151.162,149.57 150.412,149.777 150,149.956C149.587,150.135 149.044,150.332 148.792,150.394C148.54,150.456 148.333,150.58 148.333,150.67C148.333,150.76 148.201,150.833 148.039,150.833C147.658,150.833 146.703,151.343 145.269,152.309C144.638,152.735 143.995,153.159 143.84,153.251C143.491,153.458 142.395,154.447 141.929,154.975C141.739,155.19 141.377,155.573 141.125,155.826C140.873,156.079 140.667,156.334 140.667,156.392C140.667,156.45 140.401,156.845 140.076,157.27C139.752,157.696 139.382,158.292 139.255,158.597C139.006,159.192 138.559,159.239 137.25,158.807C136.975,158.716 136.563,158.607 136.333,158.564C134.873,158.291 132.053,155.721 131.527,154.183C131.253,153.383 131.27,153.347 131.875,153.448C134.032,153.808 138,152.67 138,151.691C138,151.63 138.189,151.377 138.419,151.128C138.649,150.88 138.909,150.489 138.996,150.261C139.147,149.864 139.213,149.847 140.535,149.853C141.487,149.858 142.253,149.753 143,149.516C143.596,149.326 144.131,149.17 144.189,149.169C144.248,149.168 144.348,149.523 144.412,149.958C144.607,151.285 145.563,151.925 146.238,151.18C146.512,150.878 146.512,150.785 146.247,149.485C145.8,147.295 146.119,146.113 147.236,145.816C147.61,145.717 148.029,145.571 148.167,145.493C148.304,145.414 148.942,145.073 149.583,144.734C151.282,143.837 153.828,141.569 154.809,140.081C155.052,139.712 155.449,139.15 155.692,138.831C157.254,136.777 157.906,135.082 157.407,134.37C156.915,133.668 155.383,134.725 155.053,135.994C154.994,136.221 154.808,136.553 154.64,136.734C154.471,136.915 154.333,137.15 154.333,137.256C154.333,137.362 154.183,137.584 154,137.75C153.817,137.916 153.667,138.126 153.667,138.217C153.667,138.603 151.213,141.255 150.363,141.788C150.118,141.941 149.648,142.273 149.321,142.525C147.116,144.216 142.265,145.085 140.853,144.041C140.574,143.835 140.288,143.664 140.215,143.661C140.009,143.653 139.296,142.97 138.792,142.299C137.751,140.914 138.417,138.761 140.508,136.747C141.077,136.198 141.662,135.619 141.808,135.458C141.955,135.298 142.157,135.167 142.258,135.167C142.359,135.167 142.624,134.972 142.846,134.734C143.068,134.496 143.512,134.166 143.833,134.002C144.154,133.837 144.567,133.533 144.75,133.327C144.933,133.12 145.462,132.707 145.924,132.409C146.386,132.111 146.864,131.747 146.986,131.6C147.108,131.453 147.293,131.333 147.398,131.333C147.563,131.333 147.923,131.067 149.523,129.759C149.982,129.383 152.348,127.764 152.788,127.524C153.015,127.4 153.337,127.163 153.503,126.997C153.668,126.832 154.092,126.567 154.443,126.409C154.795,126.251 155.533,125.913 156.083,125.658C157.91,124.812 160.202,124.725 161.633,125.449M267.999,128.394C267.996,132.384 265.993,147.038 264.237,155.917C262.614,164.124 259.178,178.378 258.411,180.083C258.212,180.527 257.802,181.849 255.568,189.25C253.857,194.92 249.972,204.994 246.506,212.75C242.876,220.873 234.072,237.488 233.393,237.497C233.288,237.499 232.961,237.725 232.667,238C232.372,238.275 232.052,238.5 231.956,238.5C231.664,238.5 229.678,239.902 229.672,240.112C229.669,240.219 229.338,240.594 228.936,240.945C228.011,241.753 226.333,244.423 226.333,245.088C226.333,245.202 226.221,245.51 226.084,245.773C225.947,246.035 225.835,246.377 225.834,246.532C225.834,246.687 225.771,246.852 225.694,246.9C225.617,246.947 225.543,247.233 225.528,247.535C225.417,249.827 223.812,252.04 218.175,257.671C214.164,261.678 212.363,263.127 207.008,266.658C200.216,271.137 191.677,273.014 186.16,271.241C183.739,270.463 178.606,267.916 177.765,267.074C177.629,266.939 177.158,266.553 176.717,266.218C172.835,263.26 168.286,257.207 166.157,252.167C165.867,251.479 165.566,250.838 165.488,250.741C165.286,250.49 164.055,247.012 163.745,245.813C163.6,245.256 163.415,244.677 163.332,244.525C163.249,244.374 163.027,243.463 162.837,242.5C162.648,241.537 162.417,240.511 162.323,240.219C162.23,239.927 162.036,238.877 161.894,237.886C160.925,231.158 160.672,223.523 161.189,216.667C161.29,215.338 161.371,214.1 161.371,213.917C161.37,213.733 161.434,213.171 161.513,212.667C161.592,212.162 161.693,211.235 161.736,210.605C161.78,209.975 161.891,208.925 161.982,208.271C162.074,207.618 162.273,206.108 162.425,204.917C162.576,203.725 162.849,201.85 163.03,200.75C163.211,199.65 163.386,198.474 163.417,198.137C163.449,197.8 163.701,196.262 163.975,194.72C164.25,193.178 164.551,191.429 164.644,190.833C164.832,189.618 166.282,182.521 167.402,177.333C167.807,175.454 168.225,173.504 168.329,173C168.434,172.496 168.589,171.933 168.674,171.75C168.759,171.567 169.137,170.029 169.514,168.333C169.892,166.637 170.257,165.175 170.327,165.083C170.396,164.992 170.662,164.017 170.919,162.917C171.175,161.817 171.453,160.782 171.536,160.616C171.62,160.451 171.837,159.739 172.021,159.033C172.204,158.327 172.534,157.188 172.754,156.5C172.975,155.813 173.465,154.237 173.844,153C174.223,151.762 174.638,150.514 174.767,150.225C174.895,149.936 175,149.62 175,149.522C175,149.309 175.455,147.884 175.672,147.417C175.757,147.233 176.168,146.033 176.585,144.75C177.002,143.467 177.41,142.267 177.492,142.083C177.574,141.9 177.791,141.3 177.976,140.75C178.16,140.2 178.545,139.112 178.831,138.333C179.118,137.554 179.471,136.542 179.617,136.083C179.763,135.625 179.973,135.1 180.085,134.917C180.197,134.733 180.385,134.208 180.503,133.75C180.622,133.292 180.775,132.842 180.844,132.75C180.913,132.658 181.118,132.171 181.299,131.667C181.851,130.131 182.522,128.596 182.744,128.362C182.952,128.143 186.781,128.958 187.244,129.32C187.339,129.394 188.504,129.772 189.833,130.16C191.162,130.547 192.325,130.925 192.417,130.998C192.508,131.072 193.408,131.369 194.417,131.657C198.829,132.92 202.594,134.058 202.717,134.167C202.84,134.275 202.69,134.718 202.069,136.083C201.944,136.358 201.612,137.221 201.331,138C201.051,138.779 200.717,139.642 200.59,139.917C200.462,140.192 200.158,141.017 199.913,141.75C199.667,142.483 199.409,143.158 199.339,143.25C199.268,143.342 198.973,144.16 198.683,145.069C198.393,145.979 198.05,146.954 197.921,147.236C197.792,147.519 197.447,148.537 197.155,149.5C196.863,150.462 196.569,151.325 196.502,151.417C196.436,151.508 196.174,152.296 195.922,153.167C195.67,154.037 195.212,155.5 194.903,156.417C194.595,157.333 194.145,158.833 193.903,159.75C193.661,160.667 193.392,161.55 193.307,161.712C193.221,161.875 192.742,163.637 192.242,165.629C191.742,167.621 191.263,169.4 191.178,169.583C190.743,170.521 188.769,180.06 187.834,185.75C186.535,193.65 186.244,197.222 186.268,205C186.286,211.033 186.296,211.166 187.073,215.833C187.35,217.496 188.198,220.728 188.592,221.623C190.832,226.712 193.02,229.07 196.274,229.904C203.709,231.81 213.405,222.872 222.836,205.419C224.485,202.368 225.072,201.195 226.092,198.917C226.256,198.55 226.723,197.537 227.131,196.667C228.433,193.883 230.632,188.693 232.532,183.917C233.633,181.149 236.208,173.358 237.573,168.667C238.279,166.237 238.968,163.912 239.103,163.5C240.165,160.251 242.364,150.665 243.327,145.083C243.517,143.983 243.779,142.671 243.91,142.167C244.182,141.121 244.689,137.677 245.16,133.69C245.336,132.19 245.519,130.925 245.566,130.878C245.651,130.794 251.594,129.901 257.583,129.073C259.325,128.833 262.25,128.395 264.083,128.1C268.004,127.469 268,127.469 267.999,128.394M236.785,129.71C236.988,130.007 237.494,130.688 237.91,131.223C238.326,131.758 238.667,132.295 238.667,132.417C238.667,133.046 233.92,136.333 233.012,136.333C232.816,136.333 232,135.482 232,135.277C232,135.199 231.859,134.936 231.686,134.692C231.328,134.187 230.152,132 230.239,132C230.679,132 233.755,130.679 234.833,130.027C236.51,129.013 236.329,129.043 236.785,129.71M213.762,130.025C214.305,130.314 214.862,130.641 215,130.75C215.137,130.86 215.611,131.092 216.052,131.266L216.855,131.583L216.762,132.5C216.711,133.004 216.623,133.969 216.565,134.645L216.462,135.872L215.772,135.781C211.24,135.179 210.334,134.716 211.132,133.409C211.409,132.955 211.849,131.891 212.11,131.044C212.37,130.198 212.626,129.504 212.679,129.503C212.731,129.501 213.219,129.736 213.762,130.025M127.953,131.708C127.71,133.27 128.846,138.698 129.815,140.605C130.1,141.166 130.336,141.728 130.339,141.854C130.342,141.98 130.566,142.383 130.836,142.75C131.106,143.117 131.421,143.604 131.535,143.833C131.65,144.063 131.784,144.287 131.834,144.333C131.884,144.379 132.059,144.628 132.223,144.886C133.014,146.128 135.526,148.489 136.074,148.505C136.609,148.521 137.16,149.307 136.938,149.737C136.728,150.142 135.984,150.833 135.759,150.833C135.701,150.833 135.442,150.989 135.185,151.179C132.983,152.808 128.141,150.512 125.45,146.563C121.055,140.113 122.355,131.646 127.811,131.186C127.975,131.172 128.015,131.316 127.953,131.708M273.335,138.521L276.333,145.234L275.739,149.075C272.582,169.498 266.854,189.722 259.053,207.997C258.03,210.393 258.055,210.358 257.824,209.704C257.423,208.569 254.179,207.741 252.085,208.238C250.858,208.529 250.895,208.574 251.391,207.393C253.269,202.926 254.859,198.753 256.431,194.167C257.107,192.196 257.92,189.833 258.238,188.917C263.196,174.648 268.777,148.267 269.849,134.027C269.975,132.354 270.108,131.401 270.195,131.556C270.272,131.695 271.685,134.829 273.335,138.521M221.083,132.679C222.451,132.896 225.917,132.956 226.458,132.772L226.833,132.644L226.833,135.043C226.833,138.395 226.678,138.5 221.753,138.5C218.656,138.5 218.731,138.55 218.683,136.454C218.625,133.916 218.944,132.296 219.479,132.405C219.72,132.454 220.442,132.577 221.083,132.679M205.302,137.333C205.834,139.205 207.208,144.559 207.204,144.75C207.203,144.842 206.812,146.004 206.336,147.333C199.875,165.379 195.184,185.463 194.072,199.833C193.023,213.393 194.733,222.193 199.372,227.11L199.869,227.636L198.934,227.83C196.137,228.41 193.116,226.127 191.439,222.167C191.187,221.571 190.882,220.896 190.761,220.667C190.64,220.438 190.341,219.387 190.096,218.333C189.851,217.279 189.583,216.192 189.5,215.917C189.366,215.47 189.208,214.343 188.917,211.75C188.659,209.46 188.505,203.255 188.653,201.176C188.742,199.944 188.781,198.883 188.741,198.818C188.631,198.641 189.116,193.974 189.597,190.583C189.831,188.933 190.024,187.433 190.026,187.25C190.033,186.363 191.587,177.897 191.818,177.488C191.899,177.344 192.093,176.594 192.249,175.821C192.694,173.611 194.618,165.689 194.978,164.583C195.157,164.033 195.584,162.533 195.928,161.25C196.272,159.967 196.606,158.842 196.671,158.75C196.737,158.658 197.035,157.721 197.333,156.667C197.632,155.612 198.129,154.06 198.438,153.216C198.747,152.372 199,151.615 199,151.535C199,151.325 199.645,149.343 199.906,148.75C200.027,148.475 200.37,147.5 200.669,146.583C200.967,145.667 201.266,144.842 201.334,144.75C201.402,144.658 201.742,143.721 202.091,142.667C202.44,141.612 202.775,140.712 202.834,140.667C202.893,140.621 203.19,139.871 203.494,139C203.798,138.129 204.186,137.155 204.356,136.836C204.527,136.516 204.667,136.145 204.667,136.011C204.667,135.512 204.955,136.112 205.302,137.333M230.75,146.906C231.208,147.052 231.883,147.427 232.25,147.737L232.917,148.303L232.631,149.11C229.728,157.297 222.628,161.412 218.241,157.448C217.371,156.662 216.4,155.203 216.276,154.495C216.235,154.263 216.106,153.754 215.989,153.363C215.302,151.069 218.456,147.654 221.518,147.376C222.558,147.282 222.66,147.364 222.241,147.962C221.262,149.36 220.792,151.974 221.409,152.591C222.102,153.284 223.167,152.751 223.167,151.711C223.167,150.385 225.127,147.562 226.554,146.835C227.376,146.415 229.32,146.448 230.75,146.906M157.833,151.211C158.063,151.299 158.362,151.386 158.5,151.405C158.777,151.444 159.029,151.542 160.25,152.087C164.034,153.777 164.551,158.397 161.438,162.708C160.991,163.327 160.565,163.833 160.491,163.833C160.417,163.833 160.311,163.975 160.256,164.148C160.161,164.448 158.884,165.455 158.774,165.316C158.745,165.28 158.59,164.65 158.429,163.917C158.268,163.183 158.074,162.358 157.998,162.083C157.922,161.808 157.81,161.145 157.749,160.609C157.626,159.521 157.539,159.562 158.95,160.045C160.17,160.463 160.958,159.115 159.9,158.421C158.647,157.6 156.057,157.316 154.441,157.822C154.153,157.912 153.282,158.186 152.505,158.43C150.7,158.997 148.648,160.232 147.17,161.643C146.847,161.951 146.465,162.288 146.32,162.393C145.057,163.308 144.605,166 145.715,166C145.957,166 147,164.89 147,164.633C147,164.504 147.255,164.152 147.567,163.849C148.226,163.211 148.241,163.231 148.418,165C148.478,165.596 148.591,166.308 148.671,166.583C148.75,166.858 148.922,167.623 149.053,168.283L149.29,169.483L148.835,169.583C148.093,169.746 145.837,169.514 144.676,169.156C138.906,167.374 138.472,161.141 143.756,155.958C144.481,155.248 145.129,154.667 145.196,154.667C145.263,154.667 145.747,154.367 146.27,154C146.794,153.633 147.322,153.333 147.444,153.333C147.567,153.333 147.667,153.277 147.667,153.207C147.667,152.89 151.983,151.365 153.583,151.117C154.462,150.981 157.402,151.046 157.833,151.211M247.544,219.667C248.009,220.676 248.784,221.936 249.451,222.767C249.753,223.143 250,223.515 250,223.593C250,223.67 250.23,223.972 250.512,224.262L251.024,224.79L249.744,227.103C248.418,229.501 245.521,234.377 245.136,234.858C244.96,235.079 244.459,235.156 242.589,235.247C241.309,235.309 240.147,235.42 240.006,235.494C239.865,235.568 239.563,235.632 239.333,235.636C239.104,235.64 238.56,235.713 238.125,235.8C237.152,235.993 237.128,236.156 238.397,233.94C240.44,230.374 242.027,227.382 244.38,222.659C246.746,217.91 246.75,217.903 246.974,218.409C247.098,218.688 247.354,219.254 247.544,219.667M258.009,232.246C258.325,232.519 258.796,232.878 259.055,233.044C259.315,233.209 259.727,233.531 259.972,233.758C260.216,233.985 260.548,234.212 260.708,234.263C260.869,234.314 261,234.412 261,234.481C261,234.549 261.319,234.784 261.708,235.003C262.098,235.221 262.492,235.465 262.583,235.543C262.675,235.622 263.005,235.837 263.316,236.022L263.881,236.358L263.316,236.7C263.005,236.888 262.385,237.406 261.938,237.85L261.126,238.659L260.707,238.33C260.477,238.148 260.21,238 260.113,238C259.934,238 258.754,237.488 257.982,237.075C257.742,236.947 257.504,236.885 257.452,236.937C257.399,236.99 257.145,236.914 256.887,236.77C256.39,236.492 253.15,235.672 252.583,235.681C252.4,235.684 251.912,235.612 251.499,235.522C251.086,235.432 250.155,235.356 249.43,235.352C247.672,235.343 247.677,235.375 249.05,233.066C249.71,231.957 250.775,230.114 251.416,228.971L252.582,226.894L255.009,229.322C256.344,230.657 257.694,231.973 258.009,232.246M249.167,237.735C250.857,237.812 253.004,238.109 253.633,238.352C253.843,238.433 254.181,238.502 254.383,238.505C254.967,238.513 257.829,239.536 258.833,240.095C259.337,240.376 259.994,240.704 260.292,240.823C260.59,240.943 260.833,241.096 260.833,241.163C260.833,241.231 261.302,241.575 261.875,241.928C262.448,242.281 263.244,242.892 263.644,243.285C264.728,244.352 265.772,244.227 266.08,242.993C266.217,242.443 265.35,241.318 264.271,240.646C263.081,239.905 263.524,239.094 265.576,238.26C267.479,237.487 271.036,238.223 272.333,239.658C272.379,239.709 272.604,239.848 272.833,239.967C273.063,240.086 273.458,240.461 273.713,240.8C273.967,241.139 274.439,241.754 274.761,242.167C275.272,242.82 276.132,244.428 276.232,244.917C276.251,245.008 276.353,245.241 276.459,245.434C276.696,245.864 277.286,248.864 277.291,249.667C277.298,250.685 276.979,253.236 276.797,253.614C276.701,253.814 276.613,254.12 276.603,254.293C276.549,255.161 275.162,257.032 273.853,258C272.695,258.857 269.797,259.356 269.984,258.667C270.746,255.86 270.77,255.276 270.262,252.083C270.233,251.9 270.152,251.356 270.083,250.875C270.014,250.394 269.901,250 269.833,250C269.764,250 269.666,249.794 269.615,249.542C269.354,248.256 267.964,245.994 267.441,246.004C266.367,246.025 266.185,247.176 267.002,248.774C267.465,249.68 267.675,250.336 267.758,251.139C267.822,251.75 267.94,252.333 268.021,252.435C268.305,252.79 268.37,255.588 268.115,256.446C267.983,256.888 267.869,257.308 267.861,257.378C267.821,257.724 267.188,258.944 266.944,259.145C266.791,259.271 266.667,259.447 266.667,259.536C266.667,260.122 263.24,263 262.543,263C262.358,263 262.118,263.107 262.01,263.238C261.797,263.495 259.91,264.188 259.779,264.057C259.736,264.014 259.398,264.06 259.028,264.159C258.658,264.259 257.541,264.362 256.545,264.389C254.462,264.446 254.404,264.468 254.175,265.296C253.918,266.227 254.475,266.73 255.789,266.755C256.318,266.765 256.938,266.823 257.167,266.884C257.396,266.946 257.902,267.03 258.29,267.072C260.189,267.276 261.186,269.226 259.963,270.343C259.667,270.613 259.36,270.833 259.28,270.833C259.2,270.833 258.919,270.987 258.654,271.176C258.151,271.534 258.04,271.567 256.417,271.844C254.131,272.234 250.451,271.831 249.423,271.078C249.236,270.942 248.802,270.642 248.458,270.413C248.115,270.183 247.833,269.932 247.833,269.855C247.833,269.777 247.639,269.427 247.401,269.077C247.164,268.726 246.943,268.303 246.911,268.136C246.879,267.969 246.812,267.768 246.764,267.689C246.715,267.611 246.64,267.292 246.597,266.981C246.554,266.671 246.453,266.192 246.373,265.917C246.176,265.239 246.439,261.315 246.757,260.171C246.898,259.664 247.049,259.013 247.092,258.723C247.136,258.433 247.282,257.983 247.418,257.723C247.554,257.463 247.665,257.119 247.666,256.958C247.666,256.798 247.742,256.667 247.833,256.667C247.925,256.667 248,256.512 248,256.322C248,255.985 248.278,255.331 248.491,255.167C248.551,255.121 248.796,254.746 249.036,254.333C249.276,253.921 249.819,253.296 250.243,252.944C251.104,252.23 251.128,251.902 250.371,251.196C249.788,250.652 249.382,250.808 248.176,252.041C247.143,253.097 245.667,255.523 245.667,256.165C245.667,256.349 245.609,256.5 245.539,256.5C245.391,256.5 244.805,258.066 244.738,258.643C244.713,258.859 244.613,259.234 244.517,259.477C244.093,260.542 243.675,265.857 243.986,266.235C244.069,266.335 244.162,266.754 244.193,267.167L244.25,267.917L243.339,267.857C241.421,267.731 239.446,266.311 238.615,264.458C238.379,263.931 238.228,263.5 238.28,263.5C238.332,263.5 238.291,263.4 238.19,263.279C237.195,262.08 237.604,253.642 238.742,251.906C238.884,251.689 239,251.377 239,251.212C239,249.959 242.064,246.76 243.654,246.353C244.119,246.233 244.5,246.063 244.5,245.975C244.5,245.886 244.578,245.862 244.674,245.921C244.973,246.106 245.632,245.535 245.753,244.986C246.216,242.877 242.225,243.912 239.342,246.649C238.604,247.349 238,247.998 238,248.09C238,248.182 237.788,248.518 237.528,248.837C236.955,249.542 236.5,250.44 236.5,250.867C236.5,251.041 236.396,251.386 236.269,251.633C235.472,253.185 235.019,258.233 235.364,261.708C235.471,262.793 235.414,262.989 235.075,262.697C234.988,262.622 234.354,262.346 233.667,262.085C231.749,261.355 230.236,260.107 229.49,258.641C229.227,258.122 228.933,257.672 228.837,257.64C228.742,257.608 228.631,257.413 228.591,257.207C228.551,257.001 228.479,256.768 228.431,256.69C228.383,256.612 228.303,256.225 228.253,255.83C228.204,255.436 228.097,255.031 228.016,254.932C227.691,254.532 227.527,248.906 227.823,248.352C227.92,248.171 228,247.851 228,247.642C228,247.205 228.499,245.797 228.704,245.654C228.779,245.602 228.874,245.389 228.914,245.182C229.063,244.405 231.288,241.5 231.733,241.5C231.846,241.5 232.158,241.269 232.427,240.987C232.696,240.704 233.217,240.324 233.583,240.141C233.95,239.958 234.659,239.589 235.159,239.321C235.66,239.053 236.198,238.833 236.357,238.833C236.515,238.833 236.856,238.745 237.114,238.638C237.82,238.344 239.067,238.022 239.194,238.1C239.255,238.138 239.518,238.088 239.778,237.988C240.037,237.888 240.803,237.779 241.479,237.744C242.154,237.71 242.738,237.65 242.776,237.612C242.848,237.541 246.414,237.609 249.167,237.735M142.872,252.318C151.857,254.664 159.842,264.596 163.062,277.433C165.024,285.255 164.702,294.507 162.247,300.865C161.305,303.302 161.696,304.49 163.244,303.896C163.793,303.685 165.163,300.248 165.749,297.614L166.039,296.311L166.728,296.425C169.174,296.834 171.378,298.034 173.36,300.038C174.97,301.667 175.234,301.821 175.852,301.49C176.896,300.931 176.513,299.807 174.663,297.996C173.139,296.505 173.129,296.367 174.473,295.435C178.053,292.954 183.681,297.573 186.109,304.984C187.554,309.394 187.101,314.222 185.099,315.749C184.283,316.372 184.245,316.326 183.85,314.227C183.326,311.442 182.858,310.746 181.784,311.154C181.024,311.443 180.943,311.982 181.372,313.895C182.621,319.468 180.747,327.271 177.028,331.981L176.714,332.379L176.069,331.398C174.739,329.379 172.88,327.786 166.353,323.073C155.252,315.058 152.052,309.832 147.227,291.833C145.593,285.738 145.411,285.106 142.442,275.25C138.341,261.637 135.774,256.947 131.064,254.461L129.948,253.872L130.74,253.522C134.276,251.958 139.504,251.439 142.872,252.318M225.565,254.625C225.695,255.909 226.003,257.179 226.268,257.518C226.746,258.131 226.656,258.283 224.884,259.856C218.856,265.208 213.654,268.564 207.965,270.77C207.166,271.08 206.474,271.333 206.427,271.333C206.343,271.333 205.833,270.423 205.833,270.273C205.833,270.231 206.8,269.62 207.982,268.915C209.163,268.21 210.47,267.359 210.885,267.025C211.3,266.69 212.302,265.93 213.112,265.336C216.435,262.894 220.756,258.807 223.754,255.267C225.525,253.176 225.423,253.212 225.565,254.625M126.881,256.191C128.246,256.888 130.019,259.039 131.529,261.833C132.345,263.342 133.55,266.006 133.458,266.098C133.416,266.139 131.552,266.398 129.316,266.671C127.08,266.945 123.9,267.346 122.25,267.561C120.6,267.777 119.221,267.929 119.185,267.898C119.149,267.867 119.248,267.005 119.405,265.983C120.497,258.867 123.757,254.597 126.881,256.191M134.447,261.215C136.26,263.913 137.752,267.673 139.755,274.583C140.18,276.05 140.976,278.712 141.524,280.5C142.749,284.495 143.994,288.878 145.335,293.917C149.806,310.719 153.663,316.823 165,325.044C170.942,329.352 174.567,332.287 170.951,329.861C170.29,329.418 168.85,328.507 167.75,327.837C153.782,319.326 148.751,310.935 141.664,284.333C137.772,269.723 136.26,265.411 132.924,259.402L132.47,258.583L132.911,259.083C133.153,259.358 133.844,260.317 134.447,261.215M223.418,267.167C236.609,270.541 248.598,291.503 248.124,310.363C247.803,323.16 243.324,329.797 231.787,334.573C223.723,337.911 212.881,338.26 208.344,335.327C206.998,334.457 207.077,334.42 209.041,335.004C217.962,337.656 230.233,335.204 237.417,329.333C245.247,322.934 248.128,312.985 245.671,300.833C242.511,285.21 230.915,269.489 221.083,267.5C219.564,267.193 219.568,267.195 219.933,266.907C220.319,266.603 221.58,266.697 223.418,267.167M135.358,270.935C136.849,275.388 138.739,282.169 138.539,282.347C138.307,282.553 123.95,284.16 122.298,284.164L121.18,284.167L121.012,283.542C119.961,279.621 119.349,275.905 119.218,272.648L119.12,270.213L119.685,270.111C119.996,270.056 121.075,269.93 122.083,269.833C124.935,269.557 132.888,268.67 133.167,268.597C133.304,268.561 133.676,268.543 133.994,268.557L134.571,268.583L135.358,270.935M222.354,270.36C229.251,273.137 236.669,282.258 240.942,293.217C248.254,311.971 242.893,327.112 227.186,332.065C210.092,337.456 195.103,328.812 200.21,316.509C204.169,306.972 218.885,301.417 228.022,306.011C229.621,306.815 230.5,306.67 230.5,305.603C230.5,303.417 222.358,301.511 216.572,302.341C214.038,302.705 214.076,302.712 214.126,301.833C214.259,299.476 214.719,298.599 215.951,298.356C219.563,297.645 222.102,294.735 222.511,290.836C222.744,288.61 222.203,287.668 220.981,288.174C220.392,288.418 220.319,288.617 220.162,290.39C219.562,297.16 210.959,298.272 206.967,292.096C206.255,290.993 206.235,291.053 207.5,290.495C208.552,290.031 211.455,288.407 211.846,288.064C212.295,287.671 212.333,287.784 212.333,289.496C212.333,291.099 212.349,291.169 212.763,291.44C215.369,293.148 215.028,283.308 212.319,278.647C210.988,276.358 208.787,274.167 207.818,274.167C206.687,274.167 206.344,275.287 207.182,276.242L207.698,276.83L207.224,277.013C206.51,277.289 204.349,277.738 204.243,277.632C204.193,277.581 204.536,276.749 205.007,275.783L205.863,274.026L207.223,273.582C207.971,273.338 209.442,272.761 210.491,272.3C212.185,271.555 212.489,271.472 213.211,271.557C215.524,271.831 218.518,275.141 220.01,279.072C220.714,280.929 221.399,281.435 222.167,280.667C223.332,279.501 219.89,272.952 216.949,270.739C215.984,270.013 215.983,270.011 216.449,269.908C216.706,269.851 216.992,269.775 217.083,269.738C217.835,269.442 221,269.815 222.354,270.36M210.739,280.75C211.054,281.392 211.474,282.554 211.671,283.333L212.03,284.75L211.211,285.5C210.127,286.493 207.647,287.894 205.583,288.679L203.917,289.313L203.79,287.698C203.657,286.019 203.317,284.556 202.6,282.581C202.105,281.215 202.05,281.296 203.781,280.833C204.532,280.633 206.107,280.074 207.281,279.591L209.417,278.713L209.791,279.148C209.997,279.387 210.424,280.108 210.739,280.75M139.904,287.042C140.714,290.144 142.247,295.529 142.67,296.759C143.086,297.969 143.175,297.903 140.583,298.314C132.227,299.639 127.753,300.174 127.528,299.877C126.588,298.637 121.833,287.409 121.833,286.43C121.833,286.405 122.79,286.335 123.958,286.275C127.129,286.111 137.761,285.034 138.833,284.767C138.971,284.733 139.129,284.697 139.184,284.686C139.239,284.675 139.563,285.735 139.904,287.042M188.528,287.843C191.009,288.679 192.805,289.904 193.512,291.241L193.917,292.008L193.528,292.712C192.254,295.02 189.917,299.349 189.076,300.958C187.907,303.198 188.068,303.162 187.251,301.373C186.373,299.45 184.954,297.311 183.616,295.893L182.532,294.743L183.187,293.663C183.547,293.069 184.487,291.44 185.276,290.042C186.897,287.172 186.777,287.253 188.528,287.843M144.577,302.292C145.67,305.188 147.156,308.539 148.344,310.791C149.544,313.063 149.542,312.901 148.375,313.126C147.848,313.227 145.242,313.731 142.584,314.245L137.751,315.179L137.286,314.631C134.739,311.631 128.545,302.544 128.855,302.262C128.889,302.231 130.979,301.965 133.5,301.67C136.021,301.376 139.321,300.924 140.833,300.667C142.346,300.41 143.627,300.192 143.679,300.183C143.732,300.174 144.136,301.123 144.577,302.292M152.006,316.875C154.255,320.042 157.53,323.549 160.137,325.58C161.134,326.358 161.17,326.408 160.803,326.546C160.405,326.695 156.497,327.468 154.015,327.889L152.613,328.127L150.765,326.881C146.363,323.912 138.695,317 139.805,317C140.061,317 148.746,315.493 149.333,315.346C150.667,315.014 150.696,315.03 152.006,316.875M167.583,330.543C176.111,335.896 175.41,337.659 166.005,334.512C162.614,333.378 155.424,330.179 155.691,329.923C155.723,329.892 156.924,329.666 158.359,329.423C159.794,329.179 161.594,328.81 162.359,328.603C164,328.16 163.475,327.965 167.583,330.543" style="fill:rgb(6,6,6);"/>
            </g>
        </g>
    </g>
</svg>
