<?xml version="1.0" encoding="UTF-8" standalone="no"?>
<!DOCTYPE svg PUBLIC "-//W3C//DTD SVG 1.1//EN" "http://www.w3.org/Graphics/SVG/1.1/DTD/svg11.dtd">
<svg width="100%" height="100%" viewBox="0 0 1500 1500" version="1.1" xmlns="http://www.w3.org/2000/svg" xmlns:xlink="http://www.w3.org/1999/xlink" xml:space="preserve" xmlns:serif="http://www.serif.com/" style="fill-rule:evenodd;clip-rule:evenodd;stroke-linejoin:round;stroke-miterlimit:2;">
    <rect x="0" y="0" width="1500" height="1500"/>
    <g transform="matrix(0.940154,0,0,0.940154,51.4064,30.3768)">
        <g>
            <g transform="matrix(1,0,0,1,27.5826,19.899)">
                <path d="M844.218,917.437C832.736,921.847 822.823,925.663 819.133,927.102C809.348,930.917 808.82,930.469 811.193,920.36C819.613,884.547 824.105,867.063 836.923,820.252C852.926,761.8 858.83,739.598 867.254,706.191C871.713,688.507 877.155,667.371 879.35,659.228C883.821,642.632 883.792,643.484 879.86,644.863C878.262,645.424 875.317,646.287 873.315,646.778C871.313,647.273 868.055,648.234 866.074,648.911C859.937,651.015 858.539,649.734 859.278,642.665C859.489,640.659 859.951,635.839 860.304,631.955C860.661,628.071 861.065,623.801 861.204,622.465C861.338,621.129 861.739,617.033 862.085,613.364C862.434,609.694 862.984,604.096 863.308,600.925C863.628,597.754 864.178,591.751 864.524,587.58C864.866,583.408 865.405,577.674 865.718,574.839C866.027,571.999 866.751,565.039 867.323,559.367C867.894,553.692 868.659,548.851 869.019,548.607C873.541,545.538 898.178,539.743 916.088,537.529C964.021,531.614 1011.66,546.97 1040.33,574.707C1063.06,586.923 1080.77,604.535 1089.33,625.591C1136.99,566.813 1220.71,530.625 1330.47,522.469C1338.15,521.898 1352.12,522.095 1352.8,522.783C1353.98,523.96 1354.42,523.845 1344.85,543.497C1349.21,543.075 1353.61,542.699 1358.06,542.369C1365.74,541.797 1379.7,541.994 1380.38,542.682C1381.91,544.207 1382.19,543.563 1361.1,586.547C1356.35,596.223 1350.75,607.69 1348.66,612.029C1346.56,616.365 1339.77,630.26 1333.56,642.902C1327.34,655.545 1322.26,666.084 1322.26,666.32C1322.26,668.031 1319.33,668.996 1309.99,670.354C1294.5,672.603 1285.16,673.969 1264.93,676.943C1254.58,678.464 1244.23,679.979 1241.93,680.31C1237.4,680.962 1235.8,680.732 1235.27,679.353C1234.93,678.462 1235.33,677.36 1243.73,656.105C1241.72,656.4 1239.6,656.712 1237.34,657.044C1231.09,657.963 1224.84,658.879 1220.37,659.534C1219.71,659.964 1219.1,660.38 1218.51,660.776C1194.17,677.333 1182.93,691.193 1184.64,702.075C1195.24,705.02 1208.87,707.213 1225.51,708.619C1251.51,710.818 1269.43,714.076 1280.12,718.543C1290.13,722.731 1297.09,728.914 1300.93,736.06C1303.44,736.812 1305.7,737.606 1307.7,738.442C1339.3,751.652 1340.37,784.703 1309.87,805.23C1300.47,811.553 1278.54,821.48 1238.84,837.388C1206.46,850.359 1181.08,860.461 1165.12,866.733C1144.71,874.756 1112.72,887.333 1099.29,892.622C1094.29,894.596 1075.18,902.109 1056.82,909.32C1001.38,931.104 989.098,935.935 968.851,943.925C941.603,954.678 940.846,954.944 939.576,954.151C937.876,953.088 938.003,950.736 940.635,934.122C941.189,930.628 941.73,927.208 942.297,923.62C941.956,923.754 941.613,923.89 941.268,924.026C914.021,934.779 913.263,935.045 911.993,934.252C910.604,933.383 910.435,931.655 911.855,921.991C893.053,929.171 854.831,943.836 846.715,947.001C836.93,950.816 836.403,950.368 838.776,940.259C840.754,931.846 842.515,924.445 844.218,917.437ZM1067.85,721.145C1041.51,750.613 999.022,770.841 951.457,774.666L946.205,775.089L945.866,776.981C945.586,778.572 943.609,793.082 941.228,811.029C941.147,811.642 941.022,812.573 940.867,813.724C953.802,811.45 976.906,806.799 992.534,803.208C997.707,802.022 1014.77,798.05 1030.44,794.384C1068.01,785.593 1076.25,783.733 1101.44,778.342C1122.43,773.85 1128.55,772.525 1150.46,767.73C1139.76,765.929 1129.44,762.649 1119.92,757.976C1107.99,752.119 1099.1,745.687 1093.17,738.477C1092.89,738.345 1092.62,738.211 1092.34,738.076C1081.84,732.924 1073.7,727.326 1067.85,721.145ZM124.522,959.318C92.445,967.882 92.671,967.805 91.647,966.57C90.981,965.769 91.279,964.317 99.75,927.037C106.958,895.326 110.059,881.675 111.876,873.644C115.159,859.127 123.943,820.478 129.87,794.468C132.873,781.287 136.688,764.498 138.348,757.155C146.062,722.995 156.276,678.004 157.973,670.698C158.785,667.193 161.398,655.726 163.775,645.216C174.205,599.141 175.858,592.225 176.535,591.806C177.314,591.326 180.823,591.023 201.074,589.702C218.274,588.581 238.263,587.23 255.074,586.047C290.436,583.568 288.142,582.96 283.352,593.521C282.616,595.139 280.469,599.851 277.527,606.306C279.264,606.184 280.976,606.064 282.656,605.946C318.018,603.467 315.725,602.859 310.934,613.42C309.311,616.991 300.822,635.615 292.067,654.802C285.666,668.83 279.835,681.61 274.659,692.958C344.277,618.918 339.183,624.285 340.857,624.285C342.681,624.285 341.745,621.756 354.883,656.965C368.885,642.228 367.429,644.184 368.44,644.184C369.279,644.184 369.534,643.648 370.846,646.503C371.725,639.254 373.324,628.091 375.822,610.936C376.31,607.601 377.952,595.861 379.473,584.849C380.995,573.838 382.378,564.362 382.546,563.794C383.955,559.003 417.798,550.267 444.063,547.911C489.243,543.867 539.504,552.717 576.329,571.206C590.262,578.201 601.679,586.07 610.542,594.604C670.322,627.78 677.654,678.405 628.913,726.833C602.372,753.206 558.137,777.72 524.445,785.449C536.097,790.157 548.682,795.242 555.696,798.076C564.87,801.785 572.733,805.174 573.169,805.611C573.719,806.161 573.838,806.558 570.847,812.952C575.737,814.928 580.085,816.685 583.279,817.975C592.452,821.684 600.315,825.073 600.752,825.51C601.626,826.384 601.411,826.872 589.347,851.68C585.94,858.688 582.252,866.332 581.153,868.669C580.057,871.003 575.736,879.947 571.553,888.538C562.143,907.872 563.472,907.246 553.519,897.038C551.598,895.068 545.705,889.062 537.773,880.987C534.333,886.719 532.881,884.261 525.937,877.139C522.118,873.222 502.606,853.361 482.574,833.001C472.347,822.608 461.974,812.058 453.587,803.521C453.285,805.82 452.948,808.555 452.611,811.484C451.682,819.576 450.397,830.701 449.76,836.209C446.83,861.48 443.648,889.033 442.509,899.004C437.864,939.622 436.524,949.855 435.76,950.572C435.159,951.136 429.003,951.53 412.797,952.039C392.367,952.68 357.21,953.969 336.576,954.831C329.096,955.144 327.88,955.064 327.002,954.183C325.812,952.997 325.641,953.637 330.65,940.591C331.618,938.069 332.493,935.751 333.15,933.976C324.215,934.316 315.812,934.647 308.994,934.932C301.513,935.245 300.297,935.165 299.42,934.284C298.229,933.098 298.058,933.738 303.067,920.692C303.348,919.961 303.621,919.247 303.882,918.559C286.489,911.733 261.696,901.995 233.513,890.919C219.163,885.28 207.306,880.766 207.168,880.89C207.026,881.014 206.567,883.227 206.149,885.812C201.722,913.099 193.033,964.413 192.538,966.185C191.788,968.883 196.363,967.398 153.739,978.781C120.019,987.783 120.271,987.725 119.229,986.469C118.647,985.768 118.802,984.569 124.522,959.318ZM375.753,658.927C378.011,664.911 381.134,673.3 385.524,685.057C387.09,689.252 388.491,693.009 389.741,696.375C391.789,691.076 393.923,685.552 396.146,679.799C396.63,678.547 397.107,677.312 397.575,676.1C397.607,672.654 398.397,665.968 400.202,653.101C396.552,653.939 391.002,655.277 382.64,657.309C380.1,657.927 377.682,658.493 375.753,658.927ZM368.856,750.422C363.026,755.166 356.58,760.414 350.002,765.769C314.451,794.713 304.982,802.423 274.004,827.662C273.283,828.248 272.575,828.826 271.883,829.392C308.21,838.945 316.549,841.14 323.529,842.99C327.479,844.038 331.116,844.81 331.615,844.708C332.179,844.591 334.985,838.093 339.161,827.231C342.816,817.719 347.133,806.528 348.76,802.357C350.448,798.03 356.616,782.087 368.856,750.422Z"/>
            </g>
            <g transform="matrix(1,0,0,1,27.5826,19.899)">
                <path d="M341.333,619.882L342.53,619.924L343.626,620.285L344.592,620.864L345.724,621.991C346.007,622.354 346.343,622.862 346.726,623.596C347.979,625.993 350.404,632.315 356.564,648.797C362.062,643.101 364.077,641.237 364.945,640.651L366.122,640.022L367.248,639.728C368.189,632.707 369.559,623.189 371.437,610.297L371.437,610.294C371.924,606.964 373.564,595.24 375.083,584.243C376.65,572.907 378.118,563.157 378.294,562.543L378.888,561.186L379.986,559.779C380.96,558.792 382.677,557.636 385.091,556.512C395.584,551.622 422.107,545.431 443.668,543.497C489.663,539.38 540.827,548.422 578.318,567.245C592.48,574.355 604.111,582.357 613.195,591.009C644.271,608.388 661.455,630.504 664.812,654.382C668.186,678.391 657.635,704.543 632.037,729.977C608.199,753.664 570.365,775.868 538.198,786.226L557.357,793.967C564.809,796.98 571.408,799.789 573.977,801.018C574.745,801.385 575.262,801.675 575.51,801.837L576.303,802.477L577.013,803.327L577.586,804.442L577.879,805.714L577.828,807.284C577.732,807.89 577.44,808.871 576.754,810.558L584.939,813.866C592.391,816.879 598.991,819.688 601.56,820.917C602.327,821.284 602.845,821.574 603.093,821.736L603.886,822.376L604.774,823.508L605.353,824.958L605.488,826.381L605.242,827.978C604.702,830.048 602.046,835.701 593.333,853.618C589.936,860.604 586.259,868.226 585.164,870.553C584.066,872.893 579.733,881.863 575.538,890.478C571.253,899.283 568.873,904.19 566.927,906.193L565.769,907.2L564.261,908.035L562.432,908.473L560.595,908.371L558.947,907.831C558.353,907.558 557.719,907.179 557.047,906.674C555.429,905.458 553.351,903.214 550.346,900.132C548.705,898.448 544.16,893.815 537.921,887.463C537.471,887.771 537.035,887.998 536.617,888.16L535.135,888.543L533.608,888.563L532.228,888.268L531.063,887.786C529.175,886.828 526.667,884.236 522.763,880.233C518.946,876.317 499.44,856.462 479.415,836.109C471.677,828.247 463.857,820.294 456.876,813.191C455.962,821.152 454.769,831.478 454.163,836.719C451.233,861.987 448.051,889.538 446.912,899.507C443.167,932.258 441.54,945.407 440.65,949.727C440.404,950.921 440.154,951.676 439.967,952.107L438.793,953.803L437.322,954.752L435.435,955.262C432.967,955.679 426.257,956.05 412.936,956.469C392.519,957.109 357.382,958.397 336.762,959.259C331.81,959.467 329.346,959.47 327.958,959.268L325.759,958.643C325.759,958.643 323.887,957.328 323.873,957.322C323.474,956.924 323.162,956.602 322.917,956.263L322.241,955.017L321.918,953.714L321.936,952.065C322.124,950.633 323.264,947.464 326.513,939.002L326.643,938.661C320.232,938.909 314.264,939.148 309.179,939.36C304.227,939.568 301.763,939.571 300.375,939.369L298.177,938.744C298.177,938.744 296.304,937.429 296.291,937.423C295.892,937.025 295.579,936.703 295.334,936.364L294.658,935.118L294.335,933.815L294.353,932.166C294.526,930.851 295.501,928.073 298.173,921.079C281.083,914.371 257.934,905.279 231.892,895.044C223.636,891.799 215.326,888.643 210.476,886.814C206.065,913.989 197.524,964.297 196.835,967.258L196.842,967.213L196.476,968.945L195.773,970.252L194.47,971.542C194.044,971.854 193.448,972.21 192.566,972.585C189.582,973.853 180.871,976.122 154.883,983.063C130.632,989.537 123.462,991.368 120.989,991.49L119.181,991.377L117.756,990.895L116.804,990.29L115.82,989.3L115.16,988.298L114.803,987.389L114.588,986.149C114.563,985.782 114.561,985.301 114.622,984.651C114.802,982.745 115.76,978.07 118.587,965.486C101.08,970.135 95.429,971.51 93.316,971.595L91.52,971.462L90.115,970.967L89.19,970.366L88.238,969.401L87.609,968.461L87.138,967.17L86.989,965.844C86.984,965.443 87.011,964.903 87.107,964.157C87.504,961.074 89.434,952.436 95.428,926.054C102.636,894.347 105.737,880.696 107.553,872.667C110.837,858.148 119.622,819.496 125.549,793.484C128.551,780.305 132.365,763.519 134.025,756.178C141.741,722.007 151.959,677.004 153.655,669.699C154.466,666.196 157.078,654.739 159.453,644.238C167.856,607.115 170.615,595.235 171.727,591.751C172.093,590.601 172.423,589.96 172.642,589.61L173.306,588.759L174.204,588.036L174.208,588.034C174.674,587.747 175.576,587.283 177.776,586.995C180.383,586.654 186.431,586.216 200.785,585.279C217.978,584.159 237.96,582.809 254.763,581.626C269.182,580.615 277.46,579.932 281.89,580.138C284.271,580.249 285.884,580.66 286.935,581.166L288.66,582.353L289.424,583.254L290,584.308L290.455,586.231L290.249,588.531C289.879,590.105 288.754,592.34 287.388,595.352L287.386,595.355L284.65,601.363C297.656,600.443 305.285,599.843 309.472,600.037C311.853,600.148 313.466,600.559 314.518,601.065L316.242,602.252L317.007,603.153L317.583,604.207L318.038,606.13L317.832,608.43C317.461,610.005 316.336,612.239 314.97,615.251L314.969,615.254C313.345,618.826 304.855,637.452 296.099,656.642L289.852,670.332C323.599,634.451 333.037,624.483 336.029,621.816C336.718,621.202 337.206,620.846 337.554,620.627L339.178,619.917L340.357,619.767L340.934,619.853L340.857,619.853C340.798,619.853 340.742,619.854 340.69,619.859L341.056,619.872L341.859,619.992C341.698,619.945 341.526,619.906 341.333,619.882ZM340.934,619.853C341.078,619.856 341.21,619.866 341.333,619.882L341.056,619.872L340.934,619.853ZM124.522,959.318C118.802,984.569 118.647,985.768 119.229,986.469C120.271,987.725 120.019,987.783 153.739,978.781C196.363,967.398 191.788,968.883 192.538,966.185C193.033,964.413 201.722,913.099 206.149,885.812C206.567,883.227 207.026,881.014 207.168,880.89C207.306,880.766 219.163,885.28 233.513,890.919C261.696,901.995 286.489,911.733 303.882,918.559C303.621,919.247 303.348,919.961 303.067,920.692C298.058,933.738 298.229,933.098 299.42,934.284C300.297,935.165 301.513,935.245 308.994,934.932C315.812,934.647 324.215,934.316 333.15,933.976C332.493,935.751 331.618,938.069 330.65,940.591C325.641,953.637 325.812,952.997 327.002,954.183C327.88,955.064 329.096,955.144 336.576,954.831C357.21,953.969 392.367,952.68 412.797,952.039C429.003,951.53 435.159,951.136 435.76,950.572C436.524,949.855 437.864,939.622 442.509,899.004C443.648,889.033 446.83,861.48 449.76,836.209C450.397,830.701 451.682,819.576 452.611,811.484C452.948,808.555 453.285,805.82 453.587,803.521C461.974,812.058 472.347,822.608 482.574,833.001C502.606,853.361 522.118,873.222 525.937,877.139C532.881,884.261 534.333,886.719 537.773,880.987C545.705,889.062 551.598,895.068 553.519,897.038C563.472,907.246 562.143,907.872 571.553,888.538C575.736,879.947 580.057,871.003 581.153,868.669C582.252,866.332 585.94,858.688 589.347,851.68C601.411,826.872 601.626,826.384 600.752,825.51C600.315,825.073 592.452,821.684 583.279,817.975L570.847,812.952C573.838,806.558 573.719,806.161 573.169,805.611C572.733,805.174 564.87,801.785 555.696,798.076L524.445,785.449C558.137,777.72 602.372,753.206 628.913,726.833C677.654,678.405 670.322,627.78 610.542,594.604C601.679,586.07 590.262,578.201 576.329,571.206C539.504,552.717 489.243,543.867 444.063,547.911C417.798,550.267 383.955,559.003 382.546,563.794C382.378,564.362 380.995,573.838 379.473,584.849C377.952,595.861 376.31,607.601 375.822,610.936C373.324,628.091 371.725,639.254 370.846,646.503C369.534,643.648 369.279,644.184 368.44,644.184C367.429,644.184 368.885,642.228 354.883,656.965C341.745,621.756 342.681,624.285 340.857,624.285C339.183,624.285 344.277,618.918 274.659,692.958C279.835,681.61 285.666,668.83 292.067,654.802C300.822,635.615 309.311,616.991 310.934,613.42C315.725,602.859 318.018,603.467 282.656,605.946L277.527,606.306C280.469,599.851 282.616,595.139 283.352,593.521C288.142,582.96 290.436,583.568 255.074,586.047C238.263,587.23 218.274,588.581 201.074,589.702C180.823,591.023 177.314,591.326 176.535,591.806C175.858,592.225 174.205,599.141 163.775,645.216C161.398,655.726 158.785,667.193 157.973,670.698C156.276,678.004 146.062,722.995 138.348,757.155C136.688,764.498 132.873,781.287 129.87,794.468C123.943,820.478 115.159,859.127 111.876,873.644C110.059,881.675 106.958,895.326 99.75,927.037C91.279,964.317 90.981,965.769 91.647,966.57C92.671,967.805 92.445,967.882 124.522,959.318ZM368.856,750.422C356.616,782.087 350.448,798.03 348.76,802.357C347.133,806.528 342.816,817.719 339.161,827.231C334.985,838.093 332.179,844.591 331.615,844.708C331.116,844.81 327.479,844.038 323.529,842.99C316.549,841.14 308.21,838.945 271.883,829.392L274.004,827.662C304.982,802.423 314.451,794.713 350.002,765.769L368.856,750.422ZM281.438,827.322C310.708,835.02 318.259,837.008 324.665,838.705L324.666,838.706C326.196,839.112 327.875,839.495 329.203,839.783C330.411,837.034 332.65,831.817 335.024,825.641C338.682,816.121 343.003,804.921 344.631,800.746C346.015,797.199 350.412,785.839 358.699,764.403L352.8,769.206C319.086,796.655 308.829,805.007 281.438,827.322ZM375.753,658.927C377.682,658.493 380.1,657.927 382.64,657.309C391.002,655.277 396.552,653.939 400.202,653.101C398.397,665.968 397.607,672.654 397.575,676.1L396.146,679.799L389.741,696.375C388.491,693.009 387.09,689.252 385.524,685.057C381.134,673.3 378.011,664.911 375.753,658.927ZM381.681,662.099C383.731,667.57 386.337,674.565 389.676,683.507L389.816,683.884L392.012,678.202L393.163,675.225C393.272,672.198 393.818,667.178 394.93,658.897C391.912,659.62 388.212,660.516 383.687,661.616C383.007,661.781 382.336,661.943 381.681,662.099ZM877.073,650.362C876.118,650.632 875.177,650.884 874.379,651.08C872.479,651.55 869.387,652.462 867.512,653.104C862.164,654.937 858.884,654.132 857.099,652.492L855.83,650.898L854.918,648.414C854.62,646.954 854.587,644.912 854.87,642.204L854.87,642.201C855.08,640.207 855.54,635.415 855.891,631.554L855.891,631.549C856.249,627.653 856.654,623.371 856.794,622.017C856.929,620.683 857.328,616.603 857.672,612.948L857.673,612.944C858.023,609.267 858.574,603.658 858.898,600.479C859.217,597.327 859.763,591.36 860.107,587.217C860.452,583.005 860.996,577.216 861.312,574.359C861.62,571.526 862.343,564.582 862.913,558.923C863.485,553.25 864.331,548.341 864.766,547.216L865.43,545.996L866.535,544.936C868.093,543.881 871.683,542.446 876.553,541.025C886.657,538.076 902.779,534.708 915.545,533.131C964.645,527.072 1013.41,542.81 1042.96,571.094C1064.02,582.522 1080.82,598.463 1090.44,617.375C1139.42,560.995 1222.33,526.06 1330.14,518.05C1336.51,517.576 1347.04,517.62 1351.36,518.018C1352.77,518.147 1353.76,518.381 1354.22,518.556L1355.94,519.649L1356.96,520.865L1357.54,522.077L1357.85,523.854L1357.56,526.019C1357.12,527.739 1355.7,531.113 1352.24,538.382C1354.06,538.23 1355.89,538.085 1357.73,537.949C1364.09,537.475 1374.62,537.519 1378.94,537.917C1380.35,538.046 1381.34,538.28 1381.81,538.455L1383.52,539.548L1384.79,541.193L1385.32,542.731L1385.43,544.064L1385.19,545.731C1384.45,548.837 1380.15,557.773 1365.07,588.5C1360.33,598.164 1354.74,609.618 1352.65,613.952L1352.65,613.956C1350.55,618.295 1343.75,632.203 1337.53,644.857C1332.07,655.973 1327.49,665.45 1326.51,667.636L1326.47,667.913L1325.8,669.415L1324.84,670.576L1323.81,671.39C1322.12,672.503 1318.23,673.634 1310.63,674.74C1295.14,676.989 1285.8,678.354 1265.57,681.327C1255.22,682.85 1244.86,684.365 1242.56,684.697C1239.71,685.107 1237.77,685.167 1236.47,684.98L1234.64,684.5L1233.37,683.813L1231.99,682.485L1231.14,680.946L1231.14,680.944L1230.77,679.206L1231.08,676.806C1231.53,675.149 1232.95,671.381 1236.8,661.603C1231.4,662.398 1226.08,663.178 1221.99,663.776C1221.65,664.003 1221.32,664.225 1221.01,664.44C1207.03,673.946 1197.5,682.447 1192.52,690.037C1190.5,693.118 1189.26,695.968 1188.97,698.631C1198.86,701.102 1211.17,702.96 1225.89,704.203C1252.53,706.456 1270.87,709.876 1281.83,714.454C1292.17,718.779 1299.51,725.096 1303.91,732.343C1305.91,732.986 1307.74,733.656 1309.41,734.353C1327.14,741.765 1336.05,754.944 1336.5,768.948C1336.95,782.687 1329.13,797.607 1312.34,808.907C1302.83,815.306 1280.66,825.404 1240.49,841.502C1208.09,854.478 1182.71,864.583 1166.74,870.858C1146.33,878.88 1114.34,891.457 1100.92,896.746C1095.91,898.719 1076.8,906.233 1058.44,913.445C1003,935.227 990.724,940.058 970.478,948.048C950.904,955.773 944.631,958.171 942.193,958.667C941.583,958.791 941.094,958.841 940.691,958.853L939.534,958.785L938.363,958.479L937.228,957.909L937.226,957.908L935.852,956.773L934.737,955.07C934.374,954.262 934.076,953.171 934.026,951.564C933.945,948.943 934.603,943.872 936.258,933.428L936.708,930.587C921.941,936.395 916.77,938.329 914.611,938.768C914.001,938.892 913.512,938.942 913.108,938.954L911.951,938.886L910.78,938.58L909.645,938.01L909.643,938.009L908.521,937.134L907.496,935.83L906.847,934.354L906.541,932.922C906.42,932 906.417,930.687 906.57,928.755C886.576,936.404 855.542,948.316 848.326,951.13C844.236,952.725 841.461,953.566 839.755,953.637L838.301,953.563L837.2,953.295L835.318,952.23L833.956,950.532L833.514,949.475L833.217,948.034C833.033,946.349 833.463,943.497 834.462,939.246C835.689,934.024 836.834,929.191 837.932,924.6C829.966,927.663 823.551,930.136 820.743,931.231C816.653,932.826 813.879,933.667 812.172,933.738L810.718,933.664L809.617,933.396L807.735,932.331L806.374,930.633L805.931,929.576L805.634,928.135C805.451,926.45 805.881,923.598 806.879,919.347C815.312,883.478 819.811,865.965 832.648,819.082C848.639,760.674 854.539,738.489 862.956,705.108C867.422,687.397 872.873,666.23 875.071,658.075C875.88,655.071 876.553,652.447 877.073,650.362ZM844.218,917.437C842.515,924.445 840.754,931.846 838.776,940.259C836.403,950.368 836.93,950.816 846.715,947.001C854.831,943.836 893.053,929.171 911.855,921.991C910.435,931.655 910.604,933.383 911.993,934.252C913.263,935.045 914.021,934.779 941.268,924.026L942.297,923.62C941.73,927.208 941.189,930.628 940.635,934.122C938.003,950.736 937.876,953.088 939.576,954.151C940.846,954.944 941.603,954.678 968.851,943.925C989.098,935.935 1001.38,931.104 1056.82,909.32C1075.18,902.109 1094.29,894.596 1099.29,892.622C1112.72,887.333 1144.71,874.756 1165.12,866.733C1181.08,860.461 1206.46,850.359 1238.84,837.388C1278.54,821.48 1300.47,811.553 1309.87,805.23C1340.37,784.703 1339.3,751.652 1307.7,738.442C1305.7,737.606 1303.44,736.812 1300.93,736.06C1297.09,728.914 1290.13,722.731 1280.12,718.543C1269.43,714.076 1251.51,710.818 1225.51,708.619C1208.87,707.213 1195.24,705.02 1184.64,702.075C1182.93,691.193 1194.17,677.333 1218.51,660.776C1219.1,660.38 1219.71,659.964 1220.37,659.534C1224.84,658.879 1231.09,657.963 1237.34,657.044L1243.73,656.105C1235.33,677.36 1234.93,678.462 1235.27,679.353C1235.8,680.732 1237.4,680.962 1241.93,680.31C1244.23,679.979 1254.58,678.464 1264.93,676.943C1285.16,673.969 1294.5,672.603 1309.99,670.354C1319.33,668.996 1322.26,668.031 1322.26,666.32C1322.26,666.084 1327.34,655.545 1333.56,642.902C1339.77,630.26 1346.56,616.365 1348.66,612.029C1350.75,607.69 1356.35,596.223 1361.1,586.547C1382.19,543.563 1381.91,544.207 1380.38,542.682C1379.7,541.994 1365.74,541.797 1358.06,542.369C1353.61,542.699 1349.21,543.075 1344.85,543.497C1354.42,523.845 1353.98,523.96 1352.8,522.783C1352.12,522.095 1338.15,521.898 1330.47,522.469C1220.71,530.625 1136.99,566.813 1089.33,625.591C1080.77,604.535 1063.06,586.923 1040.33,574.707C1011.66,546.97 964.021,531.614 916.088,537.529C898.178,539.743 873.541,545.538 869.019,548.607C868.659,548.851 867.894,553.692 867.323,559.367C866.751,565.039 866.027,571.999 865.718,574.839C865.405,577.674 864.866,583.408 864.524,587.58C864.178,591.751 863.628,597.754 863.308,600.925C862.984,604.096 862.434,609.694 862.085,613.364C861.739,617.033 861.338,621.129 861.204,622.465C861.065,623.801 860.661,628.071 860.304,631.955C859.951,635.839 859.489,640.659 859.278,642.665C858.539,649.734 859.937,651.015 866.074,648.911C868.055,648.234 871.313,647.273 873.315,646.778C875.317,646.287 878.262,645.424 879.86,644.863C883.792,643.484 883.821,642.632 879.35,659.228C877.155,667.371 871.713,688.507 867.254,706.191C858.83,739.598 852.926,761.8 836.923,820.252C824.105,867.063 819.613,884.547 811.193,920.36C808.82,930.469 809.348,930.917 819.133,927.102C822.823,925.663 832.736,921.847 844.218,917.437ZM1067.85,721.145C1073.7,727.326 1081.84,732.924 1092.34,738.076C1092.62,738.211 1092.89,738.345 1093.17,738.477C1099.1,745.687 1107.99,752.119 1119.92,757.976C1129.44,762.649 1139.76,765.929 1150.46,767.73C1128.55,772.525 1122.43,773.85 1101.44,778.342C1076.25,783.733 1068.01,785.593 1030.44,794.384C1014.77,798.05 997.707,802.022 992.534,803.208C976.906,806.799 953.802,811.45 940.867,813.724C941.022,812.573 941.147,811.642 941.228,811.029C943.609,793.082 945.586,778.572 945.866,776.981L946.205,775.089L951.457,774.666C999.022,770.841 1041.51,750.613 1067.85,721.145ZM946.065,808.277C959.282,805.817 978.164,801.962 991.543,798.889C996.713,797.703 1013.76,793.733 1029.43,790.069C1067.04,781.268 1075.29,779.405 1100.51,774.008C1114.23,771.074 1121.59,769.492 1131.15,767.41C1126.63,765.863 1122.22,764.042 1117.97,761.954C1105.78,755.972 1096.64,749.366 1090.38,742.051C1081.23,737.559 1073.8,732.719 1068.02,727.492C1040.83,755.878 998.752,775.309 951.813,779.084L950.006,779.229C949.419,783.283 947.894,794.524 946.065,808.277Z" style="fill:white;"/>
            </g>
            <path d="M942.839,949.549C943.089,946.855 943.641,941.775 944.75,934.774C947.219,919.21 949.436,905.109 954.759,871.134C957.857,851.347 959.069,842.774 960,839.105C966.828,838.426 1000.38,831.916 1021.05,827.169C1026.23,825.981 1043.29,822.008 1058.97,818.341C1096.5,809.559 1104.73,807.701 1129.89,802.315C1152.14,797.556 1157.69,796.35 1183,790.808C1215.06,783.786 1235.12,777.818 1241.88,773.631C1243.44,772.662 1244.49,771.687 1245.12,770.835L1246.09,768.977L1246.34,767.327L1246.2,766.226L1245.85,765.277L1245.29,764.428L1244.46,763.637C1243.8,763.138 1242.48,762.515 1240.52,762.135C1234.07,760.881 1216.97,760.761 1207.24,762.314L1207.24,762.314C1202.86,763.014 1185.9,764.481 1176.12,765.016C1157.13,766.054 1138.19,762.305 1121.76,754.235C1105.65,746.326 1095.31,737.474 1090.83,726.749C1086.42,716.204 1087.87,704.02 1094.43,689.593C1131.99,607.027 1226.12,556.349 1358.37,546.524C1362.89,546.187 1371,546.344 1375.6,546.474C1373.37,551.406 1367.85,563.321 1357.36,584.711C1352.6,594.395 1347,605.871 1344.9,610.218C1342.81,614.55 1336.02,628.433 1329.82,641.065C1324.19,652.52 1319.48,662.26 1318.6,664.267L1318.57,664.354C1317.29,664.699 1313.77,665.593 1309.39,666.23C1293.9,668.48 1284.56,669.846 1264.32,672.82C1253.98,674.341 1243.64,675.854 1241.34,676.186C1241.03,676.23 1240.71,676.268 1240.4,676.3C1241.57,673.154 1243.84,667.175 1247.84,657.041C1250.29,650.852 1252.34,645.571 1252.72,644.461L1253.01,642.888L1252.87,641.799L1252.35,640.617L1251.5,639.658L1250.6,639.081L1249.65,638.764L1248.72,638.675L1246.71,639.124C1243.22,640.525 1225.27,651.14 1216.17,657.331C1198.85,669.113 1187.99,679.717 1183.29,688.797C1179.57,695.991 1179.39,702.461 1182.3,708.148C1184.98,713.392 1190.55,718.111 1199.31,721.905C1211.04,726.99 1228.86,730.651 1252.74,732.67C1278.14,734.818 1295.65,737.923 1306.09,742.286C1320.08,748.134 1327.55,758.18 1327.91,769.227C1328.27,780.524 1321.35,792.483 1307.54,801.773C1298.25,808.025 1276.55,817.791 1237.29,833.521C1204.92,846.486 1179.55,856.585 1163.6,862.855C1143.18,870.878 1111.19,883.456 1097.77,888.746C1092.76,890.719 1073.65,898.232 1055.3,905.442C999.849,927.227 987.57,932.058 967.321,940.049C953.107,945.659 946.295,948.371 942.839,949.549ZM1318.12,666.091L1318.09,666.32C1318.09,666.249 1318.1,666.172 1318.12,666.091ZM842.225,944.18C842.388,943.271 842.592,942.236 842.832,941.212C851.24,905.452 855.726,887.993 868.524,841.252C884.538,782.758 890.447,760.54 898.877,727.109C903.33,709.449 908.764,688.343 910.956,680.211C913.338,671.367 914.439,667.152 914.503,665.352L914.367,663.705L913.774,662.202L912.626,660.908L911.106,660.128L909.908,659.928L908.653,660.02C908.025,660.134 907.152,660.449 906.063,660.831C904.56,661.358 901.788,662.168 899.904,662.631L899.897,662.632C897.799,663.151 894.384,664.158 892.309,664.868L892.306,664.869C891.86,665.022 891.36,665.157 890.907,665.266C890.905,664.589 890.925,663.761 891.005,662.997C891.217,660.983 891.681,656.139 892.036,652.234C892.391,648.37 892.793,644.122 892.931,642.793L892.932,642.782C893.067,641.442 893.468,637.336 893.815,633.657C894.164,629.996 894.712,624.411 895.035,621.248L895.036,621.243C895.358,618.054 895.911,612.018 896.259,607.823L896.259,607.819C896.598,603.686 897.132,598.005 897.442,595.195L897.442,595.189C897.752,592.344 898.479,585.368 899.051,579.684C899.361,576.613 899.913,573.046 900.197,571.296C901.643,570.665 903.851,569.964 906.545,569.178C916.297,566.332 931.86,563.086 944.182,561.564C1006.46,553.878 1068.44,582.825 1086.01,628.504C1092.19,644.579 1092.16,666.678 1085.97,683.62C1068.79,730.677 1014.5,765.417 951.124,770.513L945.871,770.935C943.984,771.087 942.436,772.492 942.103,774.355L941.764,776.248L941.763,776.258C941.481,777.857 939.491,792.443 937.098,810.482C936.789,812.816 935.843,819.767 934.996,825.933C933.394,837.595 930.332,860.139 926.182,890.863C924.374,904.239 923.3,910.968 922.915,913.278C922.257,913.561 921.408,913.914 920.701,914.173L920.695,914.175C916.567,915.691 855.704,939.023 845.202,943.119C844.178,943.518 843.137,943.881 842.225,944.18ZM1011.43,676.46C1008.54,675.234 1004.54,674.097 1002.55,673.887L999.42,673.553C997.404,673.338 995.526,674.605 994.971,676.554L994.213,679.214C993.026,683.385 984.721,708.472 983.531,711.482C980.046,720.296 978.37,724.842 978.134,725.871L978.132,725.881C978.007,726.432 977.741,727.435 977.544,728.11L977.297,729.37L977.332,730.619L977.552,731.494L978.035,732.468L978.723,733.288L979.579,733.92L980.63,734.356L981.939,734.532L983.629,734.277C984.121,734.135 984.744,733.897 985.499,733.53C987.49,732.563 990.914,730.427 996.323,726.814C1010.54,717.315 1019.24,707.563 1022.25,699.372C1024.08,694.371 1023.98,689.795 1022.14,685.867C1020.37,682.077 1016.9,678.781 1011.43,676.46ZM359.443,868.691C357.74,873.632 356.152,878.274 355.254,880.977C351.967,890.866 346.67,908.106 346.627,908.279C346.592,908.419 346.676,908.622 346.812,908.671C347.138,908.788 347.137,908.652 347.268,908.332C356.348,886.241 359.009,879.204 366.278,859.496C367.5,856.602 368.973,852.943 370.633,848.625C374.285,839.12 378.599,827.938 380.225,823.77C382.879,816.965 396.615,781.433 427.615,701.2C433.34,686.383 438.146,673.952 438.298,673.574L438.302,673.565L438.574,672.557L438.601,671.547L438.384,670.539L437.893,669.552L437.288,668.837L436.356,668.163L435.239,667.744L434.212,667.619C432.906,667.588 427.43,668.738 409.239,673.16C406.624,673.795 403.801,674.431 401.747,674.883C401.972,669.514 403.716,657.611 407.528,631.435C408.016,628.099 409.66,616.345 411.184,605.319C412.463,596.06 413.611,587.915 414.001,585.541C414.923,585.028 417.75,583.502 420.487,582.514C432.335,578.241 453.998,573.576 472.018,571.961C516.43,567.985 565.843,576.653 602.042,594.828C633.488,610.616 651.785,630.817 655.927,653.304C660.054,675.704 650.007,700.001 625.977,723.877C597.356,752.316 547.767,778.614 514.041,783.132L508.522,783.871C506.647,784.122 505.176,785.605 504.941,787.482C504.705,789.359 505.764,791.159 507.519,791.866L511.409,793.432C513.545,794.291 526.484,799.521 540.16,805.049C553.844,810.575 572.543,818.132 581.717,821.838C587.148,824.034 592.853,826.507 595.994,827.886C594.543,831.098 591.294,838.148 585.6,849.858C582.183,856.886 578.485,864.552 577.382,866.896L577.381,866.898C576.288,869.226 571.979,878.146 567.807,886.714C564.769,892.956 562.999,897.006 561.527,899.202C561.292,899.001 561.048,898.782 560.83,898.571C559.662,897.435 558.263,895.934 556.503,894.129C552.683,890.211 533.165,870.343 513.126,849.977C493.098,829.625 472.512,808.668 467.377,803.416C462.598,798.526 458.446,794.448 457.51,793.679L456.434,792.99L454.682,792.607L453.693,792.726L452.572,793.179L451.223,794.437L450.578,795.869C450.252,797.064 449.346,803.41 448.471,811.007L448.471,811.009C447.543,819.1 446.258,830.223 445.621,835.73C442.691,861.003 439.509,888.559 438.369,898.531C435.102,927.101 433.033,941.982 432.32,946.899C429.263,947.126 422.542,947.564 412.666,947.875C392.225,948.516 357.047,949.805 336.402,950.668C334.293,950.757 332.553,950.78 331.304,950.779C331.971,948.914 333.041,945.989 334.54,942.084C336.498,936.983 338.079,932.682 338.326,931.838L338.524,930.462L338.397,929.506L337.826,928.218L336.709,927.086C336.64,927.04 336.571,926.995 336.5,926.952C336.42,926.904 333.225,925.583 329.37,924.077C320.209,920.496 282.411,905.66 235.037,887.041C221.999,881.918 210.999,877.72 208.827,877.022L207.902,876.782L206.825,876.736L205.428,877.104L204.411,877.77L203.659,878.639L203.227,879.492C203.014,880.046 202.478,882.414 202.036,885.145C197.721,911.741 189.356,961.295 188.563,964.903C188.196,965.041 187.756,965.199 187.311,965.341C182.936,966.738 173.434,969.208 152.664,974.755C137.442,978.819 128.307,981.073 123.87,982.132C124.855,977.327 127.04,967.027 131.396,947.859C138.604,916.146 141.706,902.494 143.522,894.463C146.806,879.946 155.589,841.301 161.515,815.293C164.519,802.109 168.335,785.316 169.995,777.973C177.706,743.822 187.918,698.844 189.614,691.54L189.615,691.537C190.427,688.029 193.043,676.553 195.422,666.035C202.776,633.545 206.176,619.685 207.255,615.387C209.964,615.132 216.466,614.572 228.928,613.759C246.134,612.637 266.131,611.286 282.948,610.103C295.178,609.245 304.311,608.958 308.407,608.864C308.013,609.754 307.56,610.772 307.14,611.697C305.515,615.272 297.028,633.891 288.276,653.073C266.524,700.741 251.358,734.008 246.086,745.599L234.936,770.124C231.515,777.652 228.748,784.035 228.316,785.325L228.064,786.437L228.154,787.826L228.565,788.893L229.267,789.826L230.516,790.685L232.16,791.046L233.357,790.887L234.6,790.297C234.701,790.228 235.213,789.807 236.028,788.976C240.901,784.008 266.345,757.115 296.671,724.864C345.035,673.433 362.324,655.413 367.63,649.933C369.485,654.569 373.773,665.496 381.62,686.514C390.519,710.347 394.011,719.786 395.011,723.564C393.884,724.573 392.047,726.194 390.455,727.482C387.452,729.915 368.063,745.691 347.371,762.538C311.82,791.482 302.351,799.193 271.372,824.431C264.901,829.701 259.393,834.275 258.243,835.317L257.295,836.402L257.272,836.44L256.866,837.318L256.671,838.293L256.88,839.965L257.738,841.424L258.607,842.16L259.673,842.679C261.782,843.482 273.588,846.795 287.837,850.541C333.207,862.472 342.434,864.9 350.045,866.916C353.417,867.811 356.58,868.505 357.981,868.696L359.443,868.691ZM533.323,704.415C528.016,702.401 524.491,701.738 523.032,701.913L521.899,702.168L520.973,702.595L520.141,703.224L519.401,704.138C519.141,704.623 517.487,708.754 515.742,713.517L515.741,713.52C512.369,722.739 506.271,738.151 501.813,748.731C500.21,752.538 498.884,755.926 498.631,756.784L498.421,758.139L498.509,759.028L498.84,760.038L499.467,761.017L500.297,761.775L501.12,762.232L502.181,762.539L503.888,762.528C505.237,762.311 508.317,760.926 512.084,758.653C519.603,754.116 530.658,746.144 535.583,741.2C541.215,735.547 544.689,730.373 546.189,725.862C547.41,722.191 547.422,718.842 546.402,715.838C544.833,711.217 540.637,707.189 533.323,704.415Z" style="fill:white;"/>
        </g>
        <g transform="matrix(1.18614,0,0,1.18614,-160.089,-88.9348)">
            <g transform="matrix(0.4862,0,0,0.4862,386.19,381.896)">
                <path d="M928.983,270.267C932.313,269.23 948.756,269.262 950.781,270.31C951.676,270.777 953.78,271.337 955.452,271.558C959.638,272.114 968.301,275.195 968.301,276.132C968.301,276.385 968.786,276.596 969.385,276.596C970.694,276.596 975.221,279.776 977.421,282.24C981.967,287.334 984.944,291.135 985.272,292.265C985.475,292.96 986.527,295.403 987.607,297.688C991.964,306.915 990.616,308.409 983.614,302.112C982.035,300.694 973.075,296.333 970.084,295.527C968.611,295.132 967.128,294.6 966.79,294.347C961.691,290.557 935.508,290.172 924.726,293.727C918.626,295.738 918.64,295.745 918.113,290.857C917.885,288.732 917.464,286.058 917.179,284.914C916.027,280.286 915.945,277.056 916.958,275.94C918.22,274.542 923.4,271.84 924.812,271.84C925.418,271.84 926.113,271.64 926.359,271.394C926.602,271.152 927.782,270.642 928.983,270.267ZM724.971,271.316C728.347,270.738 741.753,271.159 744.58,271.936C752.231,274.032 758.428,277.052 761.041,279.961C762.139,281.177 760.745,289.092 758.178,296.23C756.952,299.638 756.823,299.67 752.666,297.663C750.944,296.836 748.687,295.998 747.65,295.809C746.616,295.62 745.233,295.139 744.58,294.743C743.514,294.098 739.785,293.385 731.802,292.294C722.422,291.01 708.956,292.254 701.619,295.082C700.87,295.374 699.725,295.609 699.076,295.609C697.682,295.609 691.532,298.629 688.017,301.039C686.445,302.12 685.386,302.515 685.14,302.116C684.716,301.432 687.111,295.014 687.789,295.014C688.021,295.014 688.669,294.041 689.24,292.85C694.117,282.621 705.751,274.403 718.136,272.432C720.589,272.043 723.663,271.54 724.971,271.316ZM713.937,316.413C729.581,313.764 743.25,320.449 754.631,336.314C757.03,339.658 764.243,354.105 764.749,356.579C764.877,357.2 765.793,360.647 766.785,364.241C772.664,385.544 771.12,414.811 763.202,432.217C760.374,438.431 757.939,443.094 756.67,444.731C752.816,449.701 751.379,451.351 748.117,454.56C738.223,464.293 720.429,467.491 710.799,461.266C709.648,460.521 707.084,458.995 705.105,457.879C695.561,452.499 684.626,436.292 680.013,420.69C675.31,404.789 673.742,381.836 676.476,368.994C676.826,367.361 677.521,364.013 678.024,361.56C682.541,339.48 698.859,318.966 713.937,316.413ZM866.227,448.588C868.687,445.458 876.859,446.813 884.724,451.654C893.751,457.209 898.365,466.479 893.42,469.124C891.181,470.322 886.892,467.994 886.892,465.58C886.892,462.988 883.686,460.518 883.023,462.603C882.813,463.267 882.043,464.4 881.312,465.128C880.581,465.851 878.335,468.201 876.317,470.347L872.652,474.248L876.196,479.26C885.323,492.167 884.745,495.112 871.044,505.558L868.566,507.447L868.309,516.657C868.049,526.08 866.316,537.784 864.662,541.318C864.202,542.298 863.104,545.371 862.22,548.149C861.336,550.926 859.821,554.937 858.851,557.062C856.312,562.62 852.369,570.382 851.906,570.731C851.685,570.892 850.091,572.956 848.362,575.316C835.937,592.248 816.652,599.171 802.405,591.813C786.269,583.477 780.949,567.565 782.946,533.592C783.31,527.381 783.738,519.716 783.891,516.557L784.172,510.813L780.714,510.104C767.145,507.316 762.891,501.486 767.861,492.488C768.974,490.466 770.646,486.641 771.576,483.984C772.507,481.328 773.43,478.989 773.63,478.79C775.181,477.239 773.815,474.633 769.266,470.451L764.567,466.133L762.891,469.256C761.176,472.451 760.146,473.068 757.583,472.422C751.668,470.939 757.907,458.699 767.056,453.84C771.912,451.262 779.42,453.138 779.816,457.027C780.09,459.755 778.315,460.974 774.2,460.878L770.813,460.803L772.026,462.136C772.692,462.874 773.74,464.097 774.357,464.86C775.883,466.746 784.251,473.032 787.278,474.568C788.633,475.253 789.877,476.03 790.048,476.294C790.476,476.954 799.464,480.761 801.806,481.275C802.858,481.507 804.448,482.056 805.343,482.498C809.429,484.516 822.046,485.082 832.225,483.706C848.643,481.489 867.112,471.035 874.577,459.737L876.82,456.343L875.173,455.655C874.263,455.277 872.146,454.792 870.463,454.582C865.939,454.008 864.056,451.348 866.227,448.588ZM943.045,309.953C966.372,305.446 988.823,326.453 993.893,357.524C995.273,365.981 995.925,380.299 995.101,384.11C994.781,385.601 994.231,389.43 993.886,392.621C993.54,395.812 993.012,398.888 992.716,399.455C992.417,400.022 991.582,402.896 990.866,405.837C990.146,408.778 988.937,412.654 988.178,414.451C987.418,416.248 985.839,419.988 984.666,422.758C983.493,425.532 981.913,428.74 981.154,429.888L976.861,436.424C961.552,459.744 932.809,471.142 915.713,460.671C903.271,453.048 891.494,438.138 889.733,427.778C889.573,426.822 888.87,423.899 888.175,421.285C886.756,415.959 886.496,413.791 885.979,403.163C885.437,392 887.879,371.856 890.35,367.129C890.667,366.523 891.769,363.439 892.796,360.276C895.163,353.014 901.691,340.528 905.927,335.173C912.366,327.03 915.988,323.051 918.209,321.693C919.45,320.93 921.65,319.411 923.094,318.313C928.106,314.513 935.515,311.407 943.045,309.953ZM592.421,755.762C594.644,734.592 606.618,670.869 608.725,661.05C609.67,656.636 611.014,650.889 611.709,648.276C612.405,645.659 614.173,638.172 615.642,631.637C618.79,617.593 622.173,603.831 623.083,601.332C623.443,600.351 624.498,596.562 625.432,592.911C626.366,589.26 627.379,585.784 627.685,585.188C627.992,584.589 628.844,581.694 629.579,578.753C630.313,575.812 631.115,573.138 631.361,572.81C631.611,572.482 631.996,571.412 632.22,570.432C632.773,568.018 637.24,553.711 638.253,551.122C638.698,549.978 639.511,547.439 640.06,545.482C640.606,543.525 641.28,541.521 641.554,541.025C642.246,539.781 646.235,527.502 646.239,526.6C646.243,526.197 646.646,525.096 647.138,524.151C647.63,523.21 648.41,520.935 648.874,519.102C649.983,514.714 651.427,510.382 652.764,507.447C653.359,506.139 654.033,504.132 654.257,502.991C654.486,501.846 655.006,500.374 655.413,499.722C655.823,499.069 656.607,497.169 657.156,495.504C657.705,493.839 658.682,491.443 659.327,490.181C659.973,488.915 660.497,487.464 660.497,486.954C660.497,486.441 660.86,485.496 661.302,484.851C661.748,484.205 662.582,482.205 663.16,480.408C663.737,478.612 664.443,476.886 664.729,476.576C665.017,476.266 665.253,475.652 665.253,475.214C665.253,474.511 668.023,467.969 669.342,465.555C669.998,464.354 671.791,464.154 673.906,465.049C674.865,465.456 675.916,465.809 676.244,465.834C676.572,465.862 677.107,466.04 677.432,466.233C677.76,466.422 680.034,467.056 682.484,467.634C684.937,468.215 687.628,469.035 688.466,469.459C689.308,469.884 692.203,470.793 694.905,471.481C697.604,472.169 700.257,472.978 700.802,473.278C701.348,473.577 705.006,474.679 708.927,475.727C712.849,476.775 716.19,477.82 716.354,478.048C716.518,478.28 719.192,479.196 722.297,480.091C725.399,480.982 732.351,483.139 737.745,484.883C743.136,486.626 749.497,488.641 751.878,489.364C757.526,491.072 757.7,491.34 761.701,504.271C768.485,526.201 770.418,533.973 769.58,535.97C769.166,536.95 768.114,540.023 767.237,542.801C766.357,545.578 763.929,553.201 761.84,559.736C732.412,651.745 719.719,721.057 722.885,772.465C724.454,797.932 729.175,811.79 740.23,823.381C741.835,825.064 743.375,826.853 743.657,827.356C745.257,830.216 763.704,814.732 775.776,800.392C800.537,770.986 832.193,708.69 850.062,654.216C851.136,650.95 852.202,648.14 852.43,647.976C853.713,647.067 865.097,608.619 870.527,586.86C871.696,582.172 872.887,577.894 873.176,577.355C874.499,574.863 881.358,540.558 884.528,520.578C885.198,516.361 885.883,512.688 886.05,512.417C886.467,511.74 889.248,490.156 889.259,487.5C889.277,483.557 890.885,479.435 892.689,478.697C894.635,477.906 916.455,474.119 924.031,473.26C926.973,472.925 934.37,471.855 940.467,470.878C946.567,469.905 952.849,469.017 954.432,468.907C958.322,468.643 977.061,465.655 979.336,464.939C984.242,463.395 984.58,463.823 992.52,481.599C996.096,489.603 1002.84,504.677 1007.49,515.091C1016.81,535.913 1016.72,535.556 1015.46,544.883C1006.16,613.668 983.846,693.993 955.006,762.529L949.933,774.579C949.933,774.579 894.094,899.929 821.708,959.532C765.001,1006.22 694.555,1017.31 646.567,975.925C646.277,975.675 636.557,967.541 629.224,957.617C625.382,952.418 618.309,942.219 618.309,941.866C618.309,941.687 617.417,940.133 616.326,938.411C613.681,934.232 609.581,926.05 606.126,918.046C604.572,914.452 603.106,911.244 602.864,910.916C602.297,910.149 599.726,902.149 598.094,896.063C597.391,893.446 596.446,890.187 595.994,888.814C595.541,887.445 594.732,883.702 594.19,880.497C593.651,877.291 593.006,874.404 592.76,874.076C592.51,873.748 592.125,871.608 591.901,869.323C591.68,867.034 591.131,863.023 590.681,860.41C590.232,857.793 589.697,852.848 589.487,849.415C589.28,845.985 588.863,841.375 588.56,839.172C588.136,836.095 587.868,817.566 588.075,805.74C588.093,804.653 588.977,790.88 589.483,783.756C589.926,777.539 591.006,767.449 591.523,764.675C591.819,763.089 591.958,761.62 591.829,761.416C591.705,761.21 592.115,758.683 592.421,755.762Z" style="fill:rgb(254,254,254);"/>
                <path d="M923.218,264.339L923.329,264.261C924.113,263.863 925.394,263.337 926.697,262.93C929.403,262.088 939.555,261.616 946.215,261.968C950.018,262.17 952.955,262.879 954.118,263.392C954.118,263.392 955.656,263.833 956.459,263.939L956.464,263.94C961.043,264.549 969.589,267.745 972.371,269.463L973.782,269.992C976.351,271.2 980.773,274.455 983.154,277.121L983.155,277.123C988.903,283.565 992.238,288.694 992.648,290.109C992.81,290.662 993.695,292.585 994.555,294.404L994.556,294.407C997.158,299.916 997.888,303.738 997.769,305.548L997.09,308.478L995.576,310.87L993.712,312.409L991.584,313.32L989.293,313.618L986.815,313.264C985.202,312.812 982.328,311.262 978.67,308.001C978.386,307.85 970.269,303.536 968.089,302.949C965.581,302.275 963.154,301.131 962.351,300.615L962.494,300.708C962.494,300.708 959.096,299.796 956.597,299.503C947.494,298.434 933.917,298.789 927.132,301.025C924.21,301.989 922.283,302.506 921.02,302.627L918.478,302.565L916.271,301.929L913.612,300.135L911.965,297.917C911.35,296.759 910.809,294.801 910.472,291.682L910.472,291.677C910.284,289.925 909.957,287.715 909.722,286.771C908.589,282.218 908.394,278.606 908.746,276.323L909.672,273.191L911.266,270.776C912.597,269.314 916.633,266.696 919.738,265.383C920.87,264.904 921.896,264.576 922.666,264.403L923.218,264.339ZM928.983,270.267C927.782,270.642 926.602,271.152 926.359,271.394C926.113,271.64 925.418,271.84 924.812,271.84C923.4,271.84 918.22,274.542 916.958,275.94C915.945,277.056 916.027,280.286 917.179,284.914C917.464,286.058 917.885,288.732 918.113,290.857C918.64,295.745 918.626,295.738 924.726,293.727C935.508,290.172 961.691,290.557 966.79,294.347C967.128,294.6 968.611,295.132 970.084,295.527C973.075,296.333 982.035,300.694 983.614,302.112C990.616,308.409 991.964,306.915 987.607,297.688C986.527,295.403 985.475,292.96 985.272,292.265C984.944,291.135 981.967,287.334 977.421,282.24C975.221,279.776 970.694,276.596 969.385,276.596C968.786,276.596 968.301,276.385 968.301,276.132C968.301,275.195 959.638,272.114 955.452,271.558C953.78,271.337 951.676,270.777 950.781,270.31C948.756,269.262 932.313,269.23 928.983,270.267ZM975.87,275.011L975.986,276.132C975.986,275.817 975.949,275.434 975.87,275.011ZM923.964,264.253L924.812,264.155C924.528,264.155 924.243,264.191 923.964,264.253ZM971.165,269.155C970.626,268.998 970.034,268.911 969.385,268.911L971.165,269.155ZM922.663,264.732C921.906,265.114 921.277,265.609 920.925,265.96L922.663,264.732ZM584.172,761.869L584.128,761.572C584.102,760.871 584.448,758.101 584.778,754.96C587.02,733.609 599.085,669.346 601.211,659.439C602.183,654.899 603.568,648.988 604.282,646.303C604.965,643.731 606.701,636.373 608.143,629.956C611.391,615.469 614.923,601.283 615.861,598.705L615.869,598.682C616.197,597.789 617.136,594.331 617.987,591.006C619.093,586.685 620.413,582.603 620.815,581.746C620.751,581.882 620.646,582.119 620.646,582.119C620.646,582.119 621.565,579.124 622.123,576.891C623.174,572.682 624.726,568.974 625.167,568.268C624.954,568.593 624.557,569.296 624.557,569.296C624.557,569.296 624.683,568.918 624.729,568.717C625.313,566.167 630.027,551.056 631.092,548.334C631.481,547.334 632.182,545.115 632.658,543.419C633.399,540.759 634.419,538.073 634.813,537.336L634.686,537.57L638.664,525.35C638.664,525.35 638.566,526.275 638.555,526.532L638.959,523.939C639.22,523.035 639.724,521.748 640.321,520.601L640.327,520.591C640.654,519.965 641.116,518.435 641.423,517.22C642.657,512.338 644.283,507.525 645.769,504.265C646.138,503.453 646.578,502.214 646.717,501.506L646.721,501.488C647.112,499.527 648.07,497.061 648.79,495.824C648.865,495.647 649.538,494.066 649.858,493.097C650.52,491.089 651.707,488.204 652.481,486.69C652.689,486.282 652.977,485.525 652.977,485.525C652.977,485.525 652.812,486.638 652.812,486.954L653.357,483.765L654.963,480.508C654.898,480.605 654.769,480.814 654.769,480.814C654.769,480.814 655.518,479.069 655.844,478.057C656.465,476.122 657.321,474.301 658.016,473.034L658.311,471.595C659.159,469.212 661.405,464.055 662.597,461.873L663.789,460.164L665.298,458.776L668.631,457.178L672.298,456.836L674.702,457.226C675.408,457.406 676.145,457.652 676.901,457.972L676.904,457.973C677.259,458.124 677.89,458.341 677.89,458.341C677.89,458.341 677.242,458.223 676.934,458.183L679.283,458.686C679.283,458.686 681.182,459.546 681.268,459.574C681.109,459.483 680.29,459.109 680.29,459.109C680.29,459.109 682.576,459.76 684.247,460.154L684.255,460.156C687.256,460.867 690.507,461.94 691.743,462.51C691.743,462.51 694.798,463.523 696.802,464.034C700.167,464.892 703.436,466.026 704.371,466.476C704.179,466.381 703.886,466.246 703.886,466.246L704.576,466.46C703.538,465.84 702.351,465.149 701.332,464.574C690.563,458.504 677.849,440.473 672.643,422.869C667.598,405.808 666.026,381.172 668.96,367.393L668.961,367.386C669.308,365.767 669.997,362.448 670.495,360.02C673.507,345.296 681.264,331.21 690.588,321.675C697.459,314.649 705.245,310.09 712.654,308.836C731.104,305.712 747.453,313.123 760.875,331.834C763.614,335.652 771.7,352.214 772.274,355.022C772.395,355.603 773.264,358.831 774.193,362.197C780.524,385.139 778.725,416.653 770.197,435.399C768.086,440.038 766.126,443.887 764.628,446.492C770.361,444.051 777.72,444.915 781.993,447.694L784.135,449.417L786.025,451.852L786.96,453.917L787.461,456.249L787.462,456.258L787.167,460.427L786.282,462.697L785.282,464.115C787.374,465.644 789.573,467.115 790.743,467.709C792.394,468.543 793.911,469.512 794.595,470.054L794.674,470.14C795.919,470.707 801.958,473.441 803.452,473.768L803.46,473.77C805.033,474.117 807.408,474.946 808.746,475.607C809.831,476.143 811.859,476.327 814.29,476.534C819.287,476.959 825.641,476.842 831.196,476.091C842.97,474.5 856.052,468.211 863.919,460.545C863.232,460.193 862.618,459.808 862.077,459.405L859.885,457.278L858.242,454.316L857.656,451.399L857.91,448.496L858.838,445.945L860.187,443.838L861.819,442.162L863.633,440.927L866.398,439.802C867.219,439.571 868.109,439.402 869.064,439.308C873.979,438.821 881.521,440.658 888.752,445.11C889.075,445.308 889.393,445.511 889.706,445.718C885.75,439.892 882.997,434.005 882.157,429.066L882.154,429.05C882.011,428.198 881.369,425.593 880.749,423.264C879.204,417.463 878.866,415.109 878.303,403.536C877.71,391.316 880.708,369.452 883.422,363.804C883.534,363.5 884.698,360.331 885.487,357.903L885.489,357.895C888.083,349.938 895.259,336.273 899.899,330.406C907.285,321.065 911.652,316.695 914.184,315.147C915.266,314.481 917.182,313.154 918.442,312.196L918.451,312.189C924.271,307.776 932.843,304.096 941.587,302.407C968.576,297.193 995.612,320.339 1001.48,356.287C1003,365.651 1003.52,381.513 1002.61,385.728C1002.32,387.08 1001.84,390.555 1001.53,393.449C1001.05,397.828 1000,401.991 999.562,402.942C999.641,402.779 999.752,402.532 999.752,402.532C999.752,402.532 998.869,405.452 998.332,407.656L998.33,407.665C997.512,411.006 996.119,415.401 995.256,417.442L991.744,425.751C990.362,429.018 988.458,432.776 987.577,434.107L983.286,440.641C978.308,448.223 972.052,454.662 965.214,459.709C970.561,458.88 975.916,457.959 977.028,457.609C978.527,457.137 979.792,456.836 980.909,456.734L982.894,456.723L985.147,457.164L987.945,458.526L990.816,461.255C992.692,463.625 995.132,468.603 999.537,478.464C1003.11,486.468 1009.85,501.541 1014.51,511.952C1025.09,535.599 1024.5,535.319 1023.08,545.912C1013.69,615.312 991.187,696.361 962.09,765.509L957.016,777.561L956.953,777.707C956.953,777.707 900.111,904.929 826.593,965.464C766.71,1014.77 692.225,1025.44 641.548,981.745C641.239,981.478 630.874,972.781 623.043,962.184C619.454,957.325 613.157,948.254 611.931,946.223L611.188,944.523L611.291,944.954C611.291,944.954 610.463,943.515 609.834,942.523C607.049,938.123 602.708,929.519 599.073,921.097C597.797,918.148 596.213,914.755 596.213,914.755C596.213,914.755 596.585,915.349 596.685,915.485L595.122,912.389C594.067,909.61 592.048,903.187 590.671,898.055C590.009,895.588 589.122,892.516 588.697,891.228C588.183,889.671 587.228,885.422 586.612,881.778L586.611,881.77C586.251,879.627 585.602,876.806 585.602,876.806C585.602,876.806 586.411,878.418 586.644,878.729L585.228,875.857C584.917,874.807 584.492,872.507 584.253,870.075L584.251,870.062C584.044,867.917 583.528,864.159 583.107,861.711C582.624,858.896 582.043,853.577 581.816,849.885L581.816,849.877C581.621,846.643 581.233,842.296 580.947,840.221C580.508,837.036 580.177,817.859 580.391,805.614C580.41,804.503 581.302,790.47 581.818,783.212C582.28,776.712 583.428,766.166 583.968,763.267C584.051,762.821 584.134,762.178 584.172,761.869ZM878.87,509.159C878.02,509.863 877.113,510.586 876.146,511.33L875.991,516.869C875.699,527.471 873.483,540.601 871.622,544.576L871.62,544.581C871.223,545.426 870.305,548.086 869.543,550.48C868.573,553.526 866.905,557.923 865.842,560.253C863.392,565.618 859.689,572.88 858.617,574.555L856.568,576.828C856.877,576.56 857.502,575.987 857.502,575.987C857.502,575.987 855.813,578.149 854.561,579.858L854.557,579.863C839.605,600.238 816.023,607.496 798.878,598.64C782.409,590.133 774.633,575.098 774.891,544.095L774.566,545.115L774.563,545.123C773.681,547.904 771.251,555.535 769.159,562.076C740.117,652.881 727.431,721.258 730.556,771.993C731.971,794.973 735.816,807.618 745.792,818.077L746.009,818.307C752.254,813.928 762.368,804.386 769.898,795.442C794.217,766.56 825.21,705.323 842.76,651.82L842.762,651.817C843.961,648.166 845.248,645.011 845.681,644.261L845.838,644.086L845.964,643.783C848.746,636.814 858.265,604.256 863.071,585.001C864.451,579.465 866.03,574.458 866.379,573.771C866.298,573.928 866.121,574.331 866.121,574.331C866.121,574.331 867.196,570.281 868.105,566.126C870.75,554.04 874.74,533.229 876.938,519.373C877.611,515.137 878.333,511.399 878.6,510.472L878.666,510.322L878.689,510.207C878.742,509.925 878.803,509.572 878.87,509.159ZM846.29,643.582L847.935,641.747C847.625,642.01 846.818,642.953 846.29,643.582ZM749.335,822.171C749.852,822.832 750.218,823.345 750.362,823.601C750.067,823.074 749.726,822.596 749.335,822.171ZM775.744,524.946C775.923,521.748 776.082,518.822 776.178,516.928C775.166,516.657 774.201,516.364 773.283,516.051C774.313,519.589 775.125,522.524 775.744,524.946ZM762.246,486.525C763.002,484.878 763.798,482.944 764.324,481.444C764.778,480.147 765.242,478.916 765.653,477.885L764.493,478.878L762.537,479.783L760.489,480.252L758.285,480.306L755.711,479.875L753.175,478.905L750.826,477.201L749.05,474.924L748.02,472.467C747.409,470.293 747.461,467.371 748.472,464.184C741.79,468.806 733.531,471.579 725.726,472.068C724.664,472.135 723.612,472.159 722.572,472.141C723.18,472.335 723.821,472.533 724.42,472.705C727.57,473.61 734.631,475.8 740.11,477.571C745.451,479.298 751.753,481.294 754.103,482.008C756.702,482.795 758.495,483.507 759.968,484.48L762.246,486.525ZM658.318,472.499C658.631,471.965 658.891,471.58 659.051,471.398C658.787,471.694 658.536,472.076 658.318,472.499ZM657.957,473.319C657.717,473.967 657.568,474.641 657.568,475.214L657.957,473.319ZM795.623,471.167L796.495,472.112C796.385,471.942 796.017,471.559 795.623,471.167ZM713.937,316.413C698.859,318.966 682.541,339.48 678.024,361.56C677.521,364.013 676.826,367.361 676.476,368.994C673.742,381.836 675.31,404.789 680.013,420.69C684.626,436.292 695.561,452.499 705.105,457.879C707.084,458.995 709.648,460.521 710.799,461.266C720.429,467.491 738.223,464.293 748.117,454.56C751.379,451.351 752.816,449.701 756.67,444.731C757.939,443.094 760.374,438.431 763.202,432.217C771.12,414.811 772.664,385.544 766.785,364.241C765.793,360.647 764.877,357.2 764.749,356.579C764.243,354.105 757.03,339.658 754.631,336.314C743.25,320.449 729.581,313.764 713.937,316.413ZM866.227,448.588C864.056,451.348 865.939,454.008 870.463,454.582C872.146,454.792 874.263,455.277 875.173,455.655L876.82,456.343L874.577,459.737C867.112,471.035 848.643,481.489 832.225,483.706C822.046,485.082 809.429,484.516 805.343,482.498C804.448,482.056 802.858,481.507 801.806,481.275C799.464,480.761 790.476,476.954 790.048,476.294C789.877,476.03 788.633,475.253 787.278,474.568C784.251,473.032 775.883,466.746 774.357,464.86C773.74,464.097 772.692,462.874 772.026,462.136L770.813,460.803L774.2,460.878C778.315,460.974 780.09,459.755 779.816,457.027C779.42,453.138 771.912,451.262 767.056,453.84C757.907,458.699 751.668,470.939 757.583,472.422C760.146,473.068 761.176,472.451 762.891,469.256L764.567,466.133L769.266,470.451C773.815,474.633 775.181,477.239 773.63,478.79C773.43,478.989 772.507,481.328 771.576,483.984C770.646,486.641 768.974,490.466 767.861,492.488C762.891,501.486 767.145,507.316 780.714,510.104L784.172,510.813L783.891,516.557C783.738,519.716 783.31,527.381 782.946,533.592C780.949,567.565 786.269,583.477 802.405,591.813C816.652,599.171 835.937,592.248 848.362,575.316C850.091,572.956 851.685,570.892 851.906,570.731C852.369,570.382 856.312,562.62 858.851,557.062C859.821,554.937 861.336,550.926 862.22,548.149C863.104,545.371 864.202,542.298 864.662,541.318C866.316,537.784 868.049,526.08 868.309,516.657L868.566,507.447L871.044,505.558C884.745,495.112 885.323,492.167 876.196,479.26L872.652,474.248L876.317,470.347C878.335,468.201 880.581,465.851 881.312,465.128C882.043,464.4 882.813,463.267 883.023,462.603C883.686,460.518 886.892,462.988 886.892,465.58C886.892,467.994 891.181,470.322 893.42,469.124C898.365,466.479 893.751,457.209 884.724,451.654C876.859,446.813 868.687,445.458 866.227,448.588ZM943.045,309.953C935.515,311.407 928.106,314.513 923.094,318.313C921.65,319.411 919.45,320.93 918.209,321.693C915.988,323.051 912.366,327.03 905.927,335.173C901.691,340.528 895.163,353.014 892.796,360.276C891.769,363.439 890.667,366.523 890.35,367.129C887.879,371.856 885.437,392 885.979,403.163C886.496,413.791 886.756,415.959 888.175,421.285C888.87,423.899 889.573,426.822 889.733,427.778C891.494,438.138 903.271,453.048 915.713,460.671C932.809,471.142 961.552,459.744 976.861,436.424L981.154,429.888C981.913,428.74 983.493,425.532 984.666,422.758L988.178,414.451C988.937,412.654 990.146,408.778 990.866,405.837C991.582,402.896 992.417,400.022 992.716,399.455C993.012,398.888 993.54,395.812 993.886,392.621C994.231,389.43 994.781,385.601 995.101,384.11C995.925,380.299 995.273,365.981 993.893,357.524C988.823,326.453 966.372,305.446 943.045,309.953ZM592.421,755.762C592.115,758.683 591.705,761.21 591.829,761.416C591.958,761.62 591.819,763.089 591.523,764.675C591.006,767.449 589.926,777.539 589.483,783.756C588.977,790.88 588.093,804.653 588.075,805.74C587.868,817.566 588.136,836.095 588.56,839.172C588.863,841.375 589.28,845.985 589.487,849.415C589.697,852.848 590.232,857.793 590.681,860.41C591.131,863.023 591.68,867.034 591.901,869.323C592.125,871.608 592.51,873.748 592.76,874.076C593.006,874.404 593.651,877.291 594.19,880.497C594.732,883.702 595.541,887.445 595.994,888.814C596.446,890.187 597.391,893.446 598.094,896.063C599.726,902.149 602.297,910.149 602.864,910.916C603.106,911.244 604.572,914.452 606.126,918.046C609.581,926.05 613.681,934.232 616.326,938.411C617.417,940.133 618.309,941.687 618.309,941.866C618.309,942.219 625.382,952.418 629.224,957.617C636.557,967.541 646.277,975.675 646.567,975.925C694.555,1017.31 765.001,1006.22 821.708,959.532C894.094,899.929 949.933,774.579 949.933,774.579L955.006,762.529C983.846,693.993 1006.16,613.668 1015.46,544.883C1016.72,535.556 1016.81,535.913 1007.49,515.091C1002.84,504.677 996.096,489.603 992.52,481.599C984.58,463.823 984.242,463.395 979.336,464.939C977.061,465.655 958.322,468.643 954.432,468.907C952.849,469.017 946.567,469.905 940.467,470.878C934.37,471.855 926.973,472.925 924.031,473.26C916.455,474.119 894.635,477.906 892.689,478.697C890.885,479.435 889.277,483.557 889.259,487.5C889.248,490.156 886.467,511.74 886.05,512.417C885.883,512.688 885.198,516.361 884.528,520.578C881.358,540.558 874.499,574.863 873.176,577.355C872.887,577.894 871.696,582.172 870.527,586.86C865.097,608.619 853.713,647.067 852.43,647.976C852.202,648.14 851.136,650.95 850.062,654.216C832.193,708.69 800.537,770.986 775.776,800.392C763.704,814.732 745.257,830.216 743.657,827.356C743.375,826.853 741.835,825.064 740.23,823.381C729.175,811.79 724.454,797.932 722.885,772.465C719.719,721.057 732.412,651.745 761.84,559.736C763.929,553.201 766.357,545.578 767.237,542.801C768.114,540.023 769.166,536.95 769.58,535.97C770.418,533.973 768.485,526.201 761.701,504.271C757.7,491.34 757.526,491.072 751.878,489.364C749.497,488.641 743.136,486.626 737.745,484.883C732.351,483.139 725.399,480.982 722.297,480.091C719.192,479.196 716.518,478.28 716.354,478.048C716.19,477.82 712.849,476.775 708.927,475.727C705.006,474.679 701.348,473.577 700.802,473.278C700.257,472.978 697.604,472.169 694.905,471.481C692.203,470.793 689.308,469.884 688.466,469.459C687.628,469.035 684.937,468.215 682.484,467.634C680.034,467.056 677.76,466.422 677.432,466.233C677.107,466.04 676.572,465.862 676.244,465.834C675.916,465.809 674.865,465.456 673.906,465.049C671.791,464.154 669.998,464.354 669.342,465.555C668.023,467.969 665.253,474.511 665.253,475.214C665.253,475.652 665.017,476.266 664.729,476.576C664.443,476.886 663.737,478.612 663.16,480.408C662.582,482.205 661.748,484.205 661.302,484.851C660.86,485.496 660.497,486.441 660.497,486.954C660.497,487.464 659.973,488.915 659.327,490.181C658.682,491.443 657.705,493.839 657.156,495.504C656.607,497.169 655.823,499.069 655.413,499.722C655.006,500.374 654.486,501.846 654.257,502.991C654.033,504.132 653.359,506.139 652.764,507.447C651.427,510.382 649.983,514.714 648.874,519.102C648.41,520.935 647.63,523.21 647.138,524.151C646.646,525.096 646.243,526.197 646.239,526.6C646.235,527.502 642.246,539.781 641.554,541.025C641.28,541.521 640.606,543.525 640.06,545.482C639.511,547.439 638.698,549.978 638.253,551.122C637.24,553.711 632.773,568.018 632.22,570.432C631.996,571.412 631.611,572.482 631.361,572.81C631.115,573.138 630.313,575.812 629.579,578.753C628.844,581.694 627.992,584.589 627.685,585.188C627.379,585.784 626.366,589.26 625.432,592.911C624.498,596.562 623.443,600.351 623.083,601.332C622.173,603.831 618.79,617.593 615.642,631.637C614.173,638.172 612.405,645.659 611.709,648.276C611.014,650.889 609.67,656.636 608.725,661.05C606.618,670.869 594.644,734.592 592.421,755.762ZM911.842,467.311L911.699,467.224C908.286,465.133 904.937,462.549 901.788,459.665C902.568,461.513 903.013,463.264 903.101,464.793L902.932,467.791L902.558,468.93C905.567,468.382 908.786,467.82 911.842,467.311ZM885.351,475.254L883.476,473.959L882.551,474.937C883.082,475.691 883.582,476.422 884.051,477.134C884.253,476.747 884.462,476.383 884.676,476.046L885.351,475.254ZM682.189,289.764C682.231,289.686 682.272,289.607 682.303,289.542C688.166,277.247 702.04,267.212 716.928,264.842L716.934,264.841C719.352,264.458 722.381,263.963 723.671,263.741L723.675,263.741C727.625,263.065 743.304,263.616 746.616,264.526C756.054,267.112 763.508,271.22 766.744,274.811L768.339,277.376L769.089,281.106C769.236,284.545 767.864,292.006 765.409,298.831C764.939,300.137 764.534,301.111 764.152,301.814L762.791,303.761L760.958,305.322L758.453,306.415L756.472,306.696L754.179,306.482C753.114,306.257 751.578,305.671 749.339,304.59C748.276,304.08 746.913,303.486 746.273,303.37L746.268,303.369C744.632,303.07 742.544,302.321 741.233,301.664C740.559,301.528 736.022,300.627 730.761,299.908C722.566,298.786 710.792,299.783 704.414,302.24C703.684,302.525 702.766,302.795 701.868,302.981L699.076,303.294C699.404,303.294 700.386,303.152 700.386,303.152C700.386,303.152 694.797,305.709 692.369,307.373C690.639,308.562 689.172,309.227 688.178,309.534L686.238,309.92L684.218,309.857L681.307,308.816L679.803,307.658L678.605,306.157L677.526,303.293L677.499,300.499C677.721,298.849 678.842,295.357 679.887,293.141L681.174,290.874L682.189,289.764ZM687.48,287.388L687.789,287.329C687.715,287.329 687.61,287.35 687.48,287.388ZM688.103,302.637L687.789,302.699C687.867,302.699 687.973,302.677 688.103,302.637ZM724.971,271.316C723.663,271.54 720.589,272.043 718.136,272.432C705.751,274.403 694.117,282.621 689.24,292.85C688.669,294.041 688.021,295.014 687.789,295.014C687.111,295.014 684.716,301.432 685.14,302.116C685.386,302.515 686.445,302.12 688.017,301.039C691.532,298.629 697.682,295.609 699.076,295.609C699.725,295.609 700.87,295.374 701.619,295.082C708.956,292.254 722.422,291.01 731.802,292.294C739.785,293.385 743.514,294.098 744.58,294.743C745.233,295.139 746.616,295.62 747.65,295.809C748.687,295.998 750.944,296.836 752.666,297.663C756.823,299.67 756.952,299.638 758.178,296.23C760.745,289.092 762.139,281.177 761.041,279.961C758.428,277.052 752.231,274.032 744.58,271.936C741.753,271.159 728.347,270.738 724.971,271.316Z" style="fill:white;"/>
            </g>
            <path d="M837.861,513.3C839.48,512.796 847.475,512.811 848.459,513.321C848.894,513.548 849.917,513.82 850.73,513.928C852.765,514.198 856.977,515.696 856.977,516.152C856.977,516.275 857.213,516.377 857.504,516.377C858.141,516.377 860.342,517.923 861.412,519.121C863.622,521.598 865.069,523.446 865.229,523.995C865.327,524.333 865.839,525.521 866.364,526.632C868.482,531.118 867.827,531.844 864.423,528.783C863.655,528.093 859.299,525.973 857.844,525.581C857.128,525.389 856.407,525.131 856.242,525.008C853.764,523.165 841.033,522.978 835.791,524.706C832.825,525.684 832.832,525.687 832.576,523.311C832.465,522.277 832.26,520.977 832.122,520.421C831.562,518.171 831.522,516.6 832.014,516.058C832.628,515.378 835.147,514.064 835.833,514.064C836.128,514.064 836.466,513.967 836.585,513.848C836.703,513.73 837.277,513.482 837.861,513.3ZM738.67,513.81C740.312,513.529 746.83,513.733 748.204,514.111C751.924,515.131 754.937,516.599 756.208,518.013C756.741,518.604 756.064,522.453 754.816,525.923C754.219,527.58 754.157,527.596 752.136,526.62C751.298,526.218 750.201,525.81 749.697,525.718C749.194,525.626 748.522,525.392 748.204,525.2C747.686,524.886 745.873,524.54 741.992,524.009C737.431,523.385 730.884,523.99 727.316,525.365C726.952,525.507 726.396,525.621 726.08,525.621C725.403,525.621 722.413,527.09 720.703,528.261C719.939,528.787 719.424,528.979 719.304,528.785C719.098,528.452 720.263,525.332 720.592,525.332C720.705,525.332 721.021,524.859 721.298,524.28C723.669,519.306 729.325,515.311 735.347,514.352C736.54,514.163 738.034,513.919 738.67,513.81ZM844.698,532.595C856.04,530.404 866.955,540.617 869.42,555.724C870.091,559.836 870.408,566.797 870.008,568.65C869.852,569.375 869.585,571.237 869.417,572.788C869.248,574.34 868.992,575.835 868.848,576.111C868.702,576.387 868.297,577.784 867.948,579.214C867.598,580.644 867.011,582.528 866.641,583.402C866.272,584.276 865.504,586.094 864.934,587.441C864.364,588.789 863.596,590.35 863.226,590.908L861.139,594.085C853.696,605.424 839.721,610.965 831.409,605.874C825.36,602.168 819.634,594.919 818.778,589.882C818.7,589.417 818.358,587.996 818.02,586.725C817.33,584.135 817.204,583.081 816.952,577.914C816.689,572.486 817.876,562.693 819.078,560.394C819.232,560.099 819.768,558.6 820.267,557.062C821.418,553.531 824.592,547.461 826.651,544.857C829.782,540.898 831.543,538.964 832.623,538.303C833.226,537.932 834.295,537.194 834.997,536.66C837.435,534.812 841.037,533.302 844.698,532.595ZM851.054,536.953C847.338,536.138 845.109,536.372 841.101,537.995C837.889,539.295 836.407,540.473 830.938,546.083C828.041,549.052 823.195,559.697 822.297,565.057C822.111,566.17 821.839,567.34 821.693,567.657C820.86,569.477 820.908,579.987 821.77,584.341C822.111,586.064 822.366,586.272 823.328,585.61C824.144,585.049 829.239,582.825 829.712,582.825C830.217,582.825 830.21,582.606 829.662,581.055C826.701,572.689 829.6,561.108 836.084,555.39C837.256,554.356 840.044,552.654 840.291,552.821C840.331,552.848 841.063,552.703 841.916,552.498C847.211,551.228 853.857,555.58 855.111,561.141C855.166,561.387 855.48,562.5 855.806,563.611C856.745,566.813 856.737,566.832 854.448,567C851.507,567.215 844.843,569.089 841.874,570.536C839.029,571.923 839.27,572.28 843.313,572.663C852.483,573.535 854.812,573.943 856.052,574.891C856.222,575.019 854.883,578.949 854.013,580.878C853.528,581.953 853.185,582.877 853.249,582.93C853.313,582.984 854.405,583.65 855.677,584.411C856.948,585.172 858.482,586.182 859.085,586.656C859.689,587.129 860.226,587.469 860.281,587.41C861.479,586.116 864.294,578.056 865.262,573.147C865.958,569.621 866.097,560.007 865.496,557.113C865.215,555.762 864.95,554.369 864.908,554.017C864.797,553.098 863.944,550.56 863.18,548.879C861.164,544.438 860.874,543.973 858.888,541.985C855.376,538.47 854.029,537.603 851.054,536.953ZM846.924,585.34C846.539,585.035 838.244,584.761 837.187,585.017C833.938,585.808 832.533,586.115 832.366,586.07C831.588,585.856 823.463,589.665 823.463,590.242C823.463,592.255 827.975,598.693 830.669,600.525C831.394,601.019 832.063,601.532 832.156,601.669C833.307,603.359 841.364,604.016 844.576,602.681C845.622,602.248 846.599,601.892 846.747,601.892C847.558,601.892 853.495,597.167 855.234,595.137C858.144,591.738 858.258,590.887 855.995,589.488C855.488,589.174 854.774,588.659 854.41,588.344C853.583,587.625 849.993,586.12 848.454,585.844C847.818,585.732 847.13,585.505 846.924,585.34ZM733.305,535.736C740.912,534.448 747.558,537.698 753.091,545.412C754.257,547.038 757.764,554.062 758.01,555.265C758.073,555.566 758.518,557.243 759,558.99C761.859,569.347 761.108,583.577 757.258,592.04C755.883,595.061 754.7,597.328 754.082,598.124C752.209,600.54 751.51,601.343 749.924,602.903C745.114,607.635 736.462,609.19 731.78,606.164C731.22,605.801 729.974,605.059 729.012,604.517C724.371,601.901 719.055,594.021 716.812,586.435C714.525,578.704 713.763,567.544 715.092,561.301C715.262,560.507 715.6,558.879 715.845,557.686C718.041,546.951 725.975,536.977 733.305,535.736ZM740.513,539.974C740.213,539.548 735.606,539.501 733.845,539.905C730.655,540.638 728.566,542.316 724.689,547.263C723.746,548.468 721.494,553.11 721.485,553.873C721.482,554.076 721.293,554.532 721.066,554.883C717.919,559.739 718.199,578.791 721.539,587.302C722.267,589.157 722.154,589.107 723.421,588.138C725.033,586.903 727.661,585.234 729.291,584.409C731.005,583.541 730.981,583.709 729.641,582.01C725.006,576.121 725.47,566.361 730.65,560.843C736.88,554.207 746.566,556.093 750.981,564.802C752.425,567.647 752.507,567.498 749.123,568.224C745.812,568.936 742.623,570.02 741.31,570.878C739.854,571.831 740.272,572.311 742.012,571.686C745.219,570.529 752.46,570.923 752.798,572.272C753.07,573.357 752.488,576.775 751.694,578.763C751.283,579.786 750.948,580.654 750.948,580.693C750.948,580.731 751.695,580.916 752.609,581.105C753.522,581.292 754.335,581.545 754.415,581.663C754.838,582.296 755.844,582.263 755.977,581.613C756.719,578.013 756.849,570.751 756.249,566.501C756.003,564.754 755.759,562.999 755.707,562.601C755.578,561.62 754.407,557.367 754.107,556.795C753.973,556.542 753.803,555.991 753.727,555.572C752.95,551.292 746.701,543.152 742.697,541.205C741.595,540.668 740.612,540.115 740.513,539.974ZM749.527,584.837C745.908,584.225 745.923,584.227 743.148,584.586C742.115,584.719 740.621,584.891 739.825,584.967C738.483,585.097 736.677,585.652 732.756,587.136C730.984,587.805 728.278,589.384 726.536,590.764C725.9,591.267 725.15,591.764 724.869,591.868C723.191,592.487 726.646,597.698 730.801,600.819C739.329,607.228 749.83,601.818 754.114,588.809C755.09,585.841 754.996,585.761 749.527,584.837ZM674.225,749.347C675.305,739.054 681.127,708.072 682.152,703.299C682.611,701.153 683.265,698.358 683.603,697.088C683.941,695.815 684.8,692.175 685.515,688.998C687.045,682.17 688.69,675.479 689.132,674.263C689.307,673.787 689.82,671.944 690.275,670.169C690.729,668.394 691.221,666.704 691.37,666.414C691.519,666.123 691.933,664.716 692.291,663.286C692.648,661.856 693.038,660.555 693.157,660.396C693.279,660.236 693.466,659.716 693.575,659.24C693.844,658.066 696.016,651.11 696.508,649.851C696.725,649.295 697.12,648.061 697.387,647.109C697.652,646.158 697.98,645.183 698.113,644.942C698.449,644.337 700.389,638.367 700.391,637.929C700.393,637.733 700.589,637.197 700.828,636.738C701.067,636.28 701.447,635.174 701.672,634.283C702.211,632.15 702.913,630.043 703.563,628.617C703.853,627.981 704.18,627.005 704.289,626.45C704.4,625.894 704.653,625.178 704.851,624.861C705.05,624.543 705.432,623.619 705.699,622.81C705.966,622 706.441,620.835 706.754,620.222C707.068,619.606 707.323,618.901 707.323,618.653C707.323,618.403 707.5,617.944 707.715,617.63C707.931,617.317 708.337,616.344 708.618,615.47C708.899,614.597 709.242,613.758 709.381,613.607C709.521,613.456 709.635,613.158 709.635,612.945C709.635,612.603 710.982,609.423 711.624,608.249C711.943,607.665 712.814,607.568 713.842,608.003C714.309,608.2 714.82,608.372 714.98,608.384C715.139,608.398 715.399,608.485 715.557,608.578C715.716,608.67 716.822,608.979 718.013,609.26C719.206,609.542 720.514,609.941 720.922,610.147C721.331,610.353 722.738,610.795 724.052,611.13C725.365,611.465 726.654,611.858 726.919,612.004C727.185,612.149 728.963,612.685 730.87,613.194C732.777,613.704 734.401,614.212 734.481,614.323C734.56,614.436 735.861,614.881 737.37,615.316C738.878,615.75 742.259,616.798 744.881,617.646C747.502,618.494 750.595,619.473 751.753,619.825C754.498,620.655 754.583,620.785 756.528,627.072C759.827,637.735 760.767,641.514 760.359,642.484C760.158,642.961 759.647,644.455 759.22,645.806C758.792,647.156 757.612,650.862 756.596,654.039C742.288,698.774 736.117,732.474 737.656,757.468C738.419,769.85 740.714,776.588 746.09,782.224C746.87,783.042 747.618,783.912 747.755,784.156C748.534,785.547 757.502,778.018 763.372,771.046C775.411,756.749 790.802,726.461 799.49,699.976C800.012,698.388 800.53,697.022 800.641,696.942C801.265,696.5 806.8,677.807 809.44,667.227C810.008,664.948 810.587,662.868 810.728,662.606C811.371,661.394 814.706,644.715 816.247,635.001C816.573,632.95 816.906,631.165 816.987,631.033C817.19,630.704 818.542,620.21 818.547,618.918C818.556,617.001 819.338,614.997 820.215,614.638C821.161,614.254 831.77,612.413 835.453,611.995C836.883,611.832 840.48,611.312 843.445,610.837C846.41,610.364 849.465,609.932 850.234,609.878C852.126,609.75 861.237,608.298 862.342,607.949C864.728,607.199 864.892,607.407 868.753,616.049C870.491,619.941 873.769,627.27 876.033,632.333C880.564,642.457 880.518,642.283 879.906,646.818C875.383,680.261 864.535,719.315 850.513,752.637L848.047,758.496C848.047,758.496 820.898,819.441 785.704,848.42C758.133,871.122 723.882,876.51 700.55,856.39C700.409,856.269 695.684,852.314 692.118,847.489C690.25,844.961 686.811,840.003 686.811,839.831C686.811,839.744 686.378,838.988 685.847,838.151C684.561,836.12 682.568,832.141 680.888,828.25C680.132,826.503 679.42,824.942 679.302,824.783C679.026,824.41 677.777,820.52 676.983,817.561C676.641,816.289 676.182,814.705 675.962,814.037C675.741,813.372 675.348,811.552 675.084,809.993C674.823,808.435 674.509,807.031 674.389,806.871C674.268,806.712 674.081,805.672 673.972,804.561C673.864,803.448 673.597,801.498 673.379,800.227C673.16,798.955 672.9,796.55 672.798,794.881C672.698,793.214 672.495,790.972 672.347,789.901C672.141,788.405 672.011,779.396 672.112,773.647C672.12,773.118 672.55,766.422 672.796,762.958C673.011,759.935 673.537,755.029 673.788,753.681C673.932,752.909 673.999,752.195 673.937,752.096C673.876,751.996 674.076,750.767 674.225,749.347ZM861.887,613.843C861.888,612.239 861.895,612.239 855.098,613.333C851.921,613.845 846.851,614.604 843.831,615.02C833.45,616.455 823.148,618.003 823,618.149C822.919,618.23 822.602,620.423 822.297,623.023C821.48,629.934 820.601,635.904 820.13,637.717C819.903,638.591 819.449,640.865 819.119,642.772C817.45,652.448 813.638,669.065 811.797,674.697C811.563,675.411 810.369,679.441 809.145,683.653C806.779,691.785 802.315,705.29 800.407,710.088C797.113,718.367 793.301,727.364 791.044,732.19C790.337,733.698 789.528,735.454 789.243,736.09C787.475,740.039 786.458,742.072 783.599,747.361C767.251,777.614 750.444,793.108 737.556,789.804C731.915,788.358 728.122,784.271 724.24,775.449C723.557,773.898 722.087,768.295 721.606,765.413C720.26,757.323 720.242,757.092 720.211,746.634C720.169,733.152 720.674,726.96 722.926,713.266C724.546,703.403 727.968,686.867 728.722,685.241C728.87,684.924 729.7,681.84 730.567,678.387C731.433,674.934 732.264,671.88 732.413,671.597C732.56,671.317 733.026,669.786 733.446,668.196C733.865,666.607 734.645,664.007 735.179,662.419C735.715,660.829 736.509,658.293 736.946,656.785C737.382,655.275 737.837,653.909 737.951,653.752C738.067,653.592 738.577,652.096 739.083,650.429C739.589,648.759 740.187,646.995 740.411,646.504C740.634,646.015 741.229,644.325 741.732,642.748C742.234,641.172 742.746,639.754 742.869,639.595C742.99,639.435 743.437,638.265 743.864,636.995C744.288,635.724 744.815,634.294 745.037,633.817C745.257,633.34 745.836,631.845 746.322,630.494C746.809,629.144 747.384,627.648 747.601,627.171C748.678,624.805 748.938,624.037 748.724,623.85C748.511,623.661 741.985,621.688 734.337,619.499C732.588,619 731.028,618.485 730.87,618.357C730.71,618.23 728.694,617.575 726.391,616.904C724.087,616.231 722.068,615.576 721.903,615.448C721.1,614.82 714.463,613.408 714.102,613.787C713.718,614.193 712.554,616.854 711.598,619.516C711.284,620.39 710.928,621.234 710.809,621.394C710.689,621.553 710.424,622.333 710.218,623.127C710.013,623.921 709.687,624.831 709.493,625.15C709.299,625.467 708.935,626.377 708.682,627.171C708.429,627.967 707.817,629.721 707.319,631.071C706.824,632.422 706.156,634.308 705.837,635.261C705.517,636.215 705.141,637.255 704.998,637.572C704.856,637.891 704.149,639.971 703.426,642.195C702.703,644.419 701.991,646.499 701.844,646.818C701.467,647.627 700.679,650.098 700.679,650.467C700.679,650.637 700.497,651.184 700.275,651.685C700.051,652.186 699.332,654.35 698.675,656.496C698.018,658.64 697.168,661.372 696.785,662.563C696.404,663.755 695.832,665.73 695.515,666.954C695.196,668.177 694.82,669.412 694.674,669.698C694.53,669.985 694.048,671.779 693.605,673.686C693.159,675.593 692.698,677.283 692.578,677.441C692.457,677.6 691.824,680.135 691.169,683.075C690.516,686.014 689.86,688.68 689.713,688.998C689.566,689.315 689.297,690.291 689.115,691.164C688.935,692.038 688.21,695.418 687.508,698.675C685.567,707.669 683.053,719.971 682.727,722.077C682.566,723.11 682.044,726.142 681.568,728.815C681.093,731.488 680.656,734.154 680.6,734.738C680.547,735.322 680.243,737.361 679.929,739.267C679.616,741.174 679.142,744.424 678.881,746.491C678.617,748.555 678.272,751.173 678.113,752.305C677.955,753.438 677.763,755.258 677.686,756.35C677.612,757.442 677.437,759.049 677.3,759.925C677.163,760.798 677.052,761.773 677.054,762.091C677.054,762.409 676.913,764.555 676.738,766.858C675.842,778.743 676.281,791.978 677.96,803.64C678.206,805.358 678.543,807.178 678.704,807.684C678.867,808.191 679.267,809.969 679.595,811.638C679.924,813.308 680.309,814.887 680.453,815.149C680.597,815.412 680.918,816.416 681.169,817.381C681.706,819.46 683.84,825.488 684.19,825.924C684.325,826.092 684.847,827.203 685.35,828.395C689.04,837.132 696.926,847.624 703.655,852.752C704.419,853.333 705.236,854.002 705.472,854.236C706.929,855.695 716.247,860.985 720.61,861.618C737.335,864.049 743.893,860.468 756.163,853.515C787.198,835.928 818.337,774.149 824.63,760.069C830.638,746.624 837.372,729.161 840.338,719.333C844.211,706.504 844.921,704.212 845.266,703.442C846.596,700.487 852.552,675.778 855.365,661.552C858.409,646.161 861.881,620.759 861.887,613.843ZM807.349,600C808.545,598.478 812.518,599.136 816.342,601.49C820.731,604.191 822.974,608.698 820.57,609.984C819.481,610.567 817.396,609.435 817.396,608.261C817.396,607.001 815.838,605.8 815.515,606.814C815.413,607.136 815.039,607.687 814.683,608.041C814.328,608.393 813.236,609.535 812.255,610.579L810.473,612.475L812.196,614.912C816.633,621.187 816.353,622.619 809.691,627.698L808.486,628.617L808.361,633.094C808.235,637.676 807.393,643.367 806.588,645.085C806.365,645.561 805.831,647.055 805.401,648.406C804.971,649.756 804.234,651.706 803.763,652.739C802.528,655.442 800.611,659.216 800.386,659.385C800.278,659.463 799.504,660.467 798.663,661.615C792.622,669.847 783.246,673.213 776.319,669.635C768.473,665.582 765.887,657.846 766.858,641.328C767.035,638.309 767.243,634.582 767.317,633.046L767.454,630.253L765.773,629.908C759.175,628.553 757.107,625.719 759.524,621.343C760.064,620.361 760.877,618.501 761.33,617.209C761.782,615.918 762.231,614.781 762.328,614.684C763.082,613.929 762.418,612.662 760.207,610.629L757.922,608.53L757.107,610.048C756.273,611.601 755.772,611.901 754.526,611.588C751.65,610.866 754.684,604.916 759.132,602.553C761.493,601.3 765.143,602.211 765.336,604.103C765.469,605.429 764.606,606.022 762.606,605.975L760.959,605.938L761.548,606.587C761.872,606.945 762.382,607.54 762.682,607.911C763.424,608.828 767.492,611.884 768.964,612.631C769.623,612.964 770.228,613.342 770.311,613.47C770.519,613.791 774.889,615.642 776.028,615.892C776.539,616.004 777.312,616.271 777.747,616.486C779.734,617.467 785.868,617.743 790.817,617.074C798.8,615.996 807.779,610.913 811.409,605.42L812.499,603.77L811.698,603.435C811.256,603.252 810.227,603.016 809.408,602.913C807.209,602.634 806.294,601.341 807.349,600ZM807.779,616.124C806.989,614.968 807.302,614.916 804.395,616.674C802.527,617.804 797.195,620.094 796.432,620.094C796.281,620.094 798.32,623.885 798.94,624.76C799.24,625.183 799.485,625.639 799.485,625.774C799.485,626.129 800.899,627.605 801.239,627.605C802.813,627.605 811.041,621.907 811.041,620.816C811.041,620.605 810.45,619.674 809.729,618.747C809.008,617.819 808.131,616.639 807.779,616.124ZM767.87,616.67C766.929,616.169 766.083,615.762 765.993,615.765C765.901,615.767 765.457,616.97 765.007,618.436C764.554,619.905 763.791,621.749 763.311,622.536C761.928,624.802 763.498,625.604 771.354,626.648L772.55,626.805L772.729,624.679C772.83,623.507 772.982,621.834 773.07,620.96L773.232,619.371L771.84,618.821C771.075,618.52 770.254,618.117 770.016,617.927C769.777,617.738 768.811,617.171 767.87,616.67ZM780.561,621.271C779.45,621.094 778.198,620.881 777.78,620.796C776.853,620.607 776.3,623.415 776.4,627.814C776.484,631.448 776.354,631.361 781.722,631.361C790.259,631.361 790.528,631.179 790.528,625.368L790.528,621.21L789.878,621.432C788.94,621.751 782.932,621.647 780.561,621.271ZM797.318,645.932C794.839,645.138 791.469,645.081 790.044,645.809C787.571,647.069 784.173,651.963 784.173,654.261C784.173,656.064 782.327,656.988 781.126,655.787C780.056,654.717 780.871,650.186 782.568,647.763C783.294,646.726 783.117,646.584 781.315,646.747C776.007,647.229 770.54,653.148 771.731,657.125C771.933,657.803 772.157,658.685 772.228,659.087C772.443,660.315 774.126,662.844 775.634,664.206C783.239,671.077 795.546,663.944 800.578,649.753L801.074,648.354L799.918,647.373C799.282,646.835 798.112,646.185 797.318,645.932Z"/>
        </g>
    </g>
</svg>
