<?xml version="1.0" encoding="UTF-8" standalone="no"?>
<!DOCTYPE svg PUBLIC "-//W3C//DTD SVG 1.1//EN" "http://www.w3.org/Graphics/SVG/1.1/DTD/svg11.dtd">
<svg width="100%" height="100%" viewBox="0 0 1500 1500" version="1.1" xmlns="http://www.w3.org/2000/svg" xmlns:xlink="http://www.w3.org/1999/xlink" xml:space="preserve" xmlns:serif="http://www.serif.com/" style="fill-rule:evenodd;clip-rule:evenodd;stroke-linejoin:round;stroke-miterlimit:2;">
    <rect x="0" y="0" width="1500" height="1500"/>
    <g transform="matrix(2.5365,0,0,2.5365,-1218.67,-1002.44)">
        <g transform="matrix(0.4862,0,0,0.4862,386.19,381.896)">
            <path d="M928.983,270.267C932.313,269.23 948.756,269.262 950.781,270.31C951.676,270.777 953.78,271.337 955.452,271.558C959.638,272.114 968.301,275.195 968.301,276.132C968.301,276.385 968.786,276.596 969.385,276.596C970.694,276.596 975.221,279.776 977.421,282.24C981.967,287.334 984.944,291.135 985.272,292.265C985.475,292.96 986.527,295.403 987.607,297.688C991.964,306.915 990.616,308.409 983.614,302.112C982.035,300.694 973.075,296.333 970.084,295.527C968.611,295.132 967.128,294.6 966.79,294.347C961.691,290.557 935.508,290.172 924.726,293.727C918.626,295.738 918.64,295.745 918.113,290.857C917.885,288.732 917.464,286.058 917.179,284.914C916.027,280.286 915.945,277.056 916.958,275.94C918.22,274.542 923.4,271.84 924.812,271.84C925.418,271.84 926.113,271.64 926.359,271.394C926.602,271.152 927.782,270.642 928.983,270.267ZM724.971,271.316C728.347,270.738 741.753,271.159 744.58,271.936C752.231,274.032 758.428,277.052 761.041,279.961C762.139,281.177 760.745,289.092 758.178,296.23C756.952,299.638 756.823,299.67 752.666,297.663C750.944,296.836 748.687,295.998 747.65,295.809C746.616,295.62 745.233,295.139 744.58,294.743C743.514,294.098 739.785,293.385 731.802,292.294C722.422,291.01 708.956,292.254 701.619,295.082C700.87,295.374 699.725,295.609 699.076,295.609C697.682,295.609 691.532,298.629 688.017,301.039C686.445,302.12 685.386,302.515 685.14,302.116C684.716,301.432 687.111,295.014 687.789,295.014C688.021,295.014 688.669,294.041 689.24,292.85C694.117,282.621 705.751,274.403 718.136,272.432C720.589,272.043 723.663,271.54 724.971,271.316ZM713.937,316.413C729.581,313.764 743.25,320.449 754.631,336.314C757.03,339.658 764.243,354.105 764.749,356.579C764.877,357.2 765.793,360.647 766.785,364.241C772.664,385.544 771.12,414.811 763.202,432.217C760.374,438.431 757.939,443.094 756.67,444.731C752.816,449.701 751.379,451.351 748.117,454.56C738.223,464.293 720.429,467.491 710.799,461.266C709.648,460.521 707.084,458.995 705.105,457.879C695.561,452.499 684.626,436.292 680.013,420.69C675.31,404.789 673.742,381.836 676.476,368.994C676.826,367.361 677.521,364.013 678.024,361.56C682.541,339.48 698.859,318.966 713.937,316.413ZM866.227,448.588C868.687,445.458 876.859,446.813 884.724,451.654C893.751,457.209 898.365,466.479 893.42,469.124C891.181,470.322 886.892,467.994 886.892,465.58C886.892,462.988 883.686,460.518 883.023,462.603C882.813,463.267 882.043,464.4 881.312,465.128C880.581,465.851 878.335,468.201 876.317,470.347L872.652,474.248L876.196,479.26C885.323,492.167 884.745,495.112 871.044,505.558L868.566,507.447L868.309,516.657C868.049,526.08 866.316,537.784 864.662,541.318C864.202,542.298 863.104,545.371 862.22,548.149C861.336,550.926 859.821,554.937 858.851,557.062C856.312,562.62 852.369,570.382 851.906,570.731C851.685,570.892 850.091,572.956 848.362,575.316C835.937,592.248 816.652,599.171 802.405,591.813C786.269,583.477 780.949,567.565 782.946,533.592C783.31,527.381 783.738,519.716 783.891,516.557L784.172,510.813L780.714,510.104C767.145,507.316 762.891,501.486 767.861,492.488C768.974,490.466 770.646,486.641 771.576,483.984C772.507,481.328 773.43,478.989 773.63,478.79C775.181,477.239 773.815,474.633 769.266,470.451L764.567,466.133L762.891,469.256C761.176,472.451 760.146,473.068 757.583,472.422C751.668,470.939 757.907,458.699 767.056,453.84C771.912,451.262 779.42,453.138 779.816,457.027C780.09,459.755 778.315,460.974 774.2,460.878L770.813,460.803L772.026,462.136C772.692,462.874 773.74,464.097 774.357,464.86C775.883,466.746 784.251,473.032 787.278,474.568C788.633,475.253 789.877,476.03 790.048,476.294C790.476,476.954 799.464,480.761 801.806,481.275C802.858,481.507 804.448,482.056 805.343,482.498C809.429,484.516 822.046,485.082 832.225,483.706C848.643,481.489 867.112,471.035 874.577,459.737L876.82,456.343L875.173,455.655C874.263,455.277 872.146,454.792 870.463,454.582C865.939,454.008 864.056,451.348 866.227,448.588ZM943.045,309.953C966.372,305.446 988.823,326.453 993.893,357.524C995.273,365.981 995.925,380.299 995.101,384.11C994.781,385.601 994.231,389.43 993.886,392.621C993.54,395.812 993.012,398.888 992.716,399.455C992.417,400.022 991.582,402.896 990.866,405.837C990.146,408.778 988.937,412.654 988.178,414.451C987.418,416.248 985.839,419.988 984.666,422.758C983.493,425.532 981.913,428.74 981.154,429.888L976.861,436.424C961.552,459.744 932.809,471.142 915.713,460.671C903.271,453.048 891.494,438.138 889.733,427.778C889.573,426.822 888.87,423.899 888.175,421.285C886.756,415.959 886.496,413.791 885.979,403.163C885.437,392 887.879,371.856 890.35,367.129C890.667,366.523 891.769,363.439 892.796,360.276C895.163,353.014 901.691,340.528 905.927,335.173C912.366,327.03 915.988,323.051 918.209,321.693C919.45,320.93 921.65,319.411 923.094,318.313C928.106,314.513 935.515,311.407 943.045,309.953ZM592.421,755.762C594.644,734.592 606.618,670.869 608.725,661.05C609.67,656.636 611.014,650.889 611.709,648.276C612.405,645.659 614.173,638.172 615.642,631.637C618.79,617.593 622.173,603.831 623.083,601.332C623.443,600.351 624.498,596.562 625.432,592.911C626.366,589.26 627.379,585.784 627.685,585.188C627.992,584.589 628.844,581.694 629.579,578.753C630.313,575.812 631.115,573.138 631.361,572.81C631.611,572.482 631.996,571.412 632.22,570.432C632.773,568.018 637.24,553.711 638.253,551.122C638.698,549.978 639.511,547.439 640.06,545.482C640.606,543.525 641.28,541.521 641.554,541.025C642.246,539.781 646.235,527.502 646.239,526.6C646.243,526.197 646.646,525.096 647.138,524.151C647.63,523.21 648.41,520.935 648.874,519.102C649.983,514.714 651.427,510.382 652.764,507.447C653.359,506.139 654.033,504.132 654.257,502.991C654.486,501.846 655.006,500.374 655.413,499.722C655.823,499.069 656.607,497.169 657.156,495.504C657.705,493.839 658.682,491.443 659.327,490.181C659.973,488.915 660.497,487.464 660.497,486.954C660.497,486.441 660.86,485.496 661.302,484.851C661.748,484.205 662.582,482.205 663.16,480.408C663.737,478.612 664.443,476.886 664.729,476.576C665.017,476.266 665.253,475.652 665.253,475.214C665.253,474.511 668.023,467.969 669.342,465.555C669.998,464.354 671.791,464.154 673.906,465.049C674.865,465.456 675.916,465.809 676.244,465.834C676.572,465.862 677.107,466.04 677.432,466.233C677.76,466.422 680.034,467.056 682.484,467.634C684.937,468.215 687.628,469.035 688.466,469.459C689.308,469.884 692.203,470.793 694.905,471.481C697.604,472.169 700.257,472.978 700.802,473.278C701.348,473.577 705.006,474.679 708.927,475.727C712.849,476.775 716.19,477.82 716.354,478.048C716.518,478.28 719.192,479.196 722.297,480.091C725.399,480.982 732.351,483.139 737.745,484.883C743.136,486.626 749.497,488.641 751.878,489.364C757.526,491.072 757.7,491.34 761.701,504.271C768.485,526.201 770.418,533.973 769.58,535.97C769.166,536.95 768.114,540.023 767.237,542.801C766.357,545.578 763.929,553.201 761.84,559.736C732.412,651.745 719.719,721.057 722.885,772.465C724.454,797.932 729.175,811.79 740.23,823.381C741.835,825.064 743.375,826.853 743.657,827.356C745.257,830.216 763.704,814.732 775.776,800.392C800.537,770.986 832.193,708.69 850.062,654.216C851.136,650.95 852.202,648.14 852.43,647.976C853.713,647.067 865.097,608.619 870.527,586.86C871.696,582.172 872.887,577.894 873.176,577.355C874.499,574.863 881.358,540.558 884.528,520.578C885.198,516.361 885.883,512.688 886.05,512.417C886.467,511.74 889.248,490.156 889.259,487.5C889.277,483.557 890.885,479.435 892.689,478.697C894.635,477.906 916.455,474.119 924.031,473.26C926.973,472.925 934.37,471.855 940.467,470.878C946.567,469.905 952.849,469.017 954.432,468.907C958.322,468.643 977.061,465.655 979.336,464.939C984.242,463.395 984.58,463.823 992.52,481.599C996.096,489.603 1002.84,504.677 1007.49,515.091C1016.81,535.913 1016.72,535.556 1015.46,544.883C1006.16,613.668 983.846,693.993 955.006,762.529L949.933,774.579C949.933,774.579 894.094,899.929 821.708,959.532C765.001,1006.22 694.555,1017.31 646.567,975.925C646.277,975.675 636.557,967.541 629.224,957.617C625.382,952.418 618.309,942.219 618.309,941.866C618.309,941.687 617.417,940.133 616.326,938.411C613.681,934.232 609.581,926.05 606.126,918.046C604.572,914.452 603.106,911.244 602.864,910.916C602.297,910.149 599.726,902.149 598.094,896.063C597.391,893.446 596.446,890.187 595.994,888.814C595.541,887.445 594.732,883.702 594.19,880.497C593.651,877.291 593.006,874.404 592.76,874.076C592.51,873.748 592.125,871.608 591.901,869.323C591.68,867.034 591.131,863.023 590.681,860.41C590.232,857.793 589.697,852.848 589.487,849.415C589.28,845.985 588.863,841.375 588.56,839.172C588.136,836.095 587.868,817.566 588.075,805.74C588.093,804.653 588.977,790.88 589.483,783.756C589.926,777.539 591.006,767.449 591.523,764.675C591.819,763.089 591.958,761.62 591.829,761.416C591.705,761.21 592.115,758.683 592.421,755.762Z" style="fill:rgb(254,254,254);"/>
            <path d="M586.801,761.862L586.743,761.475C586.718,760.813 587.069,758.2 587.381,755.233C589.616,733.944 601.651,669.864 603.77,659.988C604.733,655.49 606.103,649.636 606.811,646.975C607.499,644.388 609.245,636.986 610.697,630.528C613.91,616.192 617.392,602.151 618.32,599.599L618.325,599.585C618.664,598.662 619.643,595.091 620.522,591.655C621.555,587.619 622.752,583.795 623.139,582.952L623.079,583.08C623.079,583.08 624.069,579.899 624.662,577.525C625.309,574.934 626.016,572.535 626.406,571.493L627.307,569.769C627.2,569.921 626.968,570.312 626.968,570.312C626.968,570.312 627.197,569.664 627.28,569.301C627.853,566.798 632.483,551.96 633.53,549.283C633.939,548.234 634.678,545.907 635.179,544.121C635.861,541.672 636.778,539.19 637.121,538.569L637.125,538.563C637.69,537.546 640.61,528.39 641.205,525.977L641.236,525.847C641.236,525.847 641.219,526.003 641.202,526.174C641.328,525.209 641.832,523.367 642.643,521.81L642.646,521.803C643.029,521.07 643.6,519.287 643.96,517.861C645.151,513.147 646.716,508.498 648.151,505.348C648.597,504.367 649.116,502.867 649.285,502.012L649.287,502C649.635,500.256 650.492,498.036 651.111,497.042L651.122,497.025C651.422,496.548 651.941,495.135 652.343,493.917C652.967,492.026 654.082,489.307 654.812,487.879C655.117,487.281 655.498,486.228 655.498,486.228C655.498,486.228 655.429,486.775 655.429,486.954L655.841,484.586C656.118,483.749 656.563,482.824 657.058,482.08C657.141,481.893 657.957,480.034 658.335,478.858C658.969,476.884 659.849,475.03 660.453,473.974L660.777,472.472C661.592,470.182 663.749,465.223 664.894,463.127L665.758,461.888L666.853,460.88L668.069,460.157L669.309,459.706C671.026,459.245 673.352,459.311 675.881,460.382L675.883,460.383C676.371,460.59 677.188,460.863 677.188,460.863C677.188,460.863 676.866,460.808 676.695,460.787L678.451,461.167C678.451,461.167 679.904,461.823 679.961,461.842C679.847,461.776 679.429,461.581 679.429,461.581C679.429,461.581 681.751,462.254 683.647,462.701L683.652,462.703C686.573,463.395 689.758,464.433 690.748,464.934C691.452,465.289 693.893,465.994 696.156,466.57L696.157,466.57C699.243,467.357 702.252,468.363 703.118,468.773L702.923,468.679C702.923,468.679 706.959,469.955 710.236,470.831C714.231,471.899 717.675,473.025 718.463,473.415L718.824,473.641C719.189,473.77 721.671,474.636 723.697,475.22C726.83,476.121 733.855,478.299 739.304,480.061C744.662,481.793 750.985,483.796 753.345,484.513C755.636,485.206 757.228,485.807 758.526,486.664C760.077,487.687 761.34,489.025 762.515,491.34L762.635,491.582C762.873,491.076 763.134,490.564 763.421,490.044C764.433,488.206 765.947,484.724 766.793,482.309C767.51,480.265 768.244,478.392 768.72,477.298C768.098,476.533 767.016,475.266 765.836,474.182L765.793,474.142C764.891,475.342 764.014,476.117 763.152,476.631L761.695,477.305L760.164,477.656C759.086,477.79 757.849,477.715 756.35,477.338L754.883,476.83L753.485,476.022L752.263,474.924L751.318,473.618L750.685,472.225L750.334,470.839C750.199,470.04 750.162,469.167 750.242,468.236C750.722,462.697 756.641,453.633 764.678,449.364L764.679,449.364C769.705,446.696 776.649,447.34 780.566,449.888C781.698,450.625 782.622,451.507 783.313,452.474L784.326,454.33L784.858,456.514L784.858,456.52L784.896,458.089L784.635,459.766L783.973,461.465L782.891,462.999C782.458,463.476 781.926,463.926 781.285,464.324C784.036,466.5 787.828,469.164 789.563,470.045C791.518,471.033 793.18,472.371 793.924,473.11C793.56,472.731 793.076,472.265 793.076,472.265C793.076,472.265 801.074,475.926 802.891,476.324L802.897,476.326C804.292,476.633 806.4,477.367 807.587,477.954C808.859,478.582 811.218,478.899 814.068,479.141C819.234,479.581 825.803,479.46 831.547,478.684C845.356,476.819 860.831,468.72 868.529,459.392C865.184,458.69 862.918,457.058 861.696,455.33L860.539,452.907L860.289,450.154L860.956,447.587L862.244,445.456L863.492,444.175L864.899,443.217C866.109,442.549 867.594,442.083 869.322,441.912C873.837,441.465 880.737,443.249 887.38,447.338C895.401,452.274 900.197,459.888 900.488,464.943C900.536,465.782 900.488,466.582 900.355,467.335L899.553,469.782L897.977,471.985L897.189,472.57C904.186,471.208 915.104,469.333 921.341,468.491C918.401,467.72 915.622,466.558 913.066,464.993C899.382,456.61 886.674,440.021 884.737,428.627L884.735,428.617C884.586,427.729 883.923,425.016 883.278,422.59C881.776,416.951 881.464,414.66 880.917,403.409C880.336,391.433 883.208,369.853 885.858,364.781L885.86,364.778C886.14,364.243 887.069,361.504 887.976,358.711L887.977,358.706C890.494,350.986 897.449,337.722 901.952,332.029C909.015,323.096 913.128,318.86 915.554,317.376C916.69,316.677 918.704,315.285 920.026,314.279L920.032,314.275C925.577,310.07 933.753,306.586 942.084,304.977C967.824,300.004 993.3,322.422 998.895,356.708C1000.37,365.763 1000.94,381.1 1000.06,385.177C999.755,386.576 999.249,390.171 998.924,393.167C998.496,397.118 997.628,400.891 997.237,401.742L997.32,401.565C997.32,401.565 996.363,404.682 995.79,407.037L995.788,407.042C995.004,410.247 993.673,414.466 992.846,416.424C992.086,418.221 990.506,421.963 989.334,424.732C988.023,427.831 986.229,431.402 985.39,432.671L981.098,439.205C973.87,450.214 963.852,458.736 953.331,463.921C953.639,463.888 953.891,463.864 954.079,463.851L954.089,463.851C957.794,463.599 975.647,460.787 977.813,460.105L977.815,460.104C980.545,459.245 982.549,459.092 984.364,459.661L985.73,460.238L986.925,461.02C987.52,461.484 988.135,462.084 988.764,462.879C990.577,465.169 992.891,470.002 997.147,479.532C1000.72,487.536 1007.47,502.609 1012.12,513.023C1022.27,535.705 1021.85,535.4 1020.48,545.561L1020.48,545.562C1011.12,614.753 988.687,695.554 959.678,764.494L954.604,776.546L954.562,776.642C954.562,776.642 898.062,903.226 824.929,963.444C766.128,1011.86 693.018,1022.67 643.257,979.763C642.955,979.502 632.809,970.996 625.148,960.628C621.603,955.831 615.382,946.876 614.171,944.871L613.582,943.543L613.644,943.809C613.644,943.809 612.782,942.285 612.045,941.123L612.044,941.122C609.307,936.798 605.048,928.338 601.475,920.058C600.157,917.012 598.515,913.51 598.515,913.51C598.515,913.51 598.731,913.851 598.789,913.929L597.569,911.46C596.532,908.73 594.552,902.419 593.199,897.376C592.523,894.859 591.616,891.723 591.182,890.406C590.688,888.913 589.783,884.836 589.193,881.342L589.192,881.336C588.808,879.05 588.104,876.042 588.104,876.042C588.104,876.042 588.59,876.962 588.727,877.144L587.737,875.114C587.452,874.153 587.076,872.046 586.857,869.819L586.856,869.81C586.644,867.617 586.117,863.772 585.687,861.268C585.215,858.521 584.649,853.329 584.429,849.724L584.428,849.72C584.229,846.419 583.831,841.982 583.54,839.864C583.105,836.715 582.796,817.754 583.008,805.657C583.026,804.556 583.916,790.61 584.428,783.397C584.884,776.993 586.008,766.603 586.541,763.746C586.665,763.081 586.77,762.143 586.801,761.862ZM866.227,448.588C864.056,451.348 865.939,454.008 870.463,454.582C872.146,454.792 874.263,455.277 875.173,455.655L876.82,456.343L874.577,459.737C867.112,471.035 848.643,481.489 832.225,483.706C822.046,485.082 809.429,484.516 805.343,482.498C804.448,482.056 802.858,481.507 801.806,481.275C799.464,480.761 790.476,476.954 790.048,476.294C789.877,476.03 788.633,475.253 787.278,474.568C784.251,473.032 775.883,466.746 774.357,464.86C773.74,464.097 772.692,462.874 772.026,462.136L770.813,460.803L774.2,460.878C778.315,460.974 780.09,459.755 779.816,457.027C779.42,453.138 771.912,451.262 767.056,453.84C757.907,458.699 751.668,470.939 757.583,472.422C760.146,473.068 761.176,472.451 762.891,469.256L764.567,466.133L769.266,470.451C773.815,474.633 775.181,477.239 773.63,478.79C773.43,478.989 772.507,481.328 771.576,483.984C770.646,486.641 768.974,490.466 767.861,492.488C762.891,501.486 767.145,507.316 780.714,510.104L784.172,510.813L783.891,516.557C783.738,519.716 783.31,527.381 782.946,533.592C780.949,567.565 786.269,583.477 802.405,591.813C816.652,599.171 835.937,592.248 848.362,575.316C850.091,572.956 851.685,570.892 851.906,570.731C852.369,570.382 856.312,562.62 858.851,557.062C859.821,554.937 861.336,550.926 862.22,548.149C863.104,545.371 864.202,542.298 864.662,541.318C866.316,537.784 868.049,526.08 868.309,516.657L868.566,507.447L871.044,505.558C884.745,495.112 885.323,492.167 876.196,479.26L872.652,474.248L876.317,470.347C878.335,468.201 880.581,465.851 881.312,465.128C882.043,464.4 882.813,463.267 883.023,462.603C883.686,460.518 886.892,462.988 886.892,465.58C886.892,467.994 891.181,470.322 893.42,469.124C898.365,466.479 893.751,457.209 884.724,451.654C876.859,446.813 868.687,445.458 866.227,448.588ZM943.045,309.953C935.515,311.407 928.106,314.513 923.094,318.313C921.65,319.411 919.45,320.93 918.209,321.693C915.988,323.051 912.366,327.03 905.927,335.173C901.691,340.528 895.163,353.014 892.796,360.276C891.769,363.439 890.667,366.523 890.35,367.129C887.879,371.856 885.437,392 885.979,403.163C886.496,413.791 886.756,415.959 888.175,421.285C888.87,423.899 889.573,426.822 889.733,427.778C891.494,438.138 903.271,453.048 915.713,460.671C932.809,471.142 961.552,459.744 976.861,436.424L981.154,429.888C981.913,428.74 983.493,425.532 984.666,422.758C985.839,419.988 987.418,416.248 988.178,414.451C988.937,412.654 990.146,408.778 990.866,405.837C991.582,402.896 992.417,400.022 992.716,399.455C993.012,398.888 993.54,395.812 993.886,392.621C994.231,389.43 994.781,385.601 995.101,384.11C995.925,380.299 995.273,365.981 993.893,357.524C988.823,326.453 966.372,305.446 943.045,309.953ZM592.421,755.762C592.115,758.683 591.705,761.21 591.829,761.416C591.958,761.62 591.819,763.089 591.523,764.675C591.006,767.449 589.926,777.539 589.483,783.756C588.977,790.88 588.093,804.653 588.075,805.74C587.868,817.566 588.136,836.095 588.56,839.172C588.863,841.375 589.28,845.985 589.487,849.415C589.697,852.848 590.232,857.793 590.681,860.41C591.131,863.023 591.68,867.034 591.901,869.323C592.125,871.608 592.51,873.748 592.76,874.076C593.006,874.404 593.651,877.291 594.19,880.497C594.732,883.702 595.541,887.445 595.994,888.814C596.446,890.187 597.391,893.446 598.094,896.063C599.726,902.149 602.297,910.149 602.864,910.916C603.106,911.244 604.572,914.452 606.126,918.046C609.581,926.05 613.681,934.232 616.326,938.411C617.417,940.133 618.309,941.687 618.309,941.866C618.309,942.219 625.382,952.418 629.224,957.617C636.557,967.541 646.277,975.675 646.567,975.925C694.555,1017.31 765.001,1006.22 821.708,959.532C894.094,899.929 949.933,774.579 949.933,774.579L955.006,762.529C983.846,693.993 1006.16,613.668 1015.46,544.883C1016.72,535.556 1016.81,535.913 1007.49,515.091C1002.84,504.677 996.096,489.603 992.52,481.599C984.58,463.823 984.242,463.395 979.336,464.939C977.061,465.655 958.322,468.643 954.432,468.907C952.849,469.017 946.567,469.905 940.467,470.878C934.37,471.855 926.973,472.925 924.031,473.26C916.455,474.119 894.635,477.906 892.689,478.697C890.885,479.435 889.277,483.557 889.259,487.5C889.248,490.156 886.467,511.74 886.05,512.417C885.883,512.688 885.198,516.361 884.528,520.578C881.358,540.558 874.499,574.863 873.176,577.355C872.887,577.894 871.696,582.172 870.527,586.86C865.097,608.619 853.713,647.067 852.43,647.976C852.202,648.14 851.136,650.95 850.062,654.216C832.193,708.69 800.537,770.986 775.776,800.392C763.704,814.732 745.257,830.216 743.657,827.356C743.375,826.853 741.835,825.064 740.23,823.381C729.175,811.79 724.454,797.932 722.885,772.465C719.719,721.057 732.412,651.745 761.84,559.736C763.929,553.201 766.357,545.578 767.237,542.801C768.114,540.023 769.166,536.95 769.58,535.97C770.418,533.973 768.485,526.201 761.701,504.271C757.7,491.34 757.526,491.072 751.878,489.364C749.497,488.641 743.136,486.626 737.745,484.883C732.351,483.139 725.399,480.982 722.297,480.091C719.192,479.196 716.518,478.28 716.354,478.048C716.19,477.82 712.849,476.775 708.927,475.727C705.006,474.679 701.348,473.577 700.802,473.278C700.257,472.978 697.604,472.169 694.905,471.481C692.203,470.793 689.308,469.884 688.466,469.459C687.628,469.035 684.937,468.215 682.484,467.634C680.034,467.056 677.76,466.422 677.432,466.233C677.107,466.04 676.572,465.862 676.244,465.834C675.916,465.809 674.865,465.456 673.906,465.049C671.791,464.154 669.998,464.354 669.342,465.555C668.023,467.969 665.253,474.511 665.253,475.214C665.253,475.652 665.017,476.266 664.729,476.576C664.443,476.886 663.737,478.612 663.16,480.408C662.582,482.205 661.748,484.205 661.302,484.851C660.86,485.496 660.497,486.441 660.497,486.954C660.497,487.464 659.973,488.915 659.327,490.181C658.682,491.443 657.705,493.839 657.156,495.504C656.607,497.169 655.823,499.069 655.413,499.722C655.006,500.374 654.486,501.846 654.257,502.991C654.033,504.132 653.359,506.139 652.764,507.447C651.427,510.382 649.983,514.714 648.874,519.102C648.41,520.935 647.63,523.21 647.138,524.151C646.646,525.096 646.243,526.197 646.239,526.6C646.235,527.502 642.246,539.781 641.554,541.025C641.28,541.521 640.606,543.525 640.06,545.482C639.511,547.439 638.698,549.978 638.253,551.122C637.24,553.711 632.773,568.018 632.22,570.432C631.996,571.412 631.611,572.482 631.361,572.81C631.115,573.138 630.313,575.812 629.579,578.753C628.844,581.694 627.992,584.589 627.685,585.188C627.379,585.784 626.366,589.26 625.432,592.911C624.498,596.562 623.443,600.351 623.083,601.332C622.173,603.831 618.79,617.593 615.642,631.637C614.173,638.172 612.405,645.659 611.709,648.276C611.014,650.889 609.67,656.636 608.725,661.05C606.618,670.869 594.644,734.592 592.421,755.762ZM890.221,474.347C889.093,474.135 887.948,473.73 886.898,473.161C885.498,472.401 884.285,471.355 883.43,470.215C882.456,471.229 881.193,472.56 880.01,473.818L879.18,474.702L880.334,476.334C882.14,478.889 883.575,481.161 884.664,483.219C885.145,480.966 885.951,478.914 886.883,477.454L888.739,475.266L890.221,474.347ZM613.268,942.082L613.241,941.866C613.241,941.906 613.251,941.982 613.268,942.082ZM769.807,475.528L770.046,475.206C769.957,475.296 769.877,475.405 769.807,475.528ZM660.417,474.14C660.274,474.505 660.185,474.889 660.185,475.214L660.417,474.14ZM660.675,473.6C660.792,473.412 660.892,473.269 660.969,473.179C660.866,473.299 660.766,473.442 660.675,473.6ZM882.502,502.27C880.459,504.462 877.703,506.853 874.117,509.588L873.565,510.009L873.375,516.797C873.094,526.997 871.043,539.642 869.252,543.467L869.25,543.47C868.832,544.361 867.853,547.161 867.049,549.686C866.109,552.64 864.493,556.906 863.461,559.166L863.461,559.167C861.366,563.753 858.341,569.79 856.972,572.207C856.519,573.005 856.151,573.548 855.951,573.8L854.985,574.75C855.181,574.584 855.529,574.266 855.529,574.266C855.529,574.266 853.851,576.399 852.45,578.311L852.448,578.314C838.356,597.516 816.237,604.661 800.079,596.315C782.516,587.243 775.714,570.272 777.887,533.295C778.249,527.103 778.676,519.461 778.829,516.311L778.898,514.898C774.991,514.034 771.775,512.861 769.196,511.46C772.308,521.809 773.953,528.018 774.532,531.573C775.071,534.885 774.699,536.867 774.253,537.931L774.249,537.939C773.863,538.856 772.89,541.731 772.07,544.327L772.068,544.333C771.187,547.112 768.757,554.74 766.667,561.279C737.493,652.494 724.805,721.19 727.944,772.154C729.411,795.98 733.554,809.039 743.898,819.883L743.898,819.884C744.461,820.474 745.012,821.08 745.52,821.659C746.333,821.165 747.302,820.545 748.164,819.908C754.785,815.015 764.559,805.847 771.899,797.128C796.369,768.067 827.588,706.47 845.247,652.636L845.248,652.634C846.368,649.225 847.543,646.27 847.948,645.569L849.467,643.867C849.159,644.122 848.159,645.307 848.159,645.307C848.159,645.307 848.302,644.986 848.395,644.753C851.192,637.744 860.777,605.001 865.61,585.634C866.911,580.418 868.349,575.685 868.687,575.003C868.646,575.085 868.575,575.241 868.575,575.241C868.575,575.241 869.151,573.261 869.629,571.243C872.145,560.623 877.005,535.653 879.523,519.784L879.523,519.783C880.172,515.696 880.858,512.09 881.115,511.196C881.115,511.196 881.733,509.769 881.735,509.76C881.63,509.93 881.202,510.981 881.202,510.981C881.202,510.981 881.238,510.811 881.261,510.691C881.532,509.244 882.01,505.948 882.502,502.27ZM747.282,823.771C747.68,824.279 747.961,824.671 748.078,824.879C747.858,824.487 747.598,824.106 747.282,823.771ZM881.886,465.957L881.824,465.58C881.824,465.72 881.846,465.845 881.886,465.957ZM924.295,266.802C925.161,266.324 926.292,265.798 927.476,265.429C930.054,264.626 939.731,264.246 946.077,264.582C949.578,264.767 952.246,265.362 953.111,265.809L953.126,265.817C953.695,266.114 955.053,266.393 956.116,266.534L956.12,266.534C960.588,267.128 969.202,270.321 971.171,271.797L971.24,271.807C971.906,272.003 972.795,272.38 973.786,272.943C976.106,274.261 979.34,276.779 981.201,278.864L981.203,278.866C984.563,282.632 987.101,285.736 988.447,287.664C989.451,289.103 989.958,290.229 990.136,290.843C990.312,291.445 991.254,293.544 992.189,295.522L992.19,295.524C994.078,299.522 994.972,302.393 995.132,304.042L994.941,306.697L994.488,307.874L993.633,309.117L992.592,310.02L991.384,310.639L989.149,310.998L987.576,310.759L985.877,310.093C984.554,309.423 982.643,308.055 980.227,305.882C978.894,304.685 971.29,301.101 968.768,300.422C966.495,299.811 964.279,298.798 963.766,298.415C962.649,297.584 960.072,297.276 956.902,296.903C947.451,295.794 933.357,296.218 926.313,298.54C923.659,299.415 921.916,299.912 920.769,300.023L918.88,299.979L917.313,299.528L915.448,298.27L914.277,296.69C913.756,295.71 913.359,294.04 913.074,291.401L913.074,291.398C912.872,289.519 912.513,287.151 912.261,286.139L912.261,286.137C911.239,282.032 911.015,278.781 911.333,276.723L912.045,274.294L913.204,272.535C914.383,271.237 917.999,268.96 920.757,267.794C922.163,267.199 923.432,266.894 924.295,266.802ZM972.289,272.977L972.688,273.602C972.573,273.387 972.44,273.176 972.289,272.977ZM972.982,274.244L973.139,274.711C973.094,274.558 973.042,274.401 972.982,274.244ZM973.285,275.315L973.369,276.132C973.369,275.909 973.343,275.628 973.285,275.315ZM970.544,271.703C970.198,271.591 969.812,271.528 969.385,271.528L970.544,271.703ZM924.087,266.919C923.515,267.141 923.024,267.562 922.776,267.81C922.965,267.621 923.437,267.29 924.087,266.919ZM928.983,270.267C927.782,270.642 926.602,271.152 926.359,271.394C926.113,271.64 925.418,271.84 924.812,271.84C923.4,271.84 918.22,274.542 916.958,275.94C915.945,277.056 916.027,280.286 917.179,284.914C917.464,286.058 917.885,288.732 918.113,290.857C918.64,295.745 918.626,295.738 924.726,293.727C935.508,290.172 961.691,290.557 966.79,294.347C967.128,294.6 968.611,295.132 970.084,295.527C973.075,296.333 982.035,300.694 983.614,302.112C990.616,308.409 991.964,306.915 987.607,297.688C986.527,295.403 985.475,292.96 985.272,292.265C984.944,291.135 981.967,287.334 977.421,282.24C975.221,279.776 970.694,276.596 969.385,276.596C968.786,276.596 968.301,276.385 968.301,276.132C968.301,275.195 959.638,272.114 955.452,271.558C953.78,271.337 951.676,270.777 950.781,270.31C948.756,269.262 932.313,269.23 928.983,270.267ZM684.369,291.224C684.469,291.049 684.584,290.839 684.665,290.669C690.193,279.077 703.303,269.661 717.34,267.427L717.343,267.426C719.773,267.041 722.818,266.543 724.114,266.321L724.117,266.32C727.871,265.678 742.778,266.185 745.923,267.049C754.752,269.469 761.778,273.206 764.802,276.565L765.912,278.355L766.475,281.218C766.614,284.466 765.265,291.5 762.947,297.945C762.202,300.016 761.504,301.278 760.844,302.012L759.547,303.117L757.795,303.882C756.494,304.22 754.299,304.079 750.472,302.231C749.185,301.613 747.517,300.936 746.742,300.795L746.739,300.794C745.242,300.521 743.293,299.814 742.215,299.227C741.74,299.123 737.219,298.149 731.115,297.315C722.517,296.138 710.168,297.219 703.441,299.811C702.358,300.23 700.799,300.556 699.669,300.65C698.929,300.984 693.384,303.505 690.887,305.216C689.447,306.206 688.234,306.778 687.406,307.033L686.008,307.313L684.615,307.271L682.646,306.567L681.635,305.789L680.83,304.781L680.105,302.853L680.092,300.848C680.292,299.369 681.317,296.244 682.254,294.257C682.628,293.464 683.005,292.815 683.308,292.389L684.369,291.224ZM687.522,289.997L687.789,289.946C687.725,289.946 687.634,289.964 687.522,289.997ZM724.971,271.316C723.663,271.54 720.589,272.043 718.136,272.432C705.751,274.403 694.117,282.621 689.24,292.85C688.669,294.041 688.021,295.014 687.789,295.014C687.111,295.014 684.716,301.432 685.14,302.116C685.386,302.515 686.445,302.12 688.017,301.039C691.532,298.629 697.682,295.609 699.076,295.609C699.725,295.609 700.87,295.374 701.619,295.082C708.956,292.254 722.422,291.01 731.802,292.294C739.785,293.385 743.514,294.098 744.58,294.743C745.233,295.139 746.616,295.62 747.65,295.809C748.687,295.998 750.944,296.836 752.666,297.663C756.823,299.67 756.952,299.638 758.178,296.23C760.745,289.092 762.139,281.177 761.041,279.961C758.428,277.052 752.231,274.032 744.58,271.936C741.753,271.159 728.347,270.738 724.971,271.316ZM713.091,311.416C730.585,308.454 746.022,315.618 758.748,333.36C761.372,337.016 769.16,352.858 769.712,355.552C769.835,356.147 770.72,359.449 771.67,362.893C777.848,385.277 776.135,416.026 767.815,434.315C764.752,441.047 762.049,446.064 760.675,447.837C756.62,453.065 755.103,454.797 751.671,458.173C744.89,464.844 734.878,468.873 725.563,469.456C718.961,469.87 712.725,468.546 708.048,465.523L708.046,465.521C706.948,464.811 704.503,463.358 702.617,462.294C692.265,456.459 680.157,439.049 675.153,422.127C670.224,405.461 668.653,381.398 671.519,367.938L671.52,367.933C671.868,366.31 672.559,362.981 673.058,360.544C675.968,346.323 683.453,332.715 692.459,323.505C698.895,316.924 706.151,312.591 713.091,311.416ZM713.937,316.413C698.859,318.966 682.541,339.48 678.024,361.56C677.521,364.013 676.826,367.361 676.476,368.994C673.742,381.836 675.31,404.789 680.013,420.69C684.626,436.292 695.561,452.499 705.105,457.879C707.084,458.995 709.648,460.521 710.799,461.266C720.429,467.491 738.223,464.293 748.117,454.56C751.379,451.351 752.816,449.701 756.67,444.731C757.939,443.094 760.374,438.431 763.202,432.217C771.12,414.811 772.664,385.544 766.785,364.241C765.793,360.647 764.877,357.2 764.749,356.579C764.243,354.105 757.03,339.658 754.631,336.314C743.25,320.449 729.581,313.764 713.937,316.413Z" style="fill:white;"/>
        </g>
        <path d="M837.861,513.3C839.48,512.796 847.475,512.811 848.459,513.321C848.894,513.548 849.917,513.82 850.73,513.928C852.765,514.198 856.977,515.696 856.977,516.152C856.977,516.275 857.213,516.377 857.504,516.377C858.141,516.377 860.342,517.923 861.412,519.121C863.622,521.598 865.069,523.446 865.229,523.995C865.327,524.333 865.839,525.521 866.364,526.632C868.482,531.118 867.827,531.844 864.423,528.783C863.655,528.093 859.299,525.973 857.844,525.581C857.128,525.389 856.407,525.131 856.242,525.008C853.764,523.165 841.033,522.978 835.791,524.706C832.825,525.684 832.832,525.687 832.576,523.311C832.465,522.277 832.26,520.977 832.122,520.421C831.562,518.171 831.522,516.6 832.014,516.058C832.628,515.378 835.147,514.064 835.833,514.064C836.128,514.064 836.466,513.967 836.585,513.848C836.703,513.73 837.277,513.482 837.861,513.3ZM738.67,513.81C740.312,513.529 746.83,513.733 748.204,514.111C751.924,515.131 754.937,516.599 756.208,518.013C756.741,518.604 756.064,522.453 754.816,525.923C754.219,527.58 754.157,527.596 752.136,526.62C751.298,526.218 750.201,525.81 749.697,525.718C749.194,525.626 748.522,525.392 748.204,525.2C747.686,524.886 745.873,524.54 741.992,524.009C737.431,523.385 730.884,523.99 727.316,525.365C726.952,525.507 726.396,525.621 726.08,525.621C725.403,525.621 722.413,527.09 720.703,528.261C719.939,528.787 719.424,528.979 719.304,528.785C719.098,528.452 720.263,525.332 720.592,525.332C720.705,525.332 721.021,524.859 721.298,524.28C723.669,519.306 729.325,515.311 735.347,514.352C736.54,514.163 738.034,513.919 738.67,513.81ZM844.698,532.595C856.04,530.404 866.955,540.617 869.42,555.724C870.091,559.836 870.408,566.797 870.008,568.65C869.852,569.375 869.585,571.237 869.417,572.788C869.248,574.34 868.992,575.835 868.848,576.111C868.702,576.387 868.297,577.784 867.948,579.214C867.598,580.644 867.011,582.528 866.641,583.402C866.272,584.276 865.504,586.094 864.934,587.441C864.364,588.789 863.596,590.35 863.226,590.908L861.139,594.085C853.696,605.424 839.721,610.965 831.409,605.874C825.36,602.168 819.634,594.919 818.778,589.882C818.7,589.417 818.358,587.996 818.02,586.725C817.33,584.135 817.204,583.081 816.952,577.914C816.689,572.486 817.876,562.693 819.078,560.394C819.232,560.099 819.768,558.6 820.267,557.062C821.418,553.531 824.592,547.461 826.651,544.857C829.782,540.898 831.543,538.964 832.623,538.303C833.226,537.932 834.295,537.194 834.997,536.66C837.435,534.812 841.037,533.302 844.698,532.595ZM851.054,536.953C847.338,536.138 845.109,536.372 841.101,537.995C837.889,539.295 836.407,540.473 830.938,546.083C828.041,549.052 823.195,559.697 822.297,565.057C822.111,566.17 821.839,567.34 821.693,567.657C820.86,569.477 820.908,579.987 821.77,584.341C822.111,586.064 822.366,586.272 823.328,585.61C824.144,585.049 829.239,582.825 829.712,582.825C830.217,582.825 830.21,582.606 829.662,581.055C826.701,572.689 829.6,561.108 836.084,555.39C837.256,554.356 840.044,552.654 840.291,552.821C840.331,552.848 841.063,552.703 841.916,552.498C847.211,551.228 853.857,555.58 855.111,561.141C855.166,561.387 855.48,562.5 855.806,563.611C856.745,566.813 856.737,566.832 854.448,567C851.507,567.215 844.843,569.089 841.874,570.536C839.029,571.923 839.27,572.28 843.313,572.663C852.483,573.535 854.812,573.943 856.052,574.891C856.222,575.019 854.883,578.949 854.013,580.878C853.528,581.953 853.185,582.877 853.249,582.93C853.313,582.984 854.405,583.65 855.677,584.411C856.948,585.172 858.482,586.182 859.085,586.656C859.689,587.129 860.226,587.469 860.281,587.41C861.479,586.116 864.294,578.056 865.262,573.147C865.958,569.621 866.097,560.007 865.496,557.113C865.215,555.762 864.95,554.369 864.908,554.017C864.797,553.098 863.944,550.56 863.18,548.879C861.164,544.438 860.874,543.973 858.888,541.985C855.376,538.47 854.029,537.603 851.054,536.953ZM846.924,585.34C846.539,585.035 838.244,584.761 837.187,585.017C833.938,585.808 832.533,586.115 832.366,586.07C831.588,585.856 823.463,589.665 823.463,590.242C823.463,592.255 827.975,598.693 830.669,600.525C831.394,601.019 832.063,601.532 832.156,601.669C833.307,603.359 841.364,604.016 844.576,602.681C845.622,602.248 846.599,601.892 846.747,601.892C847.558,601.892 853.495,597.167 855.234,595.137C858.144,591.738 858.258,590.887 855.995,589.488C855.488,589.174 854.774,588.659 854.41,588.344C853.583,587.625 849.993,586.12 848.454,585.844C847.818,585.732 847.13,585.505 846.924,585.34ZM733.305,535.736C740.912,534.448 747.558,537.698 753.091,545.412C754.257,547.038 757.764,554.062 758.01,555.265C758.073,555.566 758.518,557.243 759,558.99C761.859,569.347 761.108,583.577 757.258,592.04C755.883,595.061 754.7,597.328 754.082,598.124C752.209,600.54 751.51,601.343 749.924,602.903C745.114,607.635 736.462,609.19 731.78,606.164C731.22,605.801 729.974,605.059 729.012,604.517C724.371,601.901 719.055,594.021 716.812,586.435C714.525,578.704 713.763,567.544 715.092,561.301C715.262,560.507 715.6,558.879 715.845,557.686C718.041,546.951 725.975,536.977 733.305,535.736ZM740.513,539.974C740.213,539.548 735.606,539.501 733.845,539.905C730.655,540.638 728.566,542.316 724.689,547.263C723.746,548.468 721.494,553.11 721.485,553.873C721.482,554.076 721.293,554.532 721.066,554.883C717.919,559.739 718.199,578.791 721.539,587.302C722.267,589.157 722.154,589.107 723.421,588.138C725.033,586.903 727.661,585.234 729.291,584.409C731.005,583.541 730.981,583.709 729.641,582.01C725.006,576.121 725.47,566.361 730.65,560.843C736.88,554.207 746.566,556.093 750.981,564.802C752.425,567.647 752.507,567.498 749.123,568.224C745.812,568.936 742.623,570.02 741.31,570.878C739.854,571.831 740.272,572.311 742.012,571.686C745.219,570.529 752.46,570.923 752.798,572.272C753.07,573.357 752.488,576.775 751.694,578.763C751.283,579.786 750.948,580.654 750.948,580.693C750.948,580.731 751.695,580.916 752.609,581.105C753.522,581.292 754.335,581.545 754.415,581.663C754.838,582.296 755.844,582.263 755.977,581.613C756.719,578.013 756.849,570.751 756.249,566.501C756.003,564.754 755.759,562.999 755.707,562.601C755.578,561.62 754.407,557.367 754.107,556.795C753.973,556.542 753.803,555.991 753.727,555.572C752.95,551.292 746.701,543.152 742.697,541.205C741.595,540.668 740.612,540.115 740.513,539.974ZM749.527,584.837C745.908,584.225 745.923,584.227 743.148,584.586C742.115,584.719 740.621,584.891 739.825,584.967C738.483,585.097 736.677,585.652 732.756,587.136C730.984,587.805 728.278,589.384 726.536,590.764C725.9,591.267 725.15,591.764 724.869,591.868C723.191,592.487 726.646,597.698 730.801,600.819C739.329,607.228 749.83,601.818 754.114,588.809C755.09,585.841 754.996,585.761 749.527,584.837ZM674.225,749.347C675.305,739.054 681.127,708.072 682.152,703.299C682.611,701.153 683.265,698.358 683.603,697.088C683.941,695.815 684.8,692.175 685.515,688.998C687.045,682.17 688.69,675.479 689.132,674.263C689.307,673.787 689.82,671.944 690.275,670.169C690.729,668.394 691.221,666.704 691.37,666.414C691.519,666.123 691.933,664.716 692.291,663.286C692.648,661.856 693.038,660.555 693.157,660.396C693.279,660.236 693.466,659.716 693.575,659.24C693.844,658.066 696.016,651.11 696.508,649.851C696.725,649.295 697.12,648.061 697.387,647.109C697.652,646.158 697.98,645.183 698.113,644.942C698.449,644.337 700.389,638.367 700.391,637.929C700.393,637.733 700.589,637.197 700.828,636.738C701.067,636.28 701.447,635.174 701.672,634.283C702.211,632.15 702.913,630.043 703.563,628.617C703.853,627.981 704.18,627.005 704.289,626.45C704.4,625.894 704.653,625.178 704.851,624.861C705.05,624.543 705.432,623.619 705.699,622.81C705.966,622 706.441,620.835 706.754,620.222C707.068,619.606 707.323,618.901 707.323,618.653C707.323,618.403 707.5,617.944 707.715,617.63C707.931,617.317 708.337,616.344 708.618,615.47C708.899,614.597 709.242,613.758 709.381,613.607C709.521,613.456 709.635,613.158 709.635,612.945C709.635,612.603 710.982,609.423 711.624,608.249C711.943,607.665 712.814,607.568 713.842,608.003C714.309,608.2 714.82,608.372 714.98,608.384C715.139,608.398 715.399,608.485 715.557,608.578C715.716,608.67 716.822,608.979 718.013,609.26C719.206,609.542 720.514,609.941 720.922,610.147C721.331,610.353 722.738,610.795 724.052,611.13C725.365,611.465 726.654,611.858 726.919,612.004C727.185,612.149 728.963,612.685 730.87,613.194C732.777,613.704 734.401,614.212 734.481,614.323C734.56,614.436 735.861,614.881 737.37,615.316C738.878,615.75 742.259,616.798 744.881,617.646C747.502,618.494 750.595,619.473 751.753,619.825C754.498,620.655 754.583,620.785 756.528,627.072C759.827,637.735 760.767,641.514 760.359,642.484C760.158,642.961 759.647,644.455 759.22,645.806C758.792,647.156 757.612,650.862 756.596,654.039C742.288,698.774 736.117,732.474 737.656,757.468C738.419,769.85 740.714,776.588 746.09,782.224C746.87,783.042 747.618,783.912 747.755,784.156C748.534,785.547 757.502,778.018 763.372,771.046C775.411,756.749 790.802,726.461 799.49,699.976C800.012,698.388 800.53,697.022 800.641,696.942C801.265,696.5 806.8,677.807 809.44,667.227C810.008,664.948 810.587,662.868 810.728,662.606C811.371,661.394 814.706,644.715 816.247,635.001C816.573,632.95 816.906,631.165 816.987,631.033C817.19,630.704 818.542,620.21 818.547,618.918C818.556,617.001 819.338,614.997 820.215,614.638C821.161,614.254 831.77,612.413 835.453,611.995C836.883,611.832 840.48,611.312 843.445,610.837C846.41,610.364 849.465,609.932 850.234,609.878C852.126,609.75 861.237,608.298 862.342,607.949C864.728,607.199 864.892,607.407 868.753,616.049C870.491,619.941 873.769,627.27 876.033,632.333C880.564,642.457 880.518,642.283 879.906,646.818C875.383,680.261 864.535,719.315 850.513,752.637L848.047,758.496C848.047,758.496 820.898,819.441 785.704,848.42C758.133,871.122 723.882,876.51 700.55,856.39C700.409,856.269 695.684,852.314 692.118,847.489C690.25,844.961 686.811,840.003 686.811,839.831C686.811,839.744 686.378,838.988 685.847,838.151C684.561,836.12 682.568,832.141 680.888,828.25C680.132,826.503 679.42,824.942 679.302,824.783C679.026,824.41 677.777,820.52 676.983,817.561C676.641,816.289 676.182,814.705 675.962,814.037C675.741,813.372 675.348,811.552 675.084,809.993C674.823,808.435 674.509,807.031 674.389,806.871C674.268,806.712 674.081,805.672 673.972,804.561C673.864,803.448 673.597,801.498 673.379,800.227C673.16,798.955 672.9,796.55 672.798,794.881C672.698,793.214 672.495,790.972 672.347,789.901C672.141,788.405 672.011,779.396 672.112,773.647C672.12,773.118 672.55,766.422 672.796,762.958C673.011,759.935 673.537,755.029 673.788,753.681C673.932,752.909 673.999,752.195 673.937,752.096C673.876,751.996 674.076,750.767 674.225,749.347ZM861.887,613.843C861.888,612.239 861.895,612.239 855.098,613.333C851.921,613.845 846.851,614.604 843.831,615.02C833.45,616.455 823.148,618.003 823,618.149C822.919,618.23 822.602,620.423 822.297,623.023C821.48,629.934 820.601,635.904 820.13,637.717C819.903,638.591 819.449,640.865 819.119,642.772C817.45,652.448 813.638,669.065 811.797,674.697C811.563,675.411 810.369,679.441 809.145,683.653C806.779,691.785 802.315,705.29 800.407,710.088C797.113,718.367 793.301,727.364 791.044,732.19C790.337,733.698 789.528,735.454 789.243,736.09C787.475,740.039 786.458,742.072 783.599,747.361C767.251,777.614 750.444,793.108 737.556,789.804C731.915,788.358 728.122,784.271 724.24,775.449C723.557,773.898 722.087,768.295 721.606,765.413C720.26,757.323 720.242,757.092 720.211,746.634C720.169,733.152 720.674,726.96 722.926,713.266C724.546,703.403 727.968,686.867 728.722,685.241C728.87,684.924 729.7,681.84 730.567,678.387C731.433,674.934 732.264,671.88 732.413,671.597C732.56,671.317 733.026,669.786 733.446,668.196C733.865,666.607 734.645,664.007 735.179,662.419C735.715,660.829 736.509,658.293 736.946,656.785C737.382,655.275 737.837,653.909 737.951,653.752C738.067,653.592 738.577,652.096 739.083,650.429C739.589,648.759 740.187,646.995 740.411,646.504C740.634,646.015 741.229,644.325 741.732,642.748C742.234,641.172 742.746,639.754 742.869,639.595C742.99,639.435 743.437,638.265 743.864,636.995C744.288,635.724 744.815,634.294 745.037,633.817C745.257,633.34 745.836,631.845 746.322,630.494C746.809,629.144 747.384,627.648 747.601,627.171C748.678,624.805 748.938,624.037 748.724,623.85C748.511,623.661 741.985,621.688 734.337,619.499C732.588,619 731.028,618.485 730.87,618.357C730.71,618.23 728.694,617.575 726.391,616.904C724.087,616.231 722.068,615.576 721.903,615.448C721.1,614.82 714.463,613.408 714.102,613.787C713.718,614.193 712.554,616.854 711.598,619.516C711.284,620.39 710.928,621.234 710.809,621.394C710.689,621.553 710.424,622.333 710.218,623.127C710.013,623.921 709.687,624.831 709.493,625.15C709.299,625.467 708.935,626.377 708.682,627.171C708.429,627.967 707.817,629.721 707.319,631.071C706.824,632.422 706.156,634.308 705.837,635.261C705.517,636.215 705.141,637.255 704.998,637.572C704.856,637.891 704.149,639.971 703.426,642.195C702.703,644.419 701.991,646.499 701.844,646.818C701.467,647.627 700.679,650.098 700.679,650.467C700.679,650.637 700.497,651.184 700.275,651.685C700.051,652.186 699.332,654.35 698.675,656.496C698.018,658.64 697.168,661.372 696.785,662.563C696.404,663.755 695.832,665.73 695.515,666.954C695.196,668.177 694.82,669.412 694.674,669.698C694.53,669.985 694.048,671.779 693.605,673.686C693.159,675.593 692.698,677.283 692.578,677.441C692.457,677.6 691.824,680.135 691.169,683.075C690.516,686.014 689.86,688.68 689.713,688.998C689.566,689.315 689.297,690.291 689.115,691.164C688.935,692.038 688.21,695.418 687.508,698.675C685.567,707.669 683.053,719.971 682.727,722.077C682.566,723.11 682.044,726.142 681.568,728.815C681.093,731.488 680.656,734.154 680.6,734.738C680.547,735.322 680.243,737.361 679.929,739.267C679.616,741.174 679.142,744.424 678.881,746.491C678.617,748.555 678.272,751.173 678.113,752.305C677.955,753.438 677.763,755.258 677.686,756.35C677.612,757.442 677.437,759.049 677.3,759.925C677.163,760.798 677.052,761.773 677.054,762.091C677.054,762.409 676.913,764.555 676.738,766.858C675.842,778.743 676.281,791.978 677.96,803.64C678.206,805.358 678.543,807.178 678.704,807.684C678.867,808.191 679.267,809.969 679.595,811.638C679.924,813.308 680.309,814.887 680.453,815.149C680.597,815.412 680.918,816.416 681.169,817.381C681.706,819.46 683.84,825.488 684.19,825.924C684.325,826.092 684.847,827.203 685.35,828.395C689.04,837.132 696.926,847.624 703.655,852.752C704.419,853.333 705.236,854.002 705.472,854.236C706.929,855.695 716.247,860.985 720.61,861.618C737.335,864.049 743.893,860.468 756.163,853.515C787.198,835.928 818.337,774.149 824.63,760.069C830.638,746.624 837.372,729.161 840.338,719.333C844.211,706.504 844.921,704.212 845.266,703.442C846.596,700.487 852.552,675.778 855.365,661.552C858.409,646.161 861.881,620.759 861.887,613.843ZM807.349,600C808.545,598.478 812.518,599.136 816.342,601.49C820.731,604.191 822.974,608.698 820.57,609.984C819.481,610.567 817.396,609.435 817.396,608.261C817.396,607.001 815.838,605.8 815.515,606.814C815.413,607.136 815.039,607.687 814.683,608.041C814.328,608.393 813.236,609.535 812.255,610.579L810.473,612.475L812.196,614.912C816.633,621.187 816.353,622.619 809.691,627.698L808.486,628.617L808.361,633.094C808.235,637.676 807.393,643.367 806.588,645.085C806.365,645.561 805.831,647.055 805.401,648.406C804.971,649.756 804.234,651.706 803.763,652.739C802.528,655.442 800.611,659.216 800.386,659.385C800.278,659.463 799.504,660.467 798.663,661.615C792.622,669.847 783.246,673.213 776.319,669.635C768.473,665.582 765.887,657.846 766.858,641.328C767.035,638.309 767.243,634.582 767.317,633.046L767.454,630.253L765.773,629.908C759.175,628.553 757.107,625.719 759.524,621.343C760.064,620.361 760.877,618.501 761.33,617.209C761.782,615.918 762.231,614.781 762.328,614.684C763.082,613.929 762.418,612.662 760.207,610.629L757.922,608.53L757.107,610.048C756.273,611.601 755.772,611.901 754.526,611.588C751.65,610.866 754.684,604.916 759.132,602.553C761.493,601.3 765.143,602.211 765.336,604.103C765.469,605.429 764.606,606.022 762.606,605.975L760.959,605.938L761.548,606.587C761.872,606.945 762.382,607.54 762.682,607.911C763.424,608.828 767.492,611.884 768.964,612.631C769.623,612.964 770.228,613.342 770.311,613.47C770.519,613.791 774.889,615.642 776.028,615.892C776.539,616.004 777.312,616.271 777.747,616.486C779.734,617.467 785.868,617.743 790.817,617.074C798.8,615.996 807.779,610.913 811.409,605.42L812.499,603.77L811.698,603.435C811.256,603.252 810.227,603.016 809.408,602.913C807.209,602.634 806.294,601.341 807.349,600ZM807.779,616.124C806.989,614.968 807.302,614.916 804.395,616.674C802.527,617.804 797.195,620.094 796.432,620.094C796.281,620.094 798.32,623.885 798.94,624.76C799.24,625.183 799.485,625.639 799.485,625.774C799.485,626.129 800.899,627.605 801.239,627.605C802.813,627.605 811.041,621.907 811.041,620.816C811.041,620.605 810.45,619.674 809.729,618.747C809.008,617.819 808.131,616.639 807.779,616.124ZM767.87,616.67C766.929,616.169 766.083,615.762 765.993,615.765C765.901,615.767 765.457,616.97 765.007,618.436C764.554,619.905 763.791,621.749 763.311,622.536C761.928,624.802 763.498,625.604 771.354,626.648L772.55,626.805L772.729,624.679C772.83,623.507 772.982,621.834 773.07,620.96L773.232,619.371L771.84,618.821C771.075,618.52 770.254,618.117 770.016,617.927C769.777,617.738 768.811,617.171 767.87,616.67ZM780.561,621.271C779.45,621.094 778.198,620.881 777.78,620.796C776.853,620.607 776.3,623.415 776.4,627.814C776.484,631.448 776.354,631.361 781.722,631.361C790.259,631.361 790.528,631.179 790.528,625.368L790.528,621.21L789.878,621.432C788.94,621.751 782.932,621.647 780.561,621.271ZM797.318,645.932C794.839,645.138 791.469,645.081 790.044,645.809C787.571,647.069 784.173,651.963 784.173,654.261C784.173,656.064 782.327,656.988 781.126,655.787C780.056,654.717 780.871,650.186 782.568,647.763C783.294,646.726 783.117,646.584 781.315,646.747C776.007,647.229 770.54,653.148 771.731,657.125C771.933,657.803 772.157,658.685 772.228,659.087C772.443,660.315 774.126,662.844 775.634,664.206C783.239,671.077 795.546,663.944 800.578,649.753L801.074,648.354L799.918,647.373C799.282,646.835 798.112,646.185 797.318,645.932Z"/>
    </g>
</svg>
